<svg width="52" height="37" viewBox="0 0 52 37" fill="none" xmlns="http://www.w3.org/2000/svg">
<path d="M28.4351 31.4828V0.501564H34.9554H35.8042C40.2797 0.501564 44.1379 2.43066 44.1379 8.98956C44.1379 12.7706 43.2891 15.5871 41.0513 16.9374C41.3985 17.0532 41.7458 17.1689 42.093 17.2847C42.2859 17.3618 42.5174 17.439 42.7489 17.5161C46.3756 16.513 50.0794 14.0052 50.0794 8.98956C50.0794 1.89051 45.0638 0 38.5435 0H34.9554H28.4351H22.8793H16.3589H12.7708C6.2505 0 1.23486 1.85193 1.23486 8.98956C1.23486 13.9666 4.9773 16.4744 8.56541 17.5161C8.7969 17.439 8.98981 17.3618 9.2213 17.2847C9.56854 17.1689 9.91577 17.0532 10.263 16.9374C8.06385 15.5871 7.17646 12.732 7.17646 8.98956C7.17646 2.43066 11.0346 0.501564 15.5101 0.501564H16.3589H22.8793V31.5213C22.8793 34.3764 22.262 36.4984 19.9085 36.4984V36.9614H31.3673V36.4984C29.0524 36.4984 28.4351 34.3764 28.4351 31.4828Z" fill="#482626"/>
<path d="M51.3144 28.1649C51.3144 27.9334 51.3144 27.6634 51.2758 27.4319C50.8128 21.4131 46.0287 19.6769 40.743 17.9408C40.3571 17.825 40.0099 17.7093 39.6241 17.5935C39.2383 17.4778 38.891 17.362 38.5052 17.2077L36.1517 16.3203C33.2581 15.2014 30.6731 13.4653 29.4385 10.726V11.8448C29.67 12.2306 29.94 12.5779 30.2101 12.9251C36.1131 19.9856 45.6428 18.5195 45.72 27.3547V27.4319C45.72 27.6634 45.72 27.8563 45.72 28.0878C45.72 28.3578 45.6814 28.6665 45.6814 28.898C45.6428 29.1295 45.6428 29.3996 45.6043 29.631C45.5657 29.7854 45.5657 29.9783 45.5271 30.1326C45.4885 30.2869 45.4499 30.4413 45.4499 30.5956C44.6783 34.0294 42.5563 35.5726 39.8942 36.19C39.1611 36.3443 38.3895 36.4214 37.6178 36.46H37.5021C34.184 36.46 31.1361 34.8782 29.4771 31.7916V32.7176C31.0975 35.4183 34.2226 37.0002 37.5021 37.0002H38.3509C41.6689 37.0002 44.6783 36.5758 46.9546 35.5341C47.0318 35.4955 47.109 35.4569 47.1475 35.4569C47.2247 35.4183 47.2633 35.3797 47.3404 35.3412C47.4176 35.3026 47.5334 35.264 47.6105 35.1868C47.6877 35.1482 47.8034 35.0711 47.8806 35.0325C50.2727 33.6436 51.353 31.3672 51.353 28.4736C51.3144 28.3964 51.3144 28.2807 51.3144 28.1649Z" fill="#482626"/>
<path d="M21.8373 32.7176V31.7916C20.2169 34.8782 17.1303 36.46 13.8123 36.46H13.6965C12.9249 36.46 12.1919 36.3829 11.4202 36.19C8.75807 35.5726 6.63607 33.9908 5.86444 30.5956C5.82585 30.4413 5.78727 30.2869 5.78727 30.1326C5.74869 29.9783 5.74869 29.824 5.71011 29.631C5.67153 29.3996 5.63295 29.1681 5.63295 28.898C5.59436 28.6279 5.59436 28.3578 5.59436 28.0878C5.59436 27.8949 5.59436 27.6634 5.59436 27.4319V27.3547C5.67153 18.5581 15.2012 19.9856 21.1043 12.9251C21.3743 12.5779 21.6444 12.2306 21.8759 11.8448V10.726C20.6413 13.4653 18.0563 15.2014 15.1627 16.3203L12.8092 17.2077C12.4233 17.3234 12.0761 17.4392 11.6903 17.5935C11.3045 17.7093 10.9572 17.825 10.5714 17.9408C5.28571 19.6769 0.501563 21.4131 0.0385812 27.4319C-5.89287e-07 27.6634 0 27.9334 0 28.1649C0 28.2807 0 28.3578 0 28.4736C0 31.3672 1.08029 33.6436 3.47236 35.0325C3.54953 35.0711 3.62669 35.1482 3.74244 35.1868C3.8196 35.2254 3.93535 35.264 4.01251 35.3412C4.08967 35.3797 4.12826 35.4183 4.20542 35.4569C4.28258 35.4955 4.32117 35.5341 4.39833 35.5341C6.71324 36.5758 9.68404 37.0002 13.0021 37.0002H13.8509C17.1303 37.0002 20.2555 35.4183 21.8373 32.7176Z" fill="#482626"/>
</svg>
