<svg width="133" height="31" viewBox="0 0 133 31" fill="none" xmlns="http://www.w3.org/2000/svg">
<path d="M92.3091 23.0206C92.3091 22.8314 92.3091 22.6107 92.2776 22.4214C91.8991 17.502 87.9888 16.0829 83.6685 14.6638C83.3531 14.5692 83.0693 14.4746 82.754 14.38C82.4386 14.2854 82.1548 14.1908 81.8394 14.0647L79.9158 13.3394C77.5507 12.4248 75.4378 11.0058 74.4287 8.76677V9.68129C74.6179 9.99664 74.8387 10.2805 75.0594 10.5643C79.8843 16.3352 87.6734 15.1369 87.7365 22.3584V22.4214C87.7365 22.6107 87.7365 22.7683 87.7365 22.9575C87.7365 23.1783 87.705 23.4306 87.705 23.6198C87.6734 23.809 87.6734 24.0297 87.6419 24.2189C87.6104 24.3451 87.6104 24.5028 87.5788 24.6289C87.5473 24.755 87.5158 24.8812 87.5158 25.0073C86.8851 27.8139 85.1506 29.0753 82.9747 29.5799C82.3755 29.706 81.7448 29.7691 81.1141 29.8007H81.0195C78.3075 29.8007 75.8163 28.5077 74.4602 25.9849V26.7418C75.7847 28.9492 78.3391 30.2421 81.0195 30.2421H81.7133C84.4253 30.2421 86.8851 29.8953 88.7456 29.0438C88.8087 29.0123 88.8718 28.9807 88.9033 28.9807C88.9664 28.9492 88.9979 28.9177 89.061 28.8861C89.1241 28.8546 89.2187 28.8231 89.2817 28.76C89.3448 28.7285 89.4394 28.6654 89.5025 28.6339C91.4576 27.4986 92.3406 25.638 92.3406 23.2729C92.3091 23.2098 92.3091 23.1152 92.3091 23.0206Z" fill="#482626"/>
<path d="M68.216 26.7418V25.9849C66.8916 28.5077 64.3688 29.8007 61.6567 29.8007H61.5621C60.9314 29.8007 60.3323 29.7376 59.7016 29.5799C57.5256 29.0753 55.7912 27.7824 55.1605 25.0073C55.129 24.8812 55.0974 24.755 55.0974 24.6289C55.0659 24.5028 55.0659 24.3766 55.0344 24.2189C55.0028 24.0297 54.9713 23.8405 54.9713 23.6198C54.9398 23.399 54.9398 23.1783 54.9398 22.9575C54.9398 22.7999 54.9398 22.6107 54.9398 22.4214V22.3584C55.0028 15.1684 62.792 16.3352 67.6169 10.5643C67.8376 10.2805 68.0584 9.99664 68.2476 9.68129V8.76677C67.2384 11.0058 65.1256 12.4248 62.7605 13.3394L60.8368 14.0647C60.5215 14.1593 60.2377 14.2539 59.9223 14.38C59.607 14.4746 59.3231 14.5692 59.0078 14.6638C54.6875 16.0829 50.7771 17.502 50.3987 22.4214C50.3672 22.6107 50.3672 22.8314 50.3672 23.0206C50.3672 23.1152 50.3672 23.1783 50.3672 23.2729C50.3672 25.638 51.2502 27.4986 53.2053 28.6339C53.2684 28.6654 53.3315 28.7285 53.4261 28.76C53.4892 28.7915 53.5838 28.8231 53.6468 28.8861C53.7099 28.9177 53.7414 28.9492 53.8045 28.9807C53.8676 29.0123 53.8991 29.0438 53.9622 29.0438C55.8543 29.8953 58.2825 30.2421 60.9945 30.2421H61.6883C64.3688 30.2421 66.9231 28.9492 68.216 26.7418Z" fill="#482626"/>
<path d="M73.6082 25.7326V0.409956H78.9376H79.6314C83.2894 0.409956 86.443 1.98671 86.443 7.34767C86.443 10.4381 85.7492 12.7402 83.9202 13.8439C84.204 13.9385 84.4878 14.0331 84.7716 14.1277C84.9293 14.1908 85.1185 14.2538 85.3077 14.3169C88.272 13.497 91.2994 11.4472 91.2994 7.34767C91.2994 1.54522 87.1998 0 81.8704 0H78.9376H73.6082H69.0671H63.7377H60.805C55.4755 0 51.376 1.51368 51.376 7.34767C51.376 11.4157 54.4349 13.4655 57.3676 14.3169C57.5568 14.2538 57.7145 14.1908 57.9037 14.1277C58.1875 14.0331 58.4714 13.9385 58.7552 13.8439C56.9577 12.7402 56.2324 10.4066 56.2324 7.34767C56.2324 1.98671 59.3859 0.409956 63.0439 0.409956H63.7377H69.0671V25.7641C69.0671 28.0977 68.5626 29.8322 66.6389 29.8322V30.2106H76.0049V29.8322C74.1127 29.8322 73.6082 28.0977 73.6082 25.7326Z" fill="#482626"/>
<path d="M7.90962 13.1064C7.61449 12.8703 7.28 12.6932 6.92584 12.5751C7.04389 12.5161 7.18162 12.4374 7.29968 12.3587C7.83092 12.0242 8.24411 11.5914 8.53925 11.0601C8.83438 10.5289 8.99179 9.9386 8.99179 9.26962C8.99179 8.52195 8.89341 7.87265 8.69665 7.34141C8.49989 6.81016 8.20476 6.35762 7.83092 6.02313C7.45708 5.66897 6.98487 5.41319 6.45362 5.25578C5.9027 5.09838 5.29276 5 4.60411 5H0V21.0357H0.767352H2.0266H4.78119C5.68627 21.0357 6.49298 20.8586 7.16195 20.5044C7.83092 20.1503 8.36216 19.619 8.736 18.9304C9.10984 18.2417 9.28692 17.3957 9.28692 16.3922C9.28692 15.7036 9.16887 15.074 8.93276 14.5034C8.71633 13.9524 8.36216 13.4802 7.90962 13.1064ZM4.58443 6.75114C5.11568 6.75114 5.56822 6.82984 5.9027 7.00692C6.25687 7.184 6.51265 7.45946 6.68973 7.81362C6.86681 8.18746 6.94552 8.65968 6.94552 9.24995C6.94552 9.78119 6.84714 10.2534 6.65038 10.6272C6.45362 11.0208 6.17816 11.3159 5.824 11.5127C5.46984 11.7094 5.07633 11.8275 4.60411 11.8275H2.2627H2.0266V6.73146H4.58443V6.75114ZM6.96519 17.9663C6.76843 18.3991 6.49297 18.7336 6.11914 18.9697C5.7453 19.2058 5.31243 19.3239 4.78119 19.3239H2.0266V13.5589H2.24303H4.85989C5.43049 13.5589 5.9027 13.677 6.25687 13.9131C6.61103 14.1492 6.86681 14.4837 7.02422 14.9165C7.18162 15.3494 7.26033 15.861 7.26033 16.4512C7.26033 17.0415 7.16195 17.5334 6.96519 17.9663Z" fill="#482626"/>
<path d="M18.7111 18.4577V12.5747C18.7111 11.6893 18.5537 10.981 18.2192 10.4301C17.9044 9.89882 17.4519 9.50531 16.8813 9.2692C16.3107 9.03309 15.6614 8.91504 14.9334 8.91504C14.3235 8.91504 13.7529 9.01342 13.261 9.21017C12.7691 9.40693 12.3362 9.68239 11.982 10.0169C11.6279 10.3514 11.3524 10.7449 11.1753 11.1581C10.9786 11.5713 10.8999 12.0041 10.8999 12.4173H12.8478C12.8478 12.0828 12.9265 11.768 13.0839 11.4926C13.2413 11.2171 13.4774 10.981 13.7725 10.8236C14.0677 10.6465 14.4218 10.5678 14.835 10.5678C15.2679 10.5678 15.622 10.6268 15.8975 10.7646C16.173 10.9023 16.3894 11.099 16.5271 11.3942C16.6649 11.6893 16.7436 12.0631 16.7436 12.5354V13.8143H15.4056C14.6186 13.8143 13.9496 13.9127 13.3593 14.1094C12.7691 14.3062 12.2772 14.5816 11.8837 14.9358C11.4902 15.29 11.195 15.7031 10.9983 16.195C10.8015 16.6869 10.7031 17.2182 10.7031 17.7888C10.7031 18.5364 10.8409 19.1857 11.136 19.6973C11.4311 20.2089 11.8246 20.6024 12.3362 20.8582C12.8478 21.114 13.4577 21.2517 14.1464 21.2517C14.6186 21.2517 15.0318 21.1533 15.4253 20.9566C15.7991 20.7598 16.1336 20.504 16.4091 20.2089C16.5468 20.0515 16.6845 19.8941 16.7829 19.717C16.8026 19.835 16.8026 19.9531 16.8223 20.0712C16.8813 20.4647 16.9403 20.7795 17.0387 21.0156H19.085V20.8385C18.9669 20.5237 18.8685 20.1302 18.8095 19.6776C18.7505 19.2644 18.7111 18.8513 18.7111 18.4577ZM15.7598 19.1464C15.3859 19.3825 14.9531 19.4809 14.4612 19.4809C14.048 19.4809 13.7135 19.4219 13.4577 19.2841C13.2019 19.1661 12.9855 18.9496 12.8674 18.6742C12.7297 18.3987 12.6707 18.0052 12.6707 17.533C12.6707 17.1591 12.7494 16.8443 12.8871 16.5492C13.0249 16.2541 13.2413 16.018 13.5167 15.8212C13.7922 15.6244 14.107 15.4867 14.5005 15.3687C14.8744 15.2703 15.3072 15.2113 15.7598 15.2113H16.7829V18.0642C16.7436 18.1429 16.7042 18.202 16.6649 18.2807C16.4287 18.6545 16.1336 18.93 15.7598 19.1464Z" fill="#482626"/>
<path d="M26.9559 10.4694C26.9363 10.4301 26.9166 10.4104 26.8969 10.371C26.6018 9.89882 26.2279 9.54466 25.7754 9.28888C25.3229 9.03309 24.7916 8.91504 24.1817 8.91504C23.5717 8.91504 23.0208 9.03309 22.5289 9.24953C22.037 9.46596 21.6238 9.80044 21.2697 10.2727C20.9155 10.7252 20.6597 11.3155 20.463 12.0238C20.2859 12.7321 20.1875 13.5782 20.1875 14.562V15.6835C20.1875 16.6279 20.2859 17.4543 20.463 18.1429C20.64 18.8316 20.9155 19.4219 21.2697 19.8941C21.6238 20.3663 22.037 20.7008 22.5289 20.9369C23.0208 21.173 23.552 21.291 24.162 21.291C24.7719 21.291 25.3032 21.173 25.7557 20.9172C26.1886 20.6811 26.5624 20.3269 26.8576 19.8744V21.2714C26.8576 21.96 26.7592 22.5109 26.5427 22.9241C26.346 23.3373 26.0509 23.6324 25.677 23.8292C25.3032 24.0063 24.8703 24.1047 24.3587 24.1047C23.9259 24.1047 23.493 24.0063 23.0208 23.8292C22.5486 23.6521 22.1157 23.3373 21.6829 22.9241L20.8761 24.2817C21.1713 24.6162 21.5451 24.8917 21.9977 25.1278C22.4502 25.3442 22.9027 25.5213 23.3553 25.6197C23.8078 25.7377 24.1817 25.7771 24.4965 25.7771C25.3425 25.7771 26.0902 25.6197 26.7395 25.2852C27.3888 24.9507 27.9004 24.4588 28.2545 23.7702C28.6087 23.0815 28.8054 22.2158 28.8054 21.173V9.15115H27.0543L26.9559 10.4694ZM26.8379 18.0839C26.6214 18.5168 26.346 18.8709 26.0115 19.1267C25.6573 19.3825 25.2245 19.5202 24.6736 19.5202C24.221 19.5202 23.8472 19.4415 23.5127 19.2841C23.1979 19.1267 22.9421 18.8906 22.7257 18.5758C22.5289 18.261 22.3715 17.8478 22.2731 17.3559C22.1747 16.864 22.1354 16.2934 22.1354 15.6244V14.5029C22.1354 13.834 22.1747 13.2634 22.2731 12.7715C22.3715 12.2796 22.5289 11.8664 22.7257 11.5516C22.9224 11.2368 23.1979 10.981 23.5127 10.8236C23.8275 10.6662 24.221 10.5875 24.6736 10.5875C25.0671 10.5875 25.4212 10.6662 25.7164 10.8236C26.0115 10.981 26.2673 11.1974 26.4837 11.4729C26.6214 11.65 26.7395 11.8467 26.8379 12.0631V17.9855C26.8576 18.0446 26.8576 18.0642 26.8379 18.0839Z" fill="#482626"/>
<path d="M37.9156 16.2345C37.6204 15.8017 37.2072 15.4278 36.6563 15.0933C36.1054 14.7785 35.4167 14.4441 34.61 14.1292C34.1969 13.9522 33.8427 13.7751 33.5869 13.6373C33.3114 13.4996 33.1147 13.3619 32.9573 13.2242C32.7999 13.0864 32.7015 12.9487 32.6228 12.7913C32.5638 12.6339 32.5244 12.4371 32.5244 12.2207C32.5244 11.9256 32.5834 11.6501 32.7015 11.414C32.8196 11.1779 33.0163 10.9615 33.2918 10.804C33.5672 10.6466 33.9214 10.5679 34.3543 10.5679C34.7674 10.5679 35.1216 10.6663 35.3971 10.8434C35.6922 11.0402 35.9086 11.2763 36.0464 11.5714C36.1841 11.8665 36.2628 12.1813 36.2628 12.5158H38.2107C38.2107 11.8272 38.0533 11.2172 37.7582 10.6663C37.463 10.1154 37.0105 9.68253 36.4399 9.36772C35.8693 9.05291 35.1806 8.89551 34.3543 8.89551C33.7837 8.89551 33.2721 8.97421 32.7999 9.15129C32.3277 9.32837 31.9342 9.56448 31.6193 9.87929C31.2849 10.1941 31.0291 10.5483 30.852 10.9615C30.6749 11.3746 30.5765 11.8075 30.5765 12.2797C30.5765 12.7519 30.6552 13.1651 30.8126 13.5193C30.97 13.8735 31.2062 14.1686 31.5013 14.444C31.7964 14.6998 32.1703 14.9556 32.6031 15.172C33.036 15.3885 33.5279 15.6246 34.0788 15.841C34.6494 16.0771 35.1019 16.3132 35.4364 16.5297C35.7709 16.7461 36.007 16.9625 36.1644 17.1986C36.3022 17.4348 36.3809 17.6905 36.3809 17.9857C36.3809 18.3005 36.3022 18.5956 36.1644 18.8317C36.007 19.0678 35.7906 19.2646 35.4954 19.3826C35.2003 19.5204 34.8462 19.5794 34.4133 19.5794C34.0788 19.5794 33.7443 19.5204 33.4295 19.4023C33.095 19.2843 32.8196 19.0678 32.5834 18.7727C32.3473 18.4776 32.2293 18.025 32.2096 17.4741H30.2617C30.2617 18.1431 30.4191 18.753 30.7339 19.3236C31.0487 19.8942 31.521 20.3664 32.1506 20.7206C32.7802 21.0748 33.5279 21.2518 34.433 21.2518C35.0232 21.2518 35.5742 21.1731 36.0464 21.0157C36.5186 20.8583 36.9318 20.6222 37.2859 20.3271C37.6401 20.0319 37.8959 19.6581 38.0926 19.2449C38.2894 18.8317 38.3681 18.3595 38.3681 17.8283C38.3287 17.1986 38.191 16.6674 37.9156 16.2345Z" fill="#482626"/>
<path d="M114.769 8.73146V7H110.539H108.551H104.341V8.73146H108.551V23.0357H110.539V8.73146H114.769Z" fill="#482626"/>
<path d="M121.891 12.3318C121.557 11.8596 121.124 11.4858 120.592 11.2497C120.061 11.0136 119.432 10.8955 118.684 10.8955C118.133 10.8955 117.582 10.9939 117.051 11.1906C116.52 11.3874 116.047 11.7219 115.634 12.1548C115.221 12.6073 114.886 13.1779 114.631 13.9059C114.375 14.6339 114.257 15.5193 114.257 16.5621V17.9C114.257 18.8051 114.355 19.5922 114.572 20.2611C114.788 20.9301 115.083 21.481 115.496 21.9139C115.91 22.3468 116.382 22.6812 116.952 22.8977C117.523 23.1141 118.172 23.2125 118.881 23.2125C119.569 23.2125 120.16 23.1338 120.651 22.9567C121.143 22.7796 121.557 22.5632 121.911 22.2877C122.265 22.0123 122.521 21.7171 122.737 21.422L121.714 20.2021C121.399 20.5956 121.025 20.9301 120.592 21.1859C120.16 21.4417 119.628 21.5597 118.979 21.5597C118.526 21.5597 118.133 21.481 117.779 21.3433C117.425 21.2056 117.129 20.9891 116.893 20.6743C116.657 20.3792 116.48 20.0053 116.362 19.5331C116.244 19.0806 116.185 18.5297 116.185 17.8804V17.5852H122.835V16.444C122.835 15.539 122.757 14.7323 122.599 14.0239C122.481 13.3943 122.225 12.804 121.891 12.3318ZM120.927 15.9718H116.244C116.264 15.4406 116.323 14.9684 116.421 14.5945C116.539 14.0633 116.716 13.6698 116.933 13.3746C117.149 13.0795 117.405 12.8631 117.72 12.745C118.015 12.627 118.349 12.5679 118.723 12.5679C119.294 12.5679 119.727 12.7057 120.041 12.9615C120.356 13.2369 120.573 13.5911 120.71 14.0633C120.848 14.5355 120.927 15.0864 120.966 15.6964V15.9718H120.927Z" fill="#482626"/>
<path d="M131.985 21.6975C131.926 21.2449 131.887 20.8317 131.887 20.4382V14.5552C131.887 13.6698 131.729 12.9615 131.395 12.4105C131.08 11.8793 130.628 11.4858 130.057 11.2497C129.486 11.0136 128.837 10.8955 128.109 10.8955C127.499 10.8955 126.929 10.9939 126.437 11.1906C125.945 11.3874 125.512 11.6629 125.158 11.9973C124.804 12.3318 124.528 12.7253 124.351 13.1385C124.154 13.5517 124.076 13.9846 124.076 14.3978H126.024C126.024 14.0633 126.102 13.7485 126.26 13.473C126.417 13.1976 126.653 12.9615 126.948 12.804C127.243 12.627 127.598 12.5483 128.011 12.5483C128.444 12.5483 128.798 12.6073 129.073 12.745C129.349 12.8828 129.565 13.0795 129.703 13.3746C129.841 13.6698 129.919 14.0436 129.919 14.5158V15.7948H128.581C127.794 15.7948 127.125 15.8931 126.535 16.0899C125.945 16.2866 125.453 16.5621 125.059 16.9163C124.666 17.2704 124.371 17.6836 124.174 18.1755C123.977 18.6674 123.879 19.1986 123.879 19.7692C123.879 20.5169 124.017 21.1662 124.312 21.6778C124.607 22.1893 125 22.5829 125.512 22.8386C126.024 23.0944 126.634 23.2322 127.322 23.2322C127.794 23.2322 128.208 23.1338 128.601 22.937C128.975 22.7403 129.309 22.4845 129.585 22.1893C129.723 22.0319 129.86 21.8745 129.959 21.6975C129.978 21.8155 129.978 21.9336 129.998 22.0516C130.057 22.4451 130.116 22.7599 130.214 22.9961H132.221V22.819C132.143 22.5238 132.044 22.15 131.985 21.6975ZM128.936 21.1269C128.562 21.363 128.129 21.4613 127.637 21.4613C127.224 21.4613 126.889 21.4023 126.634 21.2646C126.378 21.1465 126.161 20.9301 126.043 20.6546C125.906 20.3792 125.846 19.9857 125.846 19.5135C125.846 19.1396 125.925 18.8248 126.063 18.5297C126.201 18.2345 126.417 17.9984 126.693 17.8017C126.968 17.6049 127.283 17.4672 127.676 17.3491C128.05 17.2508 128.483 17.1917 128.936 17.1917H129.959V20.0447C129.919 20.1234 129.88 20.1824 129.841 20.2611C129.605 20.635 129.309 20.9104 128.936 21.1269Z" fill="#482626"/>
</svg>
