<svg width="115" height="73" viewBox="0 0 115 73" fill="none" xmlns="http://www.w3.org/2000/svg">
<path d="M57.885 25.7326V0.409956H63.2145H63.9082C67.5663 0.409956 70.7198 1.98671 70.7198 7.34767C70.7198 10.4381 70.026 12.7402 68.197 13.8439C68.4808 13.9385 68.7646 14.0331 69.0485 14.1277C69.2061 14.1908 69.3953 14.2538 69.5845 14.3169C72.5488 13.497 75.5762 11.4472 75.5762 7.34767C75.5762 1.54522 71.4767 0 66.1472 0H63.2145H57.885H53.344H48.0146H45.0818C39.7524 0 35.6528 1.51368 35.6528 7.34767C35.6528 11.4157 38.7117 13.4655 41.6445 14.3169C41.8337 14.2538 41.9914 14.1908 42.1806 14.1277C42.4644 14.0331 42.7482 13.9385 43.032 13.8439C41.2345 12.7402 40.5092 10.4066 40.5092 7.34767C40.5092 1.98671 43.6627 0.409956 47.3208 0.409956H48.0146H53.344V25.7641C53.344 28.0977 52.8394 29.8322 50.9158 29.8322V30.2106H60.2817V29.8322C58.3896 29.8322 57.885 28.0977 57.885 25.7326Z" fill="#3A3F42"/>
<path d="M76.585 23.0207C76.585 22.8315 76.585 22.6107 76.5534 22.4215C76.175 17.5021 72.2647 16.083 67.9444 14.6639C67.629 14.5693 67.3452 14.4747 67.0298 14.3801C66.7145 14.2855 66.4307 14.1909 66.1153 14.0647L64.1917 13.3394C61.8266 12.4249 59.7137 11.0058 58.7046 8.76685V9.68136C58.8938 9.99671 59.1145 10.2805 59.3353 10.5643C64.1602 16.3353 71.9493 15.1369 72.0124 22.3585V22.4215C72.0124 22.6107 72.0124 22.7684 72.0124 22.9576C72.0124 23.1784 71.9809 23.4306 71.9809 23.6199C71.9493 23.8091 71.9493 24.0298 71.9178 24.219C71.8862 24.3452 71.8862 24.5028 71.8547 24.629C71.8232 24.7551 71.7916 24.8813 71.7916 25.0074C71.1609 27.814 69.4265 29.0754 67.2506 29.58C66.6514 29.7061 66.0207 29.7692 65.39 29.8007H65.2954C62.5834 29.8007 60.0921 28.5078 58.7361 25.985V26.7418C60.0606 28.9493 62.6149 30.2422 65.2954 30.2422H65.9892C68.7012 30.2422 71.1609 29.8953 73.0215 29.0439C73.0846 29.0124 73.1476 28.9808 73.1792 28.9808C73.2423 28.9493 73.2738 28.9177 73.3369 28.8862C73.3999 28.8547 73.4945 28.8231 73.5576 28.7601C73.6207 28.7285 73.7153 28.6655 73.7783 28.6339C75.7335 27.4987 76.6165 25.6381 76.6165 23.273C76.585 23.2099 76.585 23.1153 76.585 23.0207Z" fill="#3A3F42"/>
<path d="M52.4924 26.7418V25.985C51.1679 28.5078 48.6451 29.8007 45.9331 29.8007H45.8385C45.2078 29.8007 44.6086 29.7377 43.9779 29.58C41.802 29.0754 40.0676 27.7825 39.4369 25.0074C39.4053 24.8813 39.3738 24.7551 39.3738 24.629C39.3423 24.5028 39.3423 24.3767 39.3107 24.219C39.2792 24.0298 39.2477 23.8406 39.2477 23.6199C39.2161 23.3991 39.2161 23.1784 39.2161 22.9576C39.2161 22.7999 39.2161 22.6107 39.2161 22.4215V22.3585C39.2792 15.1685 47.0684 16.3353 51.8932 10.5643C52.114 10.2805 52.3347 9.99671 52.5239 9.68136V8.76685C51.5148 11.0058 49.402 12.4249 47.0368 13.3394L45.1132 14.0647C44.7978 14.1593 44.514 14.2539 44.1987 14.3801C43.8833 14.4747 43.5995 14.5693 43.2842 14.6639C38.9639 16.083 35.0535 17.5021 34.6751 22.4215C34.6436 22.6107 34.6436 22.8315 34.6436 23.0207C34.6436 23.1153 34.6436 23.1784 34.6436 23.273C34.6436 25.6381 35.5265 27.4987 37.4817 28.6339C37.5448 28.6655 37.6078 28.7285 37.7025 28.7601C37.7655 28.7916 37.8601 28.8231 37.9232 28.8862C37.9863 28.9177 38.0178 28.9493 38.0809 28.9808C38.1439 29.0124 38.1755 29.0439 38.2386 29.0439C40.1307 29.8953 42.5589 30.2422 45.2709 30.2422H45.9646C48.6451 30.2422 51.1995 28.9493 52.4924 26.7418Z" fill="#3A3F42"/>
<path d="M12.6771 52.6914C12.2041 52.313 11.668 52.0292 11.1003 51.84C11.2896 51.7454 11.5103 51.6192 11.6995 51.4931C12.551 50.957 13.2132 50.2632 13.6862 49.4118C14.1592 48.5603 14.4115 47.6143 14.4115 46.5421C14.4115 45.3437 14.2538 44.3031 13.9385 43.4516C13.6231 42.6002 13.1501 41.8749 12.551 41.3388C11.9518 40.7712 11.1949 40.3612 10.3435 40.1089C9.46052 39.8567 8.48293 39.699 7.3792 39.699H0V65.4H1.22987H3.24811H7.66302C9.11363 65.4 10.4066 65.1162 11.4788 64.5486C12.551 63.981 13.4024 63.1295 14.0016 62.0258C14.6007 60.9221 14.8845 59.5661 14.8845 57.9578C14.8845 56.854 14.6953 55.8449 14.3169 54.9304C13.97 54.0474 13.4024 53.2906 12.6771 52.6914ZM7.34767 42.5056C8.19911 42.5056 8.92442 42.6317 9.46052 42.9155C10.0281 43.1994 10.4381 43.6409 10.7219 44.2085C11.0057 44.8077 11.1319 45.5645 11.1319 46.5105C11.1319 47.362 10.9742 48.1188 10.6588 48.718C10.3435 49.3487 9.90201 49.8217 9.33438 50.1371C8.76675 50.4524 8.13604 50.6416 7.3792 50.6416H3.62653H3.24811V42.4741H7.34767V42.5056ZM11.1634 60.4806C10.8481 61.1744 10.4066 61.7104 9.8074 62.0889C9.20824 62.4673 8.51447 62.6565 7.66302 62.6565H3.24811V53.4167H3.595H7.78916C8.70368 53.4167 9.46052 53.6059 10.0281 53.9844C10.5958 54.3628 11.0057 54.8989 11.258 55.5926C11.5103 56.2864 11.6364 57.1063 11.6364 58.0524C11.6364 58.9984 11.4788 59.7868 11.1634 60.4806Z" fill="#3A3F42"/>
<path d="M29.99 61.2689V51.8399C29.99 50.4208 29.7378 49.2855 29.2017 48.4026C28.6971 47.5511 27.9718 46.9204 27.0573 46.542C26.1428 46.1636 25.1021 45.9744 23.9353 45.9744C22.9577 45.9744 22.0432 46.132 21.2548 46.4474C20.4665 46.7627 19.7727 47.2042 19.2051 47.7403C18.6374 48.2764 18.1959 48.9071 17.9121 49.5694C17.5968 50.2316 17.4706 50.9254 17.4706 51.5876H20.5926C20.5926 51.0515 20.7187 50.5469 20.971 50.1055C21.2233 49.664 21.6017 49.2855 22.0747 49.0333C22.5478 48.7494 23.1154 48.6233 23.7776 48.6233C24.4714 48.6233 25.039 48.7179 25.4805 48.9387C25.922 49.1594 26.2689 49.4748 26.4896 49.9478C26.7104 50.4208 26.8365 51.02 26.8365 51.7768V53.8266H24.6922C23.4307 53.8266 22.3586 53.9843 21.4125 54.2996C20.4665 54.615 19.6781 55.0565 19.0474 55.6241C18.4167 56.1917 17.9436 56.854 17.6283 57.6423C17.3129 58.4307 17.1553 59.2822 17.1553 60.1967C17.1553 61.395 17.376 62.4357 17.849 63.2556C18.3221 64.0755 18.9528 64.7062 19.7727 65.1161C20.5926 65.5261 21.5702 65.7468 22.6739 65.7468C23.4307 65.7468 24.093 65.5892 24.7237 65.2738C25.3229 64.9585 25.8589 64.5485 26.3004 64.0755C26.5212 63.8232 26.7419 63.5709 26.8996 63.2871C26.9311 63.4763 26.9311 63.6655 26.9627 63.8547C27.0573 64.4854 27.1519 64.99 27.3096 65.3684H30.5892V65.0846C30.4 64.58 30.2423 63.9493 30.1477 63.224C30.0531 62.5618 29.99 61.8996 29.99 61.2689ZM25.2598 62.3726C24.6606 62.751 23.9668 62.9087 23.1785 62.9087C22.5162 62.9087 21.9801 62.8141 21.5702 62.5933C21.1602 62.4041 20.8133 62.0572 20.6241 61.6158C20.4034 61.1743 20.3088 60.5436 20.3088 59.7867C20.3088 59.1875 20.4349 58.683 20.6557 58.21C20.8764 57.7369 21.2233 57.3585 21.6648 57.0432C22.1063 56.7278 22.6108 56.5071 23.2415 56.3179C23.8407 56.1602 24.5345 56.0656 25.2598 56.0656H26.8996V60.6382C26.8365 60.7643 26.7735 60.8589 26.7104 60.985C26.332 61.5842 25.8589 62.0257 25.2598 62.3726Z" fill="#3A3F42"/>
<path d="M43.203 48.4656C43.1715 48.4026 43.14 48.371 43.1084 48.308C42.6354 47.5511 42.0362 46.9835 41.3109 46.5735C40.5856 46.1636 39.7342 45.9744 38.7566 45.9744C37.779 45.9744 36.896 46.1636 36.1077 46.5105C35.3193 46.8573 34.657 47.3934 34.0894 48.1503C33.5218 48.8756 33.1118 49.8216 32.7965 50.9569C32.5127 52.0922 32.355 53.4482 32.355 55.0249V56.8224C32.355 58.3361 32.5127 59.6606 32.7965 60.7643C33.0803 61.868 33.5218 62.8141 34.0894 63.5709C34.657 64.3278 35.3193 64.8639 36.1077 65.2423C36.896 65.6207 37.7475 65.8099 38.7251 65.8099C39.7027 65.8099 40.5541 65.6207 41.2794 65.2107C41.9732 64.8323 42.5723 64.2647 43.0454 63.5394V65.7784C43.0454 66.8821 42.8877 67.7651 42.5408 68.4273C42.2255 69.0896 41.7524 69.5626 41.1533 69.8779C40.5541 70.1617 39.8603 70.3194 39.0404 70.3194C38.3466 70.3194 37.6529 70.1617 36.896 69.8779C36.1392 69.5941 35.4454 69.0896 34.7516 68.4273L33.4587 70.6032C33.9317 71.1393 34.5309 71.5808 35.2562 71.9592C35.9815 72.3061 36.7068 72.59 37.4321 72.7476C38.1574 72.9368 38.7566 72.9999 39.2612 72.9999C40.6172 72.9999 41.8155 72.7476 42.8562 72.2115C43.8968 71.6754 44.7167 70.8871 45.2844 69.7833C45.852 68.6796 46.1673 67.2921 46.1673 65.6207V46.3528H43.3607L43.203 48.4656ZM43.0138 60.6697C42.6669 61.3635 42.2255 61.9311 41.6894 62.3411C41.1217 62.751 40.428 62.9718 39.545 62.9718C38.8197 62.9718 38.2205 62.8456 37.6844 62.5933C37.1798 62.3411 36.7699 61.9626 36.423 61.4581C36.1077 60.9535 35.8554 60.2913 35.6977 59.5029C35.54 58.7145 35.477 57.8 35.477 56.7278V54.9303C35.477 53.8581 35.54 52.9436 35.6977 52.1552C35.8554 51.3669 36.1077 50.7046 36.423 50.2001C36.7384 49.6955 37.1798 49.2855 37.6844 49.0333C38.189 48.781 38.8197 48.6548 39.545 48.6548C40.1757 48.6548 40.7433 48.781 41.2163 49.0333C41.6894 49.2855 42.0993 49.6324 42.4462 50.0739C42.6669 50.3577 42.8562 50.6731 43.0138 51.02V60.512C43.0454 60.6066 43.0454 60.6382 43.0138 60.6697Z" fill="#3A3F42"/>
<path d="M60.7681 57.7054C60.2951 57.0117 59.6329 56.4125 58.7499 55.8764C57.8669 55.3719 56.7632 54.8358 55.4702 54.3312C54.808 54.0474 54.2404 53.7636 53.8304 53.5428C53.3889 53.3221 53.0736 53.1013 52.8213 52.8806C52.569 52.6598 52.4113 52.4391 52.2852 52.1868C52.1906 51.9345 52.1275 51.6192 52.1275 51.2723C52.1275 50.7993 52.2221 50.3578 52.4113 49.9794C52.6005 49.6009 52.9159 49.2541 53.3574 49.0018C53.7989 48.7495 54.3665 48.6234 55.0603 48.6234C55.7225 48.6234 56.2901 48.781 56.7316 49.0648C57.2046 49.3802 57.5515 49.7586 57.7723 50.2316C57.993 50.7047 58.1192 51.2092 58.1192 51.7453H61.2411C61.2411 50.6416 60.9889 49.664 60.5158 48.781C60.0428 47.898 59.3175 47.2043 58.403 46.6997C57.4885 46.1951 56.3847 45.9429 55.0603 45.9429C54.1458 45.9429 53.3258 46.069 52.569 46.3528C51.8122 46.6366 51.1815 47.0151 50.6769 47.5196C50.1408 48.0242 49.7308 48.5918 49.447 49.2541C49.1632 49.9163 49.0055 50.6101 49.0055 51.3669C49.0055 52.1237 49.1317 52.786 49.384 53.3536C49.6362 53.9212 50.0147 54.3943 50.4877 54.8358C50.9607 55.2457 51.5599 55.6557 52.2536 56.0026C52.9474 56.3494 53.7358 56.7279 54.6188 57.0747C55.5333 57.4532 56.2586 57.8316 56.7947 58.1785C57.3308 58.5254 57.7092 58.8722 57.9615 59.2507C58.1822 59.6291 58.3084 60.039 58.3084 60.5121C58.3084 61.0166 58.1822 61.4897 57.9615 61.8681C57.7092 62.2465 57.3623 62.5618 56.8893 62.7511C56.4163 62.9718 55.8486 63.0664 55.1549 63.0664C54.6188 63.0664 54.0827 62.9718 53.5781 62.7826C53.042 62.5934 52.6005 62.2465 52.2221 61.7735C51.8437 61.3004 51.6545 60.5751 51.6229 59.6922H48.501C48.501 60.7643 48.7533 61.7419 49.2578 62.6565C49.7624 63.571 50.5192 64.3278 51.5283 64.8954C52.5375 65.4631 53.7358 65.7469 55.1864 65.7469C56.1325 65.7469 57.0154 65.6207 57.7723 65.3685C58.5291 65.1162 59.1914 64.7378 59.759 64.2647C60.3266 63.7917 60.7366 63.1925 61.0519 62.5303C61.3673 61.8681 61.4934 61.1112 61.4934 60.2598C61.4303 59.2507 61.2096 58.3992 60.7681 57.7054Z" fill="#3A3F42"/>
<path d="M70.1028 58.8093C70.0713 58.7777 70.0397 58.7462 70.0082 58.7146C70.1343 58.6831 70.2289 58.6831 70.3235 58.6516V57.9263H70.2605C70.1659 57.9578 70.0713 57.9893 69.9451 58.0209C69.819 58.0524 69.6928 58.0524 69.5352 58.0524H67.9584C67.7061 58.0524 67.4854 58.1155 67.3277 58.2101C67.17 58.3047 67.0439 58.4308 66.9808 58.62C66.9178 58.7777 66.8862 58.9669 66.8862 59.1877C66.8862 59.3769 66.9178 59.5346 66.9808 59.6922C67.0439 59.8499 67.107 59.976 67.2016 60.0707C67.2962 60.1653 67.4223 60.2599 67.5485 60.3229C67.6746 60.386 67.8007 60.4175 67.9269 60.4175V59.6922C67.8323 59.6922 67.7692 59.6607 67.7061 59.6292C67.6431 59.5976 67.58 59.5346 67.5485 59.4715C67.5169 59.4084 67.4854 59.3138 67.4854 59.2192C67.4854 59.1246 67.5169 59.0615 67.5485 58.9985C67.58 58.9354 67.6431 58.9039 67.7061 58.8723C67.7692 58.8408 67.8638 58.8093 67.99 58.8093H68.3053V59.1246C68.3053 59.3453 68.3368 59.5346 68.3999 59.7238C68.463 59.913 68.5261 60.0391 68.6207 60.1337C68.7153 60.2283 68.8414 60.3229 68.9675 60.386C69.0937 60.4491 69.2514 60.4806 69.409 60.4806C69.6298 60.4806 69.7875 60.4491 69.9451 60.3545C70.1028 60.2599 70.1974 60.1653 70.292 60.0076C70.3551 59.8499 70.4182 59.6922 70.4182 59.503C70.4182 59.3769 70.3866 59.2507 70.3551 59.1561C70.2289 58.9669 70.1659 58.8723 70.1028 58.8093ZM69.7244 59.4715C69.6929 59.5346 69.6298 59.5661 69.5667 59.5976C69.5036 59.6292 69.409 59.6292 69.3144 59.6292C69.2198 59.6292 69.1568 59.6292 69.0621 59.5976C68.9991 59.5661 68.936 59.5346 68.8729 59.4715C68.8099 59.4084 68.7783 59.3453 68.7468 59.2507C68.7153 59.1561 68.7153 59.0615 68.7153 58.9669V58.7146H69.4406C69.4406 58.7146 69.4721 58.7146 69.4721 58.7462C69.5352 58.7777 69.5982 58.8723 69.6613 58.9354C69.7244 59.03 69.7244 59.1246 69.7244 59.2507C69.7559 59.3453 69.7559 59.4084 69.7244 59.4715Z" fill="#3A3F42"/>
<path d="M67.738 55.6873C67.8326 55.6558 67.9587 55.6242 68.1164 55.6242H70.2923V54.8989H68.1164C67.8956 54.8989 67.7064 54.9305 67.5172 54.962C67.328 54.9935 67.2334 55.0566 67.1388 55.1512C67.0442 55.2143 66.9811 55.3089 66.918 55.435C66.8865 55.5612 66.855 55.6558 66.855 55.8134C66.855 55.9711 66.8865 56.1288 66.9811 56.2865C67.0442 56.4126 67.1388 56.5072 67.2649 56.6018L66.918 56.6334V57.3271H70.2923V56.6018H67.8641C67.8326 56.6018 67.801 56.5703 67.7695 56.5703C67.6749 56.5072 67.6118 56.4441 67.5488 56.3811C67.4857 56.318 67.4541 56.2234 67.4541 56.1288C67.4541 56.0342 67.4857 55.9396 67.5172 55.8765C67.5803 55.7504 67.6749 55.7188 67.738 55.6873Z" fill="#3A3F42"/>
<path d="M66.981 52.7545C66.9179 52.8806 66.8548 53.0068 66.8548 53.196C66.8548 53.3537 66.8864 53.5113 66.9494 53.669C67.0125 53.7951 67.1071 53.9213 67.2332 54.0159C67.3594 54.1105 67.5486 54.1736 67.7378 54.2366C67.927 54.2997 68.1793 54.2997 68.4631 54.2997H68.7154C68.9677 54.2997 69.22 54.2682 69.4092 54.2366C69.5984 54.1736 69.7876 54.1105 69.9137 54.0159C70.0399 53.9213 70.1345 53.7951 70.2291 53.669C70.2921 53.5429 70.3237 53.3852 70.3237 53.196C70.3237 53.0383 70.2921 52.8806 70.1975 52.7545C70.1345 52.6283 70.0083 52.5337 69.8822 52.4391L70.2291 52.4076V51.7454H65.4673V52.4707H67.2017C67.1386 52.5653 67.044 52.6599 66.981 52.7545ZM69.693 53.259C69.6614 53.3221 69.5984 53.3852 69.5038 53.4483C69.4092 53.5113 69.3146 53.5113 69.1884 53.5429C69.0623 53.5744 68.9046 53.5744 68.7469 53.5744H68.4946C68.337 53.5744 68.1793 53.5744 68.0532 53.5429C67.927 53.5113 67.8324 53.4798 67.7378 53.4483C67.6432 53.4167 67.5801 53.3537 67.5486 53.259C67.5171 53.196 67.4855 53.1014 67.4855 52.9752C67.4855 52.8806 67.5171 52.786 67.5486 52.7229C67.5801 52.6599 67.6432 52.5968 67.7063 52.5337C67.7378 52.5022 67.7693 52.5022 67.8324 52.4707H69.4092C69.5038 52.5022 69.5984 52.5653 69.6299 52.6599C69.693 52.7545 69.7245 52.8491 69.7245 52.9752C69.7561 53.1014 69.7245 53.196 69.693 53.259Z" fill="#3A3F42"/>
<path d="M86.5324 42.5056V39.7305H79.7524H76.5674H69.8188V42.5056H76.5674V65.4315H79.7524V42.5056H86.5324Z" fill="#3A3F42"/>
<path d="M97.9475 48.2764C97.4114 47.5196 96.7177 46.9204 95.8662 46.542C95.0148 46.1636 94.0056 45.9744 92.8073 45.9744C91.9243 45.9744 91.0413 46.132 90.1899 46.4474C89.3384 46.7627 88.5816 47.2988 87.9194 47.9926C87.2571 48.7179 86.721 49.6324 86.3111 50.7992C85.9011 51.966 85.7119 53.3851 85.7119 55.0565V57.2008C85.7119 58.6515 85.8696 59.9129 86.2165 60.985C86.5634 62.0572 87.0364 62.9402 87.6986 63.634C88.3609 64.3278 89.1177 64.8639 90.0322 65.2107C90.9467 65.5576 91.9874 65.7153 93.1227 65.7153C94.2264 65.7153 95.1724 65.5892 95.9608 65.3054C96.7492 65.0215 97.4114 64.6747 97.9791 64.2332C98.5467 63.7917 98.9566 63.3186 99.3035 62.8456L97.6637 60.8904C97.1591 61.5211 96.56 62.0572 95.8662 62.4672C95.1724 62.8772 94.321 63.0664 93.2803 63.0664C92.555 63.0664 91.9243 62.9402 91.3567 62.7195C90.7891 62.4987 90.316 62.1518 89.9376 61.6473C89.5592 61.1743 89.2754 60.5751 89.0862 59.8183C88.897 59.0929 88.8024 58.21 88.8024 57.1693V56.6963H99.4612V54.8673C99.4612 53.4166 99.3351 52.1237 99.0828 50.9884C98.8936 49.9793 98.4836 49.0333 97.9475 48.2764ZM96.4023 54.1104H88.897C88.9285 53.259 89.0231 52.5021 89.1808 51.903C89.37 51.0515 89.6538 50.4208 90.0007 49.9478C90.3476 49.4748 90.7575 49.1279 91.2621 48.9387C91.7351 48.7494 92.2712 48.6548 92.8704 48.6548C93.7849 48.6548 94.4787 48.8756 94.9832 49.2855C95.4878 49.727 95.8347 50.2947 96.0554 51.0515C96.2762 51.8083 96.4023 52.6913 96.4654 53.6689V54.1104H96.4023Z" fill="#3A3F42"/>
<path d="M114.126 63.2871C114.031 62.5618 113.968 61.8996 113.968 61.2689V51.8399C113.968 50.4208 113.716 49.2855 113.18 48.4026C112.675 47.5511 111.95 46.9204 111.035 46.542C110.121 46.1636 109.08 45.9744 107.913 45.9744C106.936 45.9744 106.021 46.132 105.233 46.4474C104.444 46.7627 103.751 47.2042 103.183 47.7403C102.615 48.2764 102.174 48.9071 101.89 49.5694C101.575 50.2316 101.449 50.9254 101.449 51.5876H104.571C104.571 51.0515 104.697 50.5469 104.949 50.1055C105.201 49.664 105.58 49.2855 106.053 49.0333C106.526 48.7494 107.093 48.6233 107.756 48.6233C108.449 48.6233 109.017 48.7179 109.459 48.9387C109.9 49.1594 110.247 49.4748 110.468 49.9478C110.688 50.4208 110.815 51.02 110.815 51.7768V53.8266H108.67C107.409 53.8266 106.337 53.9843 105.391 54.2996C104.444 54.615 103.656 55.0565 103.025 55.6241C102.395 56.1917 101.922 56.854 101.606 57.6423C101.291 58.4307 101.133 59.2822 101.133 60.1967C101.133 61.395 101.354 62.4357 101.827 63.2556C102.3 64.0755 102.931 64.7062 103.751 65.1161C104.571 65.5261 105.548 65.7468 106.652 65.7468C107.409 65.7468 108.071 65.5892 108.702 65.2738C109.301 64.9585 109.837 64.5485 110.278 64.0755C110.499 63.8232 110.72 63.5709 110.878 63.2871C110.909 63.4763 110.909 63.6655 110.941 63.8547C111.035 64.4854 111.13 64.99 111.288 65.3684H114.504V65.0846C114.378 64.6116 114.22 64.0124 114.126 63.2871ZM109.238 62.3726C108.639 62.751 107.945 62.9087 107.156 62.9087C106.494 62.9087 105.958 62.8141 105.548 62.5933C105.138 62.4041 104.791 62.0572 104.602 61.6158C104.381 61.1743 104.287 60.5436 104.287 59.7867C104.287 59.1875 104.413 58.683 104.634 58.21C104.854 57.7369 105.201 57.3585 105.643 57.0432C106.084 56.7278 106.589 56.5071 107.22 56.3179C107.819 56.1602 108.512 56.0656 109.238 56.0656H110.878V60.6382C110.815 60.7643 110.751 60.8589 110.688 60.985C110.31 61.5842 109.837 62.0257 109.238 62.3726Z" fill="#3A3F42"/>
</svg>
