<svg width="291" height="187" viewBox="0 0 291 187" fill="none" xmlns="http://www.w3.org/2000/svg">
<path d="M147.11 66.3737V2.01867H160.654H162.417C171.714 2.01867 179.728 6.02583 179.728 19.6502C179.728 27.5042 177.965 33.3547 173.317 36.1597C174.038 36.4001 174.759 36.6406 175.481 36.881C175.881 37.0413 176.362 37.2016 176.843 37.3619C184.377 35.2781 192.07 30.0688 192.07 19.6502C192.07 4.90383 181.652 0.976807 168.107 0.976807H160.654H147.11H135.569H122.025H114.572C101.028 0.976807 90.6089 4.82368 90.6089 19.6502C90.6089 29.9887 98.3828 35.198 105.836 37.3619C106.317 37.2016 106.718 37.0413 107.199 36.881C107.92 36.6406 108.641 36.4001 109.362 36.1597C104.794 33.3547 102.951 27.4241 102.951 19.6502C102.951 6.02583 110.965 2.01867 120.262 2.01867H122.025H135.569V66.4539C135.569 72.3845 134.287 76.7923 129.398 76.7923V77.7541H153.201V76.7923C148.392 76.7923 147.11 72.3845 147.11 66.3737Z" fill="#3A3F42"/>
<path d="M194.635 59.4813C194.635 59.0005 194.635 58.4395 194.555 57.9586C193.593 45.4563 183.655 41.8498 172.676 38.2434C171.874 38.003 171.153 37.7625 170.352 37.5221C169.55 37.2817 168.829 37.0412 168.028 36.7207L163.139 34.8774C157.128 32.5532 151.758 28.9468 149.194 23.2566V25.5807C149.675 26.3822 150.236 27.1035 150.797 27.8248C163.059 42.491 182.854 39.4455 183.014 57.7983V57.9586C183.014 58.4395 183.014 58.8402 183.014 59.3211C183.014 59.8821 182.934 60.5232 182.934 61.0041C182.854 61.4849 182.854 62.0459 182.774 62.5268C182.694 62.8474 182.694 63.2481 182.614 63.5687C182.533 63.8892 182.453 64.2098 182.453 64.5304C180.85 71.6631 176.443 74.8689 170.913 76.1512C169.39 76.4717 167.787 76.632 166.184 76.7122H165.944C159.051 76.7122 152.72 73.4263 149.274 67.0148V68.9383C152.64 74.5483 159.132 77.8342 165.944 77.8342H167.707C174.599 77.8342 180.85 76.9526 185.579 74.7887C185.739 74.7086 185.899 74.6284 185.98 74.6284C186.14 74.5483 186.22 74.4681 186.38 74.388C186.541 74.3079 186.781 74.2277 186.941 74.0674C187.102 73.9873 187.342 73.827 187.502 73.7468C192.471 70.8617 194.715 66.1332 194.715 60.1225C194.635 59.9622 194.635 59.7218 194.635 59.4813Z" fill="#3A3F42"/>
<path d="M133.406 68.9383V67.0148C130.04 73.4263 123.628 76.7122 116.736 76.7122H116.495C114.892 76.7122 113.37 76.5519 111.767 76.1512C106.237 74.8689 101.829 71.583 100.226 64.5304C100.146 64.2098 100.066 63.8892 100.066 63.5687C99.9858 63.2481 99.9858 62.9275 99.9056 62.5268C99.8255 62.0459 99.7453 61.5651 99.7453 61.0041C99.6652 60.4431 99.6652 59.8821 99.6652 59.3211C99.6652 58.9203 99.6652 58.4395 99.6652 57.9586V57.7983C99.8255 39.5257 119.621 42.491 131.883 27.8248C132.444 27.1035 133.005 26.3822 133.486 25.5807V23.2566C130.921 28.9468 125.551 32.5532 119.541 34.8774L114.652 36.7207C113.851 36.9611 113.129 37.2015 112.328 37.5221C111.526 37.7625 110.805 38.003 110.004 38.2434C99.0241 41.8498 89.0863 45.4563 88.1246 57.9586C88.0444 58.4395 88.0444 59.0005 88.0444 59.4813C88.0444 59.7218 88.0444 59.8821 88.0444 60.1225C88.0444 66.1332 90.2884 70.8617 95.2573 73.7468C95.4176 73.827 95.5779 73.9873 95.8183 74.0674C95.9786 74.1476 96.219 74.2277 96.3793 74.388C96.5396 74.4681 96.6198 74.5483 96.7801 74.6284C96.9403 74.7086 97.0205 74.7887 97.1808 74.7887C101.989 76.9526 108.16 77.8342 115.053 77.8342H116.816C123.628 77.8342 130.12 74.5483 133.406 68.9383Z" fill="#3A3F42"/>
<path d="M32.2176 134.887C31.0154 133.925 29.653 133.204 28.2104 132.723C28.6913 132.483 29.2523 132.162 29.7332 131.842C31.897 130.479 33.58 128.716 34.7822 126.552C35.9843 124.388 36.6255 121.984 36.6255 119.259C36.6255 116.214 36.2248 113.569 35.4233 111.405C34.6219 109.241 33.4197 107.398 31.897 106.036C30.3743 104.593 28.4509 103.551 26.287 102.91C24.043 102.269 21.5585 101.868 18.7535 101.868H0V167.185H3.12559H8.25476H19.4748C23.1614 167.185 26.4473 166.464 29.1721 165.021C31.897 163.578 34.0609 161.415 35.5836 158.61C37.1063 155.805 37.8276 152.358 37.8276 148.271C37.8276 145.466 37.3468 142.902 36.385 140.577C35.5035 138.333 34.0609 136.41 32.2176 134.887ZM18.6734 109.001C20.8372 109.001 22.6805 109.321 24.043 110.043C25.4856 110.764 26.5274 111.886 27.2487 113.329C27.97 114.851 28.2906 116.775 28.2906 119.179C28.2906 121.343 27.8899 123.266 27.0884 124.789C26.287 126.392 25.165 127.594 23.7224 128.396C22.2798 129.197 20.677 129.678 18.7535 129.678H9.21648H8.25476V108.921H18.6734V109.001ZM28.3707 154.683C27.5693 156.446 26.4473 157.808 24.9246 158.77C23.4018 159.732 21.6387 160.212 19.4748 160.212H8.25476V136.73H9.13633H19.7954C22.1195 136.73 24.043 137.211 25.4856 138.173C26.9281 139.135 27.97 140.497 28.6111 142.26C29.2523 144.024 29.5729 146.107 29.5729 148.512C29.5729 150.916 29.1721 152.919 28.3707 154.683Z" fill="#3A3F42"/>
<path d="M76.2165 156.686V132.723C76.2165 129.117 75.5753 126.231 74.2129 123.987C72.9306 121.824 71.0873 120.221 68.7631 119.259C66.439 118.297 63.7942 117.816 60.8289 117.816C58.3445 117.816 56.0204 118.217 54.0168 119.019C52.0132 119.82 50.25 120.942 48.8075 122.304C47.3649 123.667 46.2429 125.27 45.5216 126.953C44.7201 128.636 44.3996 130.399 44.3996 132.082H52.3338C52.3338 130.719 52.6543 129.437 53.2955 128.315C53.9366 127.193 54.8983 126.231 56.1005 125.59C57.3026 124.869 58.7452 124.548 60.4282 124.548C62.1914 124.548 63.634 124.789 64.756 125.35C65.878 125.911 66.7595 126.712 67.3206 127.914C67.8816 129.117 68.2021 130.639 68.2021 132.563V137.772H62.7524C59.5467 137.772 56.8218 138.173 54.4175 138.974C52.0132 139.776 50.0096 140.898 48.4067 142.34C46.8039 143.783 45.6017 145.466 44.8003 147.469C43.9989 149.473 43.5981 151.637 43.5981 153.961C43.5981 157.006 44.1591 159.651 45.3613 161.735C46.5634 163.819 48.1663 165.422 50.25 166.463C52.3338 167.505 54.8182 168.066 57.6232 168.066C59.5467 168.066 61.2297 167.666 62.8325 166.864C64.3553 166.063 65.7177 165.021 66.8397 163.819C67.4007 163.177 67.9617 162.536 68.3624 161.815C68.4426 162.296 68.4426 162.777 68.5227 163.258C68.7631 164.861 69.0036 166.143 69.4043 167.105H77.7392V166.383C77.2583 165.101 76.8576 163.498 76.6172 161.655C76.3767 159.972 76.2165 158.289 76.2165 156.686ZM64.195 159.491C62.6722 160.453 60.9091 160.853 58.9055 160.853C57.2225 160.853 55.8601 160.613 54.8182 160.052C53.7763 159.571 52.8948 158.689 52.4139 157.567C51.8529 156.445 51.6125 154.843 51.6125 152.919C51.6125 151.396 51.933 150.114 52.494 148.912C53.055 147.71 53.9366 146.748 55.0586 145.947C56.1806 145.145 57.4629 144.584 59.0658 144.103C60.5885 143.703 62.3517 143.462 64.195 143.462H68.3624V155.083C68.2021 155.404 68.0418 155.644 67.8815 155.965C66.9198 157.487 65.7177 158.609 64.195 159.491Z" fill="#3A3F42"/>
<path d="M109.796 124.148C109.716 123.987 109.636 123.907 109.556 123.747C108.354 121.824 106.831 120.381 104.988 119.339C103.144 118.297 100.981 117.816 98.4961 117.816C96.0117 117.816 93.7677 118.297 91.7641 119.179C89.7605 120.06 88.0775 121.423 86.6349 123.346C85.1924 125.19 84.1505 127.594 83.3491 130.479C82.6278 133.364 82.2271 136.81 82.2271 140.818V145.386C82.2271 149.233 82.6278 152.599 83.3491 155.404C84.0703 158.209 85.1924 160.613 86.6349 162.536C88.0775 164.46 89.7605 165.822 91.7641 166.784C93.7677 167.746 95.9316 168.227 98.416 168.227C100.9 168.227 103.064 167.746 104.908 166.704C106.671 165.742 108.193 164.299 109.396 162.456V168.146C109.396 170.951 108.995 173.195 108.113 174.878C107.312 176.561 106.11 177.764 104.587 178.565C103.064 179.286 101.301 179.687 99.2174 179.687C97.4543 179.687 95.6911 179.286 93.7677 178.565C91.8442 177.844 90.0811 176.561 88.3179 174.878L85.0321 180.408C86.2342 181.771 87.7569 182.893 89.6002 183.854C91.4435 184.736 93.2868 185.457 95.1301 185.858C96.9734 186.339 98.4961 186.499 99.7784 186.499C103.225 186.499 106.27 185.858 108.915 184.496C111.559 183.133 113.643 181.13 115.086 178.325C116.528 175.52 117.33 171.993 117.33 167.746V118.778H110.197L109.796 124.148ZM109.315 155.163C108.434 156.926 107.312 158.369 105.949 159.411C104.507 160.453 102.744 161.014 100.5 161.014C98.6564 161.014 97.1337 160.693 95.7713 160.052C94.489 159.411 93.4471 158.449 92.5655 157.167C91.7641 155.884 91.123 154.201 90.7222 152.198C90.3215 150.194 90.1612 147.87 90.1612 145.145V140.577C90.1612 137.852 90.3215 135.528 90.7222 133.524C91.123 131.521 91.7641 129.838 92.5655 128.556C93.367 127.273 94.489 126.231 95.7713 125.59C97.0536 124.949 98.6564 124.629 100.5 124.629C102.103 124.629 103.545 124.949 104.747 125.59C105.949 126.231 106.991 127.113 107.873 128.235C108.434 128.956 108.915 129.758 109.315 130.639V154.762C109.396 155.003 109.396 155.083 109.315 155.163Z" fill="#3A3F42"/>
<path d="M154.436 147.63C153.234 145.867 151.551 144.344 149.307 142.981C147.063 141.699 144.258 140.337 140.972 139.054C139.289 138.333 137.847 137.612 136.805 137.051C135.683 136.49 134.882 135.929 134.24 135.368C133.599 134.807 133.199 134.246 132.878 133.605C132.638 132.964 132.477 132.162 132.477 131.281C132.477 130.078 132.718 128.956 133.199 127.995C133.679 127.033 134.481 126.151 135.603 125.51C136.725 124.869 138.167 124.549 139.931 124.549C141.614 124.549 143.056 124.949 144.178 125.671C145.38 126.472 146.262 127.434 146.823 128.636C147.384 129.838 147.704 131.12 147.704 132.483H155.639C155.639 129.678 154.997 127.193 153.795 124.949C152.593 122.705 150.75 120.942 148.426 119.66C146.102 118.377 143.297 117.736 139.931 117.736C137.606 117.736 135.523 118.057 133.599 118.778C131.676 119.499 130.073 120.461 128.791 121.743C127.428 123.026 126.386 124.468 125.665 126.151C124.944 127.834 124.543 129.598 124.543 131.521C124.543 133.444 124.864 135.127 125.505 136.57C126.146 138.013 127.108 139.215 128.31 140.337C129.512 141.379 131.035 142.42 132.798 143.302C134.561 144.184 136.565 145.145 138.809 146.027C141.133 146.989 142.976 147.95 144.338 148.832C145.701 149.713 146.663 150.595 147.304 151.557C147.865 152.519 148.185 153.56 148.185 154.763C148.185 156.045 147.865 157.247 147.304 158.209C146.663 159.17 145.781 159.972 144.579 160.453C143.377 161.014 141.934 161.254 140.171 161.254C138.809 161.254 137.446 161.014 136.164 160.533C134.801 160.052 133.679 159.17 132.718 157.968C131.756 156.766 131.275 154.923 131.195 152.679H123.261C123.261 155.404 123.902 157.888 125.184 160.212C126.466 162.536 128.39 164.46 130.954 165.902C133.519 167.345 136.565 168.066 140.251 168.066C142.655 168.066 144.899 167.746 146.823 167.105C148.746 166.463 150.429 165.502 151.872 164.3C153.314 163.097 154.356 161.575 155.158 159.892C155.959 158.209 156.28 156.285 156.28 154.121C156.119 151.557 155.558 149.393 154.436 147.63Z" fill="#3A3F42"/>
<path d="M178.158 150.435C178.078 150.355 177.998 150.274 177.918 150.194C178.239 150.114 178.479 150.114 178.719 150.034V148.191H178.559C178.319 148.271 178.078 148.351 177.758 148.431C177.437 148.511 177.117 148.511 176.716 148.511H172.709C172.068 148.511 171.507 148.672 171.106 148.912C170.705 149.152 170.385 149.473 170.224 149.954C170.064 150.355 169.984 150.835 169.984 151.396C169.984 151.877 170.064 152.278 170.224 152.679C170.385 153.079 170.545 153.4 170.785 153.64C171.026 153.881 171.346 154.121 171.667 154.282C171.987 154.442 172.308 154.522 172.629 154.522V152.679C172.388 152.679 172.228 152.599 172.068 152.518C171.907 152.438 171.747 152.278 171.667 152.118C171.587 151.957 171.507 151.717 171.507 151.477C171.507 151.236 171.587 151.076 171.667 150.916C171.747 150.755 171.907 150.675 172.068 150.595C172.228 150.515 172.468 150.435 172.789 150.435H173.59V151.236C173.59 151.797 173.67 152.278 173.831 152.759C173.991 153.24 174.151 153.56 174.392 153.801C174.632 154.041 174.953 154.282 175.273 154.442C175.594 154.602 175.995 154.682 176.395 154.682C176.956 154.682 177.357 154.602 177.758 154.362C178.158 154.121 178.399 153.881 178.639 153.48C178.8 153.079 178.96 152.679 178.96 152.198C178.96 151.877 178.88 151.557 178.8 151.316C178.479 150.835 178.319 150.595 178.158 150.435ZM177.197 152.118C177.117 152.278 176.956 152.358 176.796 152.438C176.636 152.518 176.395 152.518 176.155 152.518C175.914 152.518 175.754 152.518 175.514 152.438C175.353 152.358 175.193 152.278 175.033 152.118C174.873 151.957 174.792 151.797 174.712 151.557C174.632 151.316 174.632 151.076 174.632 150.835V150.194H176.475C176.475 150.194 176.556 150.194 176.556 150.274C176.716 150.355 176.876 150.595 177.036 150.755C177.197 150.996 177.197 151.236 177.197 151.557C177.277 151.797 177.277 151.957 177.197 152.118Z" fill="#3A3F42"/>
<path d="M172.148 142.501C172.388 142.421 172.709 142.34 173.11 142.34H178.639V140.497H173.11C172.549 140.497 172.068 140.577 171.587 140.657C171.106 140.738 170.866 140.898 170.625 141.138C170.385 141.299 170.224 141.539 170.064 141.86C169.984 142.18 169.904 142.421 169.904 142.821C169.904 143.222 169.984 143.623 170.224 144.023C170.385 144.344 170.625 144.584 170.946 144.825L170.064 144.905V146.668H178.639V144.825H172.468C172.388 144.825 172.308 144.745 172.228 144.745C171.988 144.584 171.827 144.424 171.667 144.264C171.507 144.104 171.427 143.863 171.427 143.623C171.427 143.382 171.507 143.142 171.587 142.982C171.747 142.661 171.988 142.581 172.148 142.501Z" fill="#3A3F42"/>
<path d="M170.224 135.047C170.064 135.368 169.904 135.688 169.904 136.169C169.904 136.57 169.984 136.971 170.144 137.371C170.304 137.692 170.545 138.013 170.865 138.253C171.186 138.493 171.667 138.654 172.148 138.814C172.629 138.974 173.27 138.974 173.991 138.974H174.632C175.273 138.974 175.914 138.894 176.395 138.814C176.876 138.654 177.357 138.493 177.678 138.253C177.998 138.013 178.239 137.692 178.479 137.371C178.639 137.051 178.719 136.65 178.719 136.169C178.719 135.769 178.639 135.368 178.399 135.047C178.239 134.727 177.918 134.486 177.597 134.246L178.479 134.166V132.483H166.377V134.326H170.785C170.625 134.566 170.385 134.807 170.224 135.047ZM177.117 136.33C177.036 136.49 176.876 136.65 176.636 136.81C176.395 136.971 176.155 136.971 175.834 137.051C175.514 137.131 175.113 137.131 174.712 137.131H174.071C173.67 137.131 173.27 137.131 172.949 137.051C172.629 136.971 172.388 136.891 172.148 136.81C171.907 136.73 171.747 136.57 171.667 136.33C171.587 136.169 171.507 135.929 171.507 135.608C171.507 135.368 171.587 135.127 171.667 134.967C171.747 134.807 171.907 134.647 172.068 134.486C172.148 134.406 172.228 134.406 172.388 134.326H176.395C176.636 134.406 176.876 134.566 176.956 134.807C177.117 135.047 177.197 135.288 177.197 135.608C177.277 135.929 177.197 136.169 177.117 136.33Z" fill="#3A3F42"/>
<path d="M219.913 109.001V101.948H202.682H194.588H177.437V109.001H194.588V167.265H202.682V109.001H219.913Z" fill="#3A3F42"/>
<path d="M248.925 123.667C247.563 121.743 245.8 120.221 243.636 119.259C241.472 118.297 238.907 117.816 235.862 117.816C233.618 117.816 231.374 118.217 229.21 119.019C227.046 119.82 225.123 121.182 223.44 122.946C221.757 124.789 220.394 127.113 219.352 130.078C218.31 133.044 217.83 136.65 217.83 140.898V146.347C217.83 150.034 218.23 153.24 219.112 155.965C219.993 158.689 221.196 160.933 222.879 162.697C224.562 164.46 226.485 165.822 228.809 166.704C231.133 167.585 233.778 167.986 236.663 167.986C239.468 167.986 241.873 167.666 243.876 166.944C245.88 166.223 247.563 165.341 249.005 164.219C250.448 163.097 251.49 161.895 252.371 160.693L248.204 155.724C246.922 157.327 245.399 158.689 243.636 159.731C241.873 160.773 239.709 161.254 237.064 161.254C235.221 161.254 233.618 160.933 232.175 160.372C230.733 159.811 229.531 158.93 228.569 157.648C227.607 156.445 226.886 154.923 226.405 152.999C225.924 151.156 225.684 148.912 225.684 146.267V145.065H252.772V140.417C252.772 136.73 252.451 133.444 251.81 130.559C251.329 127.995 250.288 125.59 248.925 123.667ZM244.998 138.493H225.924C226.004 136.329 226.245 134.406 226.645 132.883C227.126 130.719 227.848 129.117 228.729 127.914C229.611 126.712 230.653 125.831 231.935 125.35C233.137 124.869 234.499 124.629 236.022 124.629C238.346 124.629 240.109 125.19 241.392 126.231C242.674 127.353 243.556 128.796 244.117 130.719C244.678 132.643 244.998 134.887 245.158 137.371V138.493H244.998Z" fill="#3A3F42"/>
<path d="M290.039 161.815C289.798 159.972 289.638 158.289 289.638 156.686V132.723C289.638 129.117 288.997 126.231 287.634 123.987C286.352 121.824 284.509 120.221 282.185 119.259C279.86 118.297 277.216 117.816 274.25 117.816C271.766 117.816 269.442 118.217 267.438 119.019C265.435 119.82 263.671 120.942 262.229 122.304C260.786 123.667 259.664 125.27 258.943 126.953C258.142 128.636 257.821 130.399 257.821 132.082H265.755C265.755 130.719 266.076 129.437 266.717 128.315C267.358 127.193 268.32 126.231 269.522 125.59C270.724 124.869 272.167 124.548 273.85 124.548C275.613 124.548 277.055 124.789 278.177 125.35C279.299 125.911 280.181 126.712 280.742 127.914C281.303 129.117 281.623 130.639 281.623 132.563V137.772H276.174C272.968 137.772 270.243 138.173 267.839 138.974C265.435 139.776 263.431 140.898 261.828 142.34C260.225 143.783 259.023 145.466 258.222 147.469C257.42 149.473 257.02 151.637 257.02 153.961C257.02 157.006 257.581 159.651 258.783 161.735C259.985 163.819 261.588 165.422 263.671 166.463C265.755 167.505 268.24 168.066 271.045 168.066C272.968 168.066 274.651 167.666 276.254 166.864C277.777 166.063 279.139 165.021 280.261 163.819C280.822 163.177 281.383 162.536 281.784 161.815C281.864 162.296 281.864 162.777 281.944 163.258C282.184 164.861 282.425 166.143 282.826 167.105H291V166.383C290.68 165.181 290.279 163.658 290.039 161.815ZM277.616 159.491C276.094 160.453 274.33 160.853 272.327 160.853C270.644 160.853 269.281 160.613 268.24 160.052C267.198 159.571 266.316 158.689 265.835 157.567C265.274 156.445 265.034 154.843 265.034 152.919C265.034 151.396 265.354 150.114 265.915 148.912C266.476 147.71 267.358 146.748 268.48 145.947C269.602 145.145 270.884 144.584 272.487 144.103C274.01 143.703 275.773 143.462 277.616 143.462H281.784V155.083C281.624 155.404 281.463 155.644 281.303 155.965C280.341 157.487 279.139 158.609 277.616 159.491Z" fill="#3A3F42"/>
</svg>
