<svg width="100" height="66" viewBox="0 0 100 66" fill="none" xmlns="http://www.w3.org/2000/svg">
<path d="M7.13041 65.9949C7.08804 65.99 6.94443 65.9751 6.81126 65.9618C5.59569 65.8397 4.29808 65.3426 3.27805 64.6082C1.74872 63.5072 0.671015 61.904 0.221495 60.0612C-0.0173851 59.0821 -0.0648618 57.985 0.0879131 56.9757C0.497551 54.2698 2.28566 51.952 4.76614 50.9117C5.38518 50.6521 5.99954 50.4879 6.72322 50.3887C7.12438 50.3337 8.10136 50.3334 8.50607 50.3882C9.36433 50.5043 10.0918 50.7208 10.8392 51.0824C11.6616 51.4803 12.2307 51.89 12.9196 52.5801C13.5219 53.1834 13.8938 53.6855 14.3249 54.4776L14.4167 54.646L14.0916 54.8865C13.6438 55.2177 12.5935 55.9672 12.2514 56.1995L11.9688 56.3915L11.8525 56.1388C11.7088 55.8264 11.6065 55.6413 11.4408 55.3938C10.7787 54.4051 9.72292 53.6989 8.5721 53.475C7.96316 53.3565 7.21348 53.3697 6.61317 53.5094C5.98279 53.6562 5.29824 53.9854 4.77529 54.3933C4.5645 54.5578 4.17654 54.9425 4.00585 55.1564C3.08482 56.3106 2.74557 57.7809 3.06144 59.2495C3.17081 59.758 3.45389 60.4223 3.74921 60.8635C4.5308 62.0312 5.72883 62.7794 7.08582 62.9471C7.32571 62.9768 7.90358 62.9768 8.14347 62.9471C9.34522 62.7985 10.4556 62.1742 11.2144 61.2203C11.4378 60.9394 11.5936 60.6962 11.7712 60.3509C11.849 60.1996 11.9192 60.0758 11.9271 60.0758C11.9351 60.0758 12.4883 60.4662 13.1566 60.9435L14.3717 61.8111L14.2486 62.044C13.993 62.5273 13.5535 63.1347 13.1441 63.5704C12.4465 64.3126 11.7671 64.8169 10.8832 65.2488C10.1197 65.6217 9.31071 65.8596 8.45102 65.964C8.25828 65.9874 7.26745 66.0106 7.13041 65.9949ZM17.5194 58.0949V50.4902H20.4688V55.9488H28.1725V50.4902H31.1219V65.6995H28.1725V59.0083H20.4688V65.6995H17.5194V58.0949ZM34.1016 64.3514C34.4304 63.6099 35.9472 60.1878 37.4723 56.7467L40.2452 50.4903L42.3142 50.4905L44.3832 50.4907L47.7351 58.0016C49.5787 62.1325 51.106 65.5545 51.1292 65.606L51.1712 65.6995H47.6396L46.9578 64.1919L46.276 62.6843L42.3295 62.6897L38.383 62.6951L37.7088 64.1973L37.0347 65.6995H33.5039L34.1016 64.3514ZM45.0286 59.6159C45.0162 59.5623 42.3367 53.5729 42.3252 53.5731C42.317 53.5732 39.7723 59.5122 39.7316 59.6261C39.7271 59.6387 40.7447 59.6466 42.38 59.6466C44.639 59.6466 45.0346 59.642 45.0286 59.6159ZM53.5506 58.0949V50.4902L55.6251 50.4907L57.6995 50.4912L60.9461 55.051L64.1926 59.6108L64.1982 55.0505L64.2037 50.4902H67.1751V65.6999L65.9828 65.6942L64.7906 65.6885L60.6728 59.9721C58.408 56.8281 56.5476 54.2553 56.5385 54.2549C56.5294 54.2544 56.522 56.8293 56.522 59.9768V65.6995H53.5506V58.0949ZM72.5456 58.0949V50.4902H83.1767V53.5497H75.517V56.5872H82.6044V59.6466H75.517V62.6841H84.2772V65.6995H72.5456V58.0949ZM88.4372 58.0949V50.4902H91.4086V62.6841H99.6846V65.6995H88.4372V58.0949ZM37.5167 46.6221C34.342 46.4753 30.8067 45.5113 27.9566 44.0154C25.7687 42.867 24.0345 41.5819 22.2179 39.7625C20.795 38.3375 19.7453 37.0248 18.8567 35.5595L18.4677 34.918L19.0196 34.6253C20.0949 34.055 24.9968 31.5449 25.0353 31.5449C25.0568 31.5449 25.2593 31.8205 25.4853 32.1574C28.0399 35.965 32.0364 38.4418 36.7131 39.116C37.5307 39.2338 39.9892 39.215 40.8795 39.0841C41.8702 38.9384 43.0585 38.6683 43.8132 38.4171C43.8623 38.4008 43.7685 38.2484 43.5526 37.9939C41.8809 36.0234 40.357 33.3187 39.4997 30.8009C37.9489 26.2463 37.8385 21.3574 39.1827 16.7638C40.0174 13.9113 41.4541 11.1425 43.2734 8.87988C43.5445 8.54278 43.7663 8.24536 43.7663 8.21897C43.7663 8.12919 42.3461 7.75115 41.4152 7.59316C39.9771 7.34909 37.7258 7.31882 36.4261 7.5261C34.2392 7.87488 32.0195 8.69391 30.285 9.79206C28.3521 11.0158 26.7403 12.5885 25.454 14.5057L24.8861 15.3522L24.1631 14.9726C23.7655 14.7639 22.2885 13.9985 20.8809 13.2717C19.4732 12.5449 18.3171 11.9464 18.3118 11.9417C18.2894 11.922 19.1707 10.5203 19.5334 9.99876C20.6348 8.41517 22.5905 6.31792 24.0354 5.17095C27.8137 2.1718 32.014 0.482715 36.7429 0.0608842C37.6201 -0.0173852 39.7952 -0.0180675 40.6414 0.0596296C43.6437 0.335245 46.2172 1.0632 48.8759 2.38874L50.1466 3.02224L50.5723 2.78002C51.2596 2.38887 52.4809 1.8245 53.4085 1.46934C56.0109 0.472899 58.6318 -0.00140554 61.5276 3.12835e-06C63.5498 0.000993601 65.2368 0.199682 67.0681 0.652548C71.2055 1.67564 74.7338 3.63779 77.7738 6.6061C79.4219 8.21533 80.7135 9.8584 81.7563 11.6724L81.9144 11.9473L79.3422 13.2742C77.9275 14.0041 76.4476 14.7703 76.0536 14.9769L75.3371 15.3526L74.7955 14.5357C72.1234 10.5047 67.7524 7.88047 62.9681 7.43469C61.5517 7.30271 59.4485 7.42423 58.1701 7.71193C57.5121 7.86 56.444 8.16517 56.4443 8.20501C56.4445 8.22583 56.6192 8.45714 56.8327 8.71904C59.5744 12.0831 61.2862 16.1838 61.8394 20.7123C61.9714 21.7931 61.989 24.5527 61.8707 25.6227C61.3711 30.1413 59.6625 34.3114 56.9352 37.6684C56.317 38.4295 56.3434 38.3768 56.5417 38.4534C56.6353 38.4896 57.0735 38.6108 57.5154 38.7228C59.7615 39.2919 62.1793 39.3723 64.4495 38.9534C68.5785 38.1914 72.2972 35.7495 74.689 32.2294C74.9114 31.902 75.1123 31.6123 75.1354 31.5854C75.1584 31.5585 75.7098 31.8035 76.3606 32.1297C77.6498 32.7759 81.6879 34.8656 81.7312 34.9089C81.8034 34.9811 80.5164 36.8914 79.7271 37.8838C78.9799 38.8232 77.0213 40.7795 76.0856 41.5211C72.704 44.201 68.909 45.8395 64.729 46.4245C59.9295 47.0963 54.8467 46.1967 50.7111 43.9436L50.1266 43.6252L49.4017 44.0088C45.8098 45.9092 41.6897 46.8151 37.5167 46.6221ZM50.9255 33.4198C52.9271 30.9421 54.176 27.9365 54.4838 24.8566C54.5871 23.8229 54.5257 21.7172 54.3648 20.7759C53.9221 18.1858 52.9749 15.9658 51.4468 13.9371C51.159 13.5551 50.74 13.0444 50.5156 12.8023L50.1076 12.362L49.729 12.7725C49.23 13.3136 48.3984 14.4175 47.9792 15.0952C45.851 18.5366 45.1562 22.7644 46.0574 26.7883C46.6246 29.3205 47.9285 31.8713 49.6858 33.8862L50.0904 34.3502L50.2675 34.1826C50.3649 34.0904 50.661 33.7471 50.9255 33.4198Z" fill="#482626"/>
</svg>
