<svg width="101" height="28" viewBox="0 0 101 28" fill="none" xmlns="http://www.w3.org/2000/svg">
<path d="M0.303767 0.546638H13.305C24.4836 0.546638 28.8579 7.10629 28.8579 14.0506C28.8579 21.1164 23.2483 27.4129 12.576 27.4129H0.324018C0.101256 27.4129 0.0202511 27.2712 0.0202511 27.1497C0.0202511 27.008 0.162009 26.8865 0.36452 26.8865H2.6529C3.36169 26.8865 3.82746 26.4613 3.82746 25.6717V2.32827C3.82746 1.74114 3.54395 1.09328 2.6124 1.09328H0.283516C0.101256 1.09328 0 0.9718 0 0.83008C0 0.708604 0.0405023 0.546638 0.303767 0.546638ZM8.42447 26.1576C8.42447 26.7448 8.68773 26.927 9.0725 26.927H12.5152C21.0004 26.927 24.0786 20.4281 24.0786 13.9089C24.0786 7.38973 20.8182 1.07303 13.6493 1.07303H8.97125C8.48522 1.07303 8.44472 1.47795 8.44472 1.66016L8.42447 26.1576ZM30.1539 0.546638C29.9514 0.546638 29.7692 0.627621 29.7692 0.789588C29.7692 0.951555 29.8704 1.05278 30.0527 1.05278H32.341C32.8676 1.05278 33.3739 1.41721 33.3739 2.4295V25.692C33.3739 26.1779 33.0093 26.9067 32.3613 26.9067H30.0932C29.8299 26.9067 29.8097 27.1092 29.8097 27.1902C29.8097 27.2712 29.7894 27.4129 30.0932 27.4129H41.1098C41.2718 27.4129 41.4946 27.3926 41.4946 27.2307C41.4946 27.0687 41.4541 26.9067 41.1705 26.9067H39.0442C38.7404 26.9067 37.9101 26.7245 37.9101 25.7932V2.18655C37.9101 1.51844 38.3354 1.07303 39.1049 1.07303H41.1908C41.3731 1.07303 41.4743 0.9718 41.4743 0.83008C41.4743 0.688359 41.3731 0.566884 41.13 0.566884H30.1539V0.546638ZM47.3674 13.9899C47.3674 6.55965 50.6886 0.546638 56.9259 0.546638C63.0418 0.546638 66.4845 6.55965 66.4845 13.9899C66.4845 21.4201 63.3455 27.4331 56.9259 27.4331C50.7088 27.4534 47.3674 21.4201 47.3674 13.9899ZM56.9259 28C65.7959 28 71.3852 21.7238 71.3852 14.0101C71.3852 6.29646 65.8567 0 56.9259 0C48.0154 0 42.4666 6.27621 42.4666 13.9899C42.4666 21.7035 48.2382 28 56.9259 28ZM99.7368 27.2509C96.2536 27.6153 94.3298 21.906 92.5679 19.1931C91.2516 17.1887 88.4569 15.1439 85.7028 14.739C90.239 14.4758 95.3221 13.0181 95.3221 7.87563C95.3221 3.70499 92.7502 0.546638 83.3131 0.546638H72.4383C72.2965 0.546638 72.1548 0.627621 72.1548 0.789588C72.1548 0.951555 72.2965 1.05278 72.4383 1.05278H74.9292C75.4557 1.05278 75.962 1.41721 75.962 2.4295V25.692C75.962 26.1779 75.5975 26.9067 74.9494 26.9067H72.499C72.2965 26.9067 72.2155 27.0687 72.2155 27.1497C72.2155 27.2307 72.2965 27.4129 72.499 27.4129H84.0422C84.2042 27.4129 84.3459 27.3319 84.3459 27.1699C84.3459 27.008 84.2447 26.9067 84.0219 26.9067H81.693C81.3893 26.9067 80.559 26.7043 80.559 25.7932V14.7997H81.7538C87.4646 14.7997 87.8899 20.9949 90.7251 24.538C93.1552 27.5748 96.3346 27.9595 98.137 27.9595C98.9065 27.9595 99.433 27.9393 99.9191 27.8178C100.223 27.7166 100.284 27.1902 99.7368 27.2509ZM81.7133 1.05278H83.3941C86.2698 1.05278 90.9276 2.18655 90.9276 7.61244C90.9276 12.5929 86.7963 14.2733 82.9689 14.2733H80.5185V2.18655C80.5185 1.49819 80.9438 1.05278 81.7133 1.05278Z" fill="#482626"/>
</svg>
