<svg width="130" height="25" viewBox="0 0 130 25" fill="none" xmlns="http://www.w3.org/2000/svg">
<path d="M49.2807 19.803C49.5206 19.803 49.7338 19.8297 49.9204 19.9096C50.107 19.9896 50.2669 20.0695 50.4001 20.2028C50.5334 20.3361 50.64 20.496 50.6933 20.6825C50.7733 20.8691 50.7999 21.0823 50.7999 21.2955C50.7999 21.5087 50.7733 21.7219 50.6933 21.9085C50.6134 22.0951 50.5068 22.255 50.3735 22.3616C50.2402 22.4948 50.0537 22.5748 49.8671 22.6548C49.6539 22.7347 49.4407 22.7614 49.1741 22.7614H45.9492V24.8135H45.4961V19.803H49.2807ZM49.2541 22.3083C49.5739 22.3083 49.8404 22.2283 50.027 22.0418C50.2136 21.8552 50.2935 21.5887 50.2935 21.2689C50.2935 20.5759 49.8938 20.2294 49.0675 20.2294H45.9225V22.3083H49.2541ZM59.4087 24.8135L58.7157 23.5076H55.1709L54.478 24.8135H53.9449L56.6102 19.803H57.2765L59.9151 24.8135H59.4087ZM56.9833 20.2294H56.93L55.4108 23.0812H58.4758L56.9833 20.2294ZM68.5771 24.8135L67.0046 22.7614H64.2594V24.8135H63.8063V19.803H67.591C67.8309 19.803 68.0441 19.8297 68.2306 19.9096C68.4172 19.9896 68.5771 20.0695 68.7104 20.2028C68.8436 20.3361 68.9503 20.496 69.0036 20.6825C69.0835 20.8691 69.1102 21.0823 69.1102 21.2955C69.1102 21.7219 68.9769 22.0684 68.7104 22.3349C68.4439 22.5748 68.0707 22.7347 67.591 22.7614L69.1102 24.8135H68.5771ZM67.5643 22.3083C67.8842 22.3083 68.1507 22.2283 68.3372 22.0418C68.5238 21.8552 68.6038 21.5887 68.6038 21.2689C68.6038 20.5759 68.204 20.2294 67.4044 20.2294H64.2594V22.3083H67.5643ZM73.5611 24.8135V19.803H74.0142V24.8135H73.5611ZM83.0761 20.6026C82.7562 20.416 82.4097 20.3094 82.0899 20.2294C81.7434 20.1495 81.3969 20.1228 80.9972 20.1228C80.3575 20.1228 79.8778 20.2028 79.5579 20.3894C79.2381 20.5493 79.0782 20.7891 79.0782 21.109C79.0782 21.2689 79.1315 21.4021 79.2115 21.5087C79.2914 21.6153 79.4247 21.6953 79.5846 21.7486C79.7445 21.8019 79.9311 21.8552 80.1709 21.8819C80.4108 21.9085 80.6773 21.9352 80.9972 21.9618C81.4236 21.9885 81.8234 22.0151 82.1699 22.0418C82.5164 22.0684 82.8095 22.1484 83.0494 22.255C83.5291 22.4682 83.7957 22.8413 83.7957 23.3743C83.7957 23.8807 83.5825 24.2805 83.1294 24.5737C82.7029 24.8668 82.0366 25.0001 81.2104 25.0001C80.6507 25.0001 80.1176 24.9468 79.6645 24.8135C79.2114 24.6803 78.8117 24.4937 78.4385 24.2539L78.7051 23.8807C79.0782 24.1206 79.4513 24.3072 79.8511 24.4138C80.2509 24.5204 80.6507 24.5737 81.1038 24.5737C81.7967 24.5737 82.3298 24.4671 82.7029 24.2539C83.0761 24.0406 83.2626 23.7741 83.2626 23.401C83.2626 23.2144 83.2093 23.0812 83.1294 22.9479C83.0494 22.8413 82.9161 22.7347 82.7562 22.6548C82.5963 22.5748 82.3831 22.5215 82.1166 22.4948C81.85 22.4682 81.5569 22.4415 81.2104 22.4149C80.7839 22.3882 80.4108 22.3616 80.091 22.3616C79.7712 22.3349 79.5046 22.2816 79.2648 22.2017C79.0249 22.1217 78.8383 21.9885 78.7051 21.8285C78.5718 21.6686 78.5185 21.4554 78.5185 21.2156C78.5185 20.7625 78.7317 20.416 79.1315 20.1495C79.5579 19.883 80.1443 19.7764 80.9439 19.7764C81.4769 19.7764 81.93 19.8297 82.3298 19.9096C82.7296 19.9896 83.0761 20.1495 83.3692 20.3361L83.0761 20.6026Z" fill="#482626"/>
<path fill-rule="evenodd" clip-rule="evenodd" d="M33.049 12.4463C37.0469 12.4463 38.113 9.11488 38.113 6.66293C38.113 4.18432 36.807 0.879506 33.049 0.879506C29.4243 0.879506 28.0117 4.18432 28.0117 6.66293C27.9851 9.11488 29.0245 12.4463 33.049 12.4463ZM111.7 0.346472H118.763C126.493 0.346472 129.291 2.79843 129.291 6.68958C129.291 10.6873 126.466 12.8994 119.59 12.8994H111.7V0.346472ZM116.018 12.0466H117.884C123.028 12.0466 124.813 10.0743 124.813 6.74288C124.813 3.51803 123.108 1.19933 118.097 1.19933H116.018V12.0466ZM60.7143 0.346472H62.4733L56.1301 7.16931V12.9261H51.7857V7.40917L45.1493 0.346472H50.3198L55.4371 5.99663L60.7143 0.346472ZM81.5832 12.9261H76.7324L75.3198 10.634H66.4712L65.0053 12.9261H63.3795L71.8284 0.15991H73.3742L81.5832 12.9261ZM71.0288 3.59798L67.1642 9.54131H74.6802L71.0288 3.59798ZM87.6333 12.9261V0.346472H98.8273C103.118 0.346472 104.638 2.13214 104.638 4.02441C104.638 6.15654 102.452 7.08935 98.9072 7.32922H98.774L104.664 12.8994H99.4936L93.8966 7.46248H91.7644V12.9261H87.6333ZM94.9893 6.52967C98.9072 6.52967 100.293 5.70347 100.293 3.75789C100.293 2.29205 99.2804 1.17268 95.0959 1.17268H91.7644V6.52967H93.4702H94.9893ZM17.1642 12.9794C14.8454 12.9794 12.6599 13.2992 9.72814 13.2992C4.10448 13.2726 0 10.5008 0 6.74288C0 2.74513 4.39765 0 10.048 0C12.8465 0 15.4318 0.799551 16.9776 2.29205L15.565 3.0916C14.4723 1.86562 13.193 0.826203 10.8209 0.826203C6.39659 0.826203 4.53092 3.03829 4.53092 6.71623C4.53092 9.86113 6.23667 12.4197 10.5011 12.4197C11.6738 12.4197 12.9264 11.8867 13.2996 11.0871V6.90279H10.2345V5.81007H17.1375V12.9794H17.1642ZM33.049 0C38.6461 0 42.564 2.95834 42.564 6.63627C42.564 10.3409 38.7527 13.2725 33.049 13.2725C27.3721 13.2725 23.5608 10.3142 23.5608 6.63627C23.5608 2.95834 27.452 0 33.049 0Z" fill="#482626"/>
</svg>
