<svg width="116" height="110" viewBox="0 0 116 110" fill="none" xmlns="http://www.w3.org/2000/svg">
<path d="M114.68 40.4004L96.9 97.6104H19.22L1 40.4004L22.62 55.9304H93.5L114.68 40.4004Z" fill="#D52B3E"/>
<g style="mix-blend-mode:darken" opacity="0.5">
<path d="M112.65 46.8498L96.8796 97.6098H19.1996L1.34961 41.5098L25.8696 90.4398H91.6496L112.65 46.8498Z" fill="#AC2231"/>
</g>
<path d="M114.68 40.4001L93.51 55.9301H22.63L1 40.4001L13.6 37.3701H102.09L114.68 40.4001Z" fill="#DD454F"/>
<g style="mix-blend-mode:hard-light" opacity="0.5">
<path d="M114.68 40.4001L113.79 40.6701L101.94 38.8001L13.82 38.7101L2.01999 40.7201L1 40.4001L13.6 37.3701H102.09L114.68 40.4001Z" fill="#EEB8BA"/>
</g>
<path d="M33.9199 36.64V24.92C33.9199 21.7788 34.5386 18.6683 35.7407 15.7662C36.9428 12.8641 38.7048 10.2272 40.9259 8.00601C43.1471 5.78483 45.784 4.02289 48.6862 2.8208C51.5883 1.61871 54.6987 1 57.8399 1C60.9812 1 64.0916 1.61871 66.9937 2.8208C69.8958 4.02289 72.5328 5.78483 74.7539 8.00601C76.9751 10.2272 78.7371 12.8641 79.9391 15.7662C81.1412 18.6683 81.7599 21.7788 81.7599 24.92V36.64" stroke="black" stroke-width="2.01" stroke-linecap="round" stroke-linejoin="round"/>
<path d="M1 40.4004L19 97.6104H96.68L114.68 40.4004L102.08 37.4004H13.59L1 40.4004Z" stroke="black" stroke-width="1.01" stroke-linecap="round" stroke-linejoin="round"/>
<path d="M1 40.4004L22.62 55.9304H93.5L114.68 40.4004" stroke="black" stroke-width="1.01" stroke-linecap="round" stroke-linejoin="round"/>
<path d="M72.3501 42.4199H43.3301V49.7199H72.3501V42.4199Z" fill="#E6D4CB" stroke="#271414" stroke-width="0.75" stroke-linecap="round" stroke-linejoin="round"/>
<path d="M46.5895 48H46.1278L47.4631 44.3636H47.9176L49.2528 48H48.7912L47.7045 44.9389H47.6761L46.5895 48ZM46.7599 46.5795H48.6207V46.9702H46.7599V46.5795ZM50.8628 44.3636V48H50.4225V44.8253H50.4012L49.5134 45.4148V44.9673L50.4225 44.3636H50.8628ZM53.1871 44.3636V48H52.7467V44.8253H52.7254L51.8376 45.4148V44.9673L52.7467 44.3636H53.1871ZM54.4459 48H53.9843L55.3195 44.3636H55.7741L57.1093 48H56.6476L55.561 44.9389H55.5326L54.4459 48ZM54.6164 46.5795H56.4772V46.9702H54.6164V46.5795ZM57.8248 48H57.3632L58.6984 44.3636H59.153L60.4882 48H60.0265L58.9399 44.9389H58.9115L57.8248 48ZM57.9953 46.5795H59.8561V46.9702H57.9953V46.5795ZM61.2037 48H60.7421L62.0773 44.3636H62.5319L63.8671 48H63.4055L62.3188 44.9389H62.2904L61.2037 48ZM61.3742 46.5795H63.235V46.9702H61.3742V46.5795ZM65.4771 44.3636V48H65.0368V44.8253H65.0154L64.1277 45.4148V44.9673L65.0368 44.3636H65.4771ZM66.736 48H66.2743L67.6096 44.3636H68.0641L69.3993 48H68.9377L67.851 44.9389H67.8226L66.736 48ZM66.9064 46.5795H68.7672V46.9702H66.9064V46.5795Z" fill="#271414"/>
<path d="M33.9199 65.3496V84.4196C33.9199 87.5608 34.5386 90.6713 35.7407 93.5734C36.9428 96.4755 38.7048 99.1124 40.9259 101.334C43.1471 103.555 45.784 105.317 48.6862 106.519C51.5883 107.721 54.6987 108.34 57.8399 108.34C60.9812 108.34 64.0916 107.721 66.9937 106.519C69.8958 105.317 72.5328 103.555 74.7539 101.334C76.9751 99.1124 78.7371 96.4755 79.9391 93.5734C81.1412 90.6713 81.7599 87.5608 81.7599 84.4196V65.3496" stroke="black" stroke-width="2.01" stroke-linecap="round" stroke-linejoin="round"/>
<path d="M32.0599 69.7102H35.7799L37.4199 64.9802L33.9199 60.9902L30.4199 64.9802L32.0599 69.7102Z" fill="#592F2F" stroke="black" stroke-width="1.3" stroke-linejoin="round"/>
<path d="M79.8997 69.7102H83.6198L85.2498 64.9802L81.7598 60.9902L78.2598 64.9802L79.8997 69.7102Z" fill="#592F2F" stroke="black" stroke-width="1.3" stroke-linejoin="round"/>
</svg>
