<svg width="116" height="67" viewBox="0 0 116 67" fill="none" xmlns="http://www.w3.org/2000/svg">
<path d="M114.68 33.1294L93.51 48.6594H22.63L1 33.1294L22.62 17.6094H93.5L114.68 33.1294Z" fill="#DD454F"/>
<g style="mix-blend-mode:darken" opacity="0.5">
<path d="M114.68 33.1299L92.28 46.2999H23.04L1 33.1299L22.63 48.6599H93.51L114.68 33.1299Z" fill="#AC2231"/>
</g>
<g style="mix-blend-mode:hard-light" opacity="0.5">
<path d="M114.68 33.1294L92.28 19.9694H23.04L1 33.1294L22.63 17.6094H93.51L114.68 33.1294Z" fill="#EEB8BA"/>
</g>
<path d="M1 33.1299L22.62 48.6599H93.5L114.68 33.1299" stroke="black" stroke-width="1.01" stroke-linecap="round" stroke-linejoin="round"/>
<path d="M1 33.1294L22.62 17.6094H93.5L114.68 33.1294" stroke="black" stroke-width="1.01" stroke-linecap="round" stroke-linejoin="round"/>
<g style="mix-blend-mode:darken" opacity="0.6">
<path d="M53.0199 32.5495V31.6695C45.5299 31.1095 24.0199 30.0295 20.3899 27.5195C20.3899 27.5195 21.3899 33.6995 19.8799 38.7495C19.8799 38.7495 29.9999 34.2195 53.0199 32.5495Z" stroke="#AC2231" stroke-width="0.75" stroke-miterlimit="10"/>
</g>
<path d="M20.3899 27.5195C20.3899 27.5195 21.3899 33.6995 19.8799 38.7495C19.8799 38.7495 29.9999 34.2195 53.0199 32.5495V31.6695C45.5299 31.1095 24.0399 30.0295 20.3899 27.5195Z" fill="#961E2B"/>
<path d="M98.5096 32.6002C98.5096 33.2202 98.5096 33.8402 98.5096 34.4602C98.5096 34.7302 98.4296 34.8602 98.1496 34.8502H96.7496C96.4996 34.8502 96.3896 34.7602 96.3896 34.5002C96.3896 33.2269 96.3896 31.9569 96.3896 30.6902C96.3896 30.4102 96.4997 30.3002 96.7697 30.3102H98.1796C98.4596 30.3102 98.5696 30.4102 98.5596 30.7002C98.4996 31.3302 98.5096 31.9602 98.5096 32.6002Z" fill="#271414"/>
<path d="M93.6905 32.9601C93.7005 32.7803 93.7005 32.6 93.6905 32.4201C93.6905 32.2201 93.8205 31.9401 93.4805 31.8501C93.4805 31.8501 93.4805 31.7201 93.4805 31.6601V30.3701H94.4805C94.5716 30.8088 94.5716 31.2615 94.4805 31.7001C94.3535 32.109 94.2796 32.5324 94.2605 32.9601H93.6905Z" fill="#271414"/>
<path d="M81.8701 30.3398H82.8701C82.8701 30.8198 83.0301 31.3398 82.8701 31.7298C82.7101 32.1198 82.7501 32.5298 82.6401 32.9498H82.1401V32.6398L81.9301 30.7498C81.9007 30.6147 81.8806 30.4777 81.8701 30.3398Z" fill="#271414"/>
<path d="M70.9905 32.9596H70.4305C70.4405 32.7664 70.4405 32.5728 70.4305 32.3796C70.4305 32.1896 70.5605 31.9296 70.2305 31.8496C70.2305 31.8496 70.2305 31.7496 70.2305 31.6996V30.3496H71.2305C71.1605 30.8696 71.4405 31.3996 71.0705 31.9396C70.9805 32.0696 71.0705 32.2996 71.0205 32.4796C70.9705 32.6596 70.9905 32.7796 70.9905 32.9596Z" fill="#271414"/>
<path d="M92.3003 32.9694H91.8303C91.8303 32.9694 91.7703 32.9694 91.7703 32.8994L91.5303 30.7494C91.5303 30.6294 91.5303 30.5094 91.5303 30.3594H92.5303C92.6219 30.8047 92.6219 31.264 92.5303 31.7094C92.3946 32.1164 92.3172 32.5406 92.3003 32.9694Z" fill="#271414"/>
<path d="M80.9105 30.3496C80.9105 30.8296 81.0605 31.3496 80.9105 31.7196C80.7605 32.0896 80.7905 32.5296 80.6805 32.9496H80.1805C80.1805 32.7496 80.1805 32.5496 80.1805 32.3496C80.1805 32.1496 80.2905 31.9296 79.9805 31.8496C79.9805 31.8496 79.9805 31.7596 79.9805 31.7096C79.9805 31.2696 79.9805 30.8296 79.9805 30.3496H80.9105Z" fill="#271414"/>
<path d="M84.5296 32.9596H84.0197C84.0197 32.8396 84.0197 32.7396 84.0197 32.6296C84.005 32.3149 83.9409 32.0044 83.8297 31.7096C83.7534 31.2595 83.7534 30.7997 83.8297 30.3496H84.8297C84.9215 30.8017 84.9215 31.2676 84.8297 31.7196C84.6694 32.116 84.5683 32.5338 84.5296 32.9596Z" fill="#271414"/>
<path d="M56.6299 30.3601C57.6299 30.2501 57.6299 30.2501 57.6299 31.2101C57.6299 31.4701 57.7299 31.7501 57.4399 31.9801C57.3499 32.0501 57.4399 32.3301 57.4399 32.5201C57.4399 33.0001 57.4399 33.0001 56.8899 32.9501C56.9048 32.7704 56.9048 32.5898 56.8899 32.4101C56.8899 32.2101 57.0299 31.9301 56.6799 31.8501C56.6723 31.8138 56.6723 31.7764 56.6799 31.7401C56.6299 31.2701 56.6299 30.8101 56.6299 30.3601Z" fill="#271414"/>
<path d="M78.6998 32.9594H78.1898C78.1998 32.7695 78.1998 32.5792 78.1898 32.3894C78.1898 32.1794 78.2998 31.9294 77.9998 31.7994C77.9498 31.7994 77.9998 31.5694 77.9998 31.4494V30.3594H78.9998C79.0914 30.8047 79.0914 31.264 78.9998 31.7094C78.7198 32.1294 78.8298 32.5294 78.6998 32.9594Z" fill="#271414"/>
<path d="M69.0405 32.9596H68.5205C68.4405 32.2096 68.3605 31.4796 68.2905 30.7496C68.2808 30.6165 68.2808 30.4828 68.2905 30.3496H69.2905C69.3824 30.7983 69.3824 31.2609 69.2905 31.7096C69.1434 32.111 69.0591 32.5326 69.0405 32.9596Z" fill="#271414"/>
<path d="M67.0701 32.9596H66.5801C66.5801 32.7596 66.5801 32.5696 66.5801 32.3896C66.5801 32.2096 66.6801 31.9396 66.3701 31.8496C66.3701 31.8496 66.3701 31.7496 66.3701 31.6996V30.3496H67.3701C67.3701 30.8196 67.5301 31.3496 67.3701 31.7296C67.2101 32.1096 67.1801 32.5396 67.0701 32.9596Z" fill="#271414"/>
<path d="M89.5996 30.3398H90.5996C90.5996 30.7998 90.7496 31.3398 90.5996 31.6798C90.4496 32.0198 90.4896 32.5398 90.3596 32.9698H89.9096C89.8897 32.9142 89.873 32.8574 89.8596 32.7998C89.7996 32.4598 89.9996 32.0898 89.6496 31.7998C89.5396 31.6998 89.6496 31.3898 89.6496 31.1698L89.5996 30.3398Z" fill="#271414"/>
<path d="M59.3101 32.9698H58.9C58.9 32.9698 58.84 32.9698 58.84 32.9098C58.75 32.1898 58.67 31.4698 58.59 30.7498C58.5807 30.6133 58.5807 30.4764 58.59 30.3398H59.59C59.59 30.8198 59.75 31.3398 59.59 31.7198C59.43 32.0998 59.4501 32.5498 59.3101 32.9698Z" fill="#271414"/>
<path d="M63.48 34.84C63.3986 34.4004 63.3986 33.9496 63.48 33.51C63.6153 33.1035 63.6862 32.6784 63.6901 32.25H64.18C64.18 32.25 64.18 32.25 64.18 32.32L64.42 34.46C64.429 34.5865 64.429 34.7135 64.42 34.84H63.48Z" fill="#271414"/>
<path d="M87.6994 34.84H86.6994C86.608 34.398 86.608 33.942 86.6994 33.5C86.833 33.0965 86.9038 32.675 86.9093 32.25H87.3594C87.3668 32.293 87.3668 32.337 87.3594 32.38C87.3595 32.7557 87.4272 33.1283 87.5594 33.48C87.6922 33.9203 87.7398 34.3819 87.6994 34.84Z" fill="#271414"/>
<path d="M65.1798 32.9697H64.6798C64.6798 32.7897 64.6798 32.6197 64.6798 32.4497C64.6798 32.2797 64.7898 31.9796 64.4798 31.8196C64.4198 31.8196 64.4798 31.5396 64.4798 31.3896V30.3896H65.4798C65.4798 30.8396 65.6398 31.3896 65.4798 31.7496C65.3198 32.1096 65.2898 32.5697 65.1798 32.9697Z" fill="#271414"/>
<path d="M60.5198 30.3398H61.5198C61.5198 30.8198 61.6798 31.3398 61.5198 31.7298C61.3598 32.1198 61.4198 32.5398 61.3098 32.9598H60.8498C60.8498 32.9598 60.8498 32.9598 60.8498 32.8998L60.6098 30.7798C60.5098 30.6498 60.5198 30.4698 60.5198 30.3398Z" fill="#271414"/>
<path d="M77.9501 34.84H77.0501C77.025 34.3904 77.025 33.9396 77.0501 33.49C77.131 33.0714 77.2344 32.6574 77.3601 32.25H77.7701C77.6901 33.12 78.2701 33.94 77.9501 34.84Z" fill="#271414"/>
<path d="M76.7897 32.9593H76.3297V32.8993C76.2497 32.1693 76.1796 31.4393 76.0896 30.7093C76.0396 30.3093 76.2797 30.2993 76.5497 30.3193C76.8197 30.3393 77.1197 30.2193 77.0797 30.6793C77.0397 31.1393 77.2097 31.4293 77.0797 31.6793C76.8837 32.0772 76.7843 32.5158 76.7897 32.9593Z" fill="#271414"/>
<path d="M72.88 32.9596H72.38C72.38 32.7996 72.38 32.6496 72.38 32.4896C72.38 32.3296 72.47 32.0096 72.19 31.7996C72.09 31.7296 72.19 31.4196 72.19 31.2196V30.3496H73.19C73.19 30.8096 73.35 31.3496 73.19 31.7196C73.03 32.0896 73.01 32.5496 72.88 32.9596Z" fill="#271414"/>
<path d="M61.5397 34.8393C61.4581 34.403 61.4581 33.9555 61.5397 33.5193C61.6669 33.1046 61.731 32.673 61.7297 32.2393H62.2297C62.2297 32.3593 62.2297 32.4593 62.2297 32.5693L62.4397 34.3793C62.4397 34.5193 62.4397 34.6693 62.4397 34.8393H61.5397Z" fill="#271414"/>
<path d="M88.9403 32.2393H89.4003V32.5493C89.4703 33.1693 89.5503 33.7893 89.6203 34.3993C89.6203 34.5393 89.6203 34.6693 89.6203 34.8293H88.6203C88.5341 34.3969 88.5341 33.9517 88.6203 33.5193C88.7808 33.1079 88.8883 32.6778 88.9403 32.2393Z" fill="#271414"/>
<path d="M90.8101 32.2295H91.3C91.3 32.2295 91.3 32.2895 91.3 32.3095L91.54 34.3995C91.54 34.5295 91.54 34.6595 91.54 34.8295H90.54C90.65 34.2895 90.39 33.7395 90.73 33.1895C90.92 32.9695 90.8101 32.5895 90.8101 32.2295Z" fill="#271414"/>
<path d="M85.0402 32.2393H85.5202C85.6002 32.9993 85.6902 33.7493 85.7602 34.4993C85.7602 34.5993 85.7602 34.7093 85.7602 34.8393H84.7602C84.6737 34.4002 84.6737 33.9484 84.7602 33.5093C84.9032 33.0984 84.9971 32.6721 85.0402 32.2393Z" fill="#271414"/>
<path d="M74.1801 34.8393H73.1801C73.0884 34.404 73.0884 33.9545 73.1801 33.5193C73.3122 33.1048 73.3862 32.674 73.4001 32.2393H73.8902C73.8902 32.4393 73.8902 32.6093 73.8902 32.7793C73.8902 32.9493 73.8102 33.2493 74.0802 33.4193C74.1602 33.4193 74.1301 33.6993 74.1301 33.8493L74.1801 34.8393Z" fill="#271414"/>
<path d="M67.6002 32.2295H68.0502V32.2995C68.1302 33.0095 68.2102 33.7195 68.2802 34.4295C68.2902 34.5626 68.2902 34.6963 68.2802 34.8295H67.2802C67.1944 34.3869 67.1944 33.932 67.2802 33.4895C67.4489 33.0877 67.5568 32.6631 67.6002 32.2295Z" fill="#271414"/>
<path d="M60.5898 34.85H59.5898C59.6798 34.29 59.4099 33.74 59.7699 33.19C59.9099 32.98 59.7699 32.59 59.7699 32.25H60.2598V32.36C60.2519 32.7494 60.3198 33.1366 60.4599 33.5C60.5903 33.9373 60.6344 34.3958 60.5898 34.85Z" fill="#271414"/>
<path d="M88.6599 30.3596C88.7518 30.8015 88.7518 31.2576 88.6599 31.6996C88.5231 32.106 88.449 32.5308 88.4399 32.9596H87.9199C87.9299 32.8031 87.9299 32.6461 87.9199 32.4896C87.9199 32.2596 88.0299 31.9996 87.7299 31.8096C87.6499 31.8096 87.7299 31.4796 87.7299 31.3096C87.7299 31.1396 87.7299 30.6896 87.7299 30.3096L88.6599 30.3596Z" fill="#271414"/>
<path d="M86.7194 30.3199C86.7194 30.8299 86.8794 31.3799 86.7194 31.7199C86.5594 32.0599 86.5994 32.5299 86.4894 32.9499H86.0094C86.0196 32.8334 86.0196 32.7163 86.0094 32.5999C85.9962 32.3226 85.9387 32.0491 85.8394 31.7899C85.7437 31.345 85.7437 30.8848 85.8394 30.4399C85.8394 30.4399 85.9794 30.3299 86.0594 30.3299C86.1794 30.3099 86.4194 30.3199 86.7194 30.3199Z" fill="#271414"/>
<path d="M83.1103 32.2393H83.5902C83.6702 32.9793 83.7602 33.7193 83.8402 34.4493C83.8497 34.5758 83.8497 34.7028 83.8402 34.8293H82.8402C82.7538 34.3969 82.7538 33.9516 82.8402 33.5193C82.9845 33.1059 83.0753 32.6757 83.1103 32.2393Z" fill="#271414"/>
<path d="M70.3503 34.8393H69.2903C69.2903 34.3793 69.1403 33.8393 69.2903 33.5093C69.4403 33.1793 69.4103 32.6693 69.5203 32.2393H69.9603C69.9603 32.2393 69.9603 32.2393 69.9603 32.2993C70.1803 33.1293 70.2403 33.9493 70.3503 34.8393Z" fill="#271414"/>
<path d="M63.1799 32.9596H62.7299C62.6299 32.3196 62.5 31.6996 62.46 31.0796C62.46 30.2696 62.4599 30.2696 63.2599 30.3296H63.4399C63.4399 30.7796 63.5899 31.3296 63.4399 31.6896C63.2899 32.0496 63.3199 32.5496 63.1799 32.9596Z" fill="#271414"/>
<path d="M66.3997 34.8395H65.3997C65.3134 34.397 65.3134 33.942 65.3997 33.4995C65.5422 33.0914 65.6132 32.6617 65.6097 32.2295H66.0497C66.0497 32.2295 66.0997 32.2295 66.0997 32.3095L66.3397 34.3895C66.4097 34.5295 66.3997 34.6595 66.3997 34.8395Z" fill="#271414"/>
<path d="M94.7304 32.2393H95.2304C95.2154 32.439 95.2154 32.6395 95.2304 32.8393C95.2799 33.0128 95.34 33.1831 95.4104 33.3493C95.4251 33.4521 95.4251 33.5564 95.4104 33.6593C95.4104 34.0493 95.4104 34.4393 95.4104 34.8393H94.4104C94.4104 34.3693 94.2604 33.8393 94.4104 33.4893C94.5774 33.0904 94.6852 32.6693 94.7304 32.2393Z" fill="#271414"/>
<path d="M92.8103 32.2393H93.3103C93.3103 32.4293 93.3103 32.5893 93.3103 32.7393C93.3103 32.8893 93.2503 33.1993 93.4903 33.3993C93.7303 33.5993 93.4903 33.7793 93.5403 33.9793V34.8393H92.5403C92.5403 34.3793 92.3903 33.8393 92.5403 33.5193C92.6884 33.107 92.7793 32.6763 92.8103 32.2393Z" fill="#271414"/>
<path d="M74.3397 32.9596C74.2497 32.1896 74.1697 31.4496 74.0897 30.6996C74.0808 30.5831 74.0808 30.4661 74.0897 30.3496H75.0897C75.1762 30.7887 75.1762 31.2405 75.0897 31.6796C74.9488 32.0919 74.8746 32.524 74.8697 32.9596H74.3397Z" fill="#271414"/>
<path d="M56.7204 34.8393H55.7204C55.7204 34.3793 55.5804 33.8393 55.7204 33.5193C55.8605 33.1065 55.938 32.675 55.9504 32.2393H56.4204C56.4204 32.3993 56.4204 32.5593 56.4204 32.7093C56.4204 32.8593 56.3704 33.1893 56.6104 33.3993C56.8504 33.6093 56.6104 33.8093 56.6604 34.0293L56.7204 34.8393Z" fill="#271414"/>
<path d="M57.9196 32.2393H58.4196C58.4096 32.4058 58.4096 32.5727 58.4196 32.7393C58.4196 32.9593 58.3296 33.2093 58.6096 33.3793C58.6796 33.3793 58.6096 33.6593 58.6096 33.7993V34.7993H57.6096C57.6096 34.3393 57.4596 33.7993 57.6096 33.4293C57.7596 33.0593 57.7996 32.6593 57.9196 32.2393Z" fill="#271414"/>
<path d="M80.9204 34.8293C80.8338 34.3868 80.8338 33.9317 80.9204 33.4893C81.054 33.0855 81.1282 32.6644 81.1404 32.2393H81.6404C81.6302 32.4058 81.6302 32.5727 81.6404 32.7393C81.6404 32.9693 81.5604 33.2193 81.8204 33.4193C82.0804 33.6193 81.8204 33.7993 81.8704 33.9993V34.8493L80.9204 34.8293Z" fill="#271414"/>
<path d="M79.2499 32.21H79.7099C79.7099 32.34 79.7099 32.44 79.7099 32.54C79.7899 33.09 79.8799 33.64 79.9499 34.19C79.9499 34.38 79.9499 34.58 79.9499 34.81H78.9499C78.9499 34.36 78.8099 33.81 78.9499 33.5C79.1174 33.0885 79.2186 32.6531 79.2499 32.21Z" fill="#271414"/>
<path d="M71.1797 34.8393C71.0924 34.407 71.0924 33.9616 71.1797 33.5293C71.3206 33.1136 71.3949 32.6782 71.3997 32.2393H71.8397C71.8427 32.2658 71.8427 32.2927 71.8397 32.3193C71.8955 32.7173 72.0101 33.1049 72.1797 33.4693C72.2659 33.9185 72.2659 34.38 72.1797 34.8293L71.1797 34.8393Z" fill="#271414"/>
<path d="M75.3202 32.2393H75.8402C75.9202 32.9893 76.0002 33.7093 76.0702 34.4293C76.0796 34.5658 76.0796 34.7028 76.0702 34.8393H75.1302C75.2302 34.2693 74.9702 33.7193 75.3202 33.1693C75.4302 32.9593 75.3202 32.5893 75.3202 32.2393Z" fill="#271414"/>
<path d="M95.4697 30.3496H96.0098V31.7396C96.0098 32.0796 96.0098 32.4196 96.0098 32.7396C96.0098 32.8196 95.9197 32.8896 95.8597 32.9696C95.8001 32.8979 95.7527 32.8168 95.7197 32.7296C95.7096 32.6098 95.7096 32.4894 95.7197 32.3696C95.7197 32.1796 95.8197 31.9396 95.5297 31.8196C95.4697 31.8196 95.5297 31.5696 95.5297 31.4396L95.4697 30.3496Z" fill="#271414"/>
<path d="M46.9602 29.9395H47.9602C48.0539 30.4487 48.0266 30.9728 47.8802 31.4695C47.7984 31.7281 47.7579 31.9981 47.7602 32.2695C47.7602 32.5295 47.7602 32.5294 47.4702 32.5294L47.1802 32.4695C47.1802 32.2395 47.1802 32.0095 47.1102 31.7895C47.0934 31.6428 47.0599 31.4985 47.0102 31.3595C46.8952 30.8947 46.8782 30.4111 46.9602 29.9395Z" fill="#271414"/>
<path d="M34.7796 36.0193C34.7196 35.6993 34.6596 35.4093 34.6096 35.1093C34.5846 35.0142 34.5846 34.9143 34.6096 34.8193C34.7143 34.4008 34.7347 33.9657 34.6696 33.5393V33.4093C35.1296 33.3093 35.1096 33.3093 35.2296 33.7593C35.2996 34.0493 35.4496 34.3193 35.5196 34.6093C35.5972 34.9146 35.6507 35.2256 35.6796 35.5393C35.6796 35.9193 35.6796 35.9193 35.3396 35.9693L34.7796 36.0193Z" fill="#271414"/>
<path d="M49.6497 32.5696C49.2097 32.5696 49.2297 32.5696 49.1597 32.1896C49.1213 31.9013 49.0577 31.6168 48.9697 31.3396C48.9046 30.9892 48.9046 30.6299 48.9697 30.2796C48.9697 29.9796 49.0397 29.9396 49.3397 29.9496H49.9497C49.9497 30.2896 49.9497 30.6096 50.0197 30.9496C50.0236 31.0454 50.0066 31.141 49.9697 31.2296C49.8022 31.5826 49.7168 31.9689 49.7197 32.3596C49.7056 32.4323 49.682 32.5029 49.6497 32.5696Z" fill="#271414"/>
<path d="M50.8398 30.0801H51.8398C51.8398 30.4301 51.8398 30.7601 51.8898 31.0801C51.9057 31.1559 51.9057 31.2342 51.8898 31.3101C51.7264 31.6641 51.6444 32.0502 51.6498 32.4401C51.6547 32.51 51.6547 32.5802 51.6498 32.6501H51.1299C51.1299 32.4001 51.1299 32.1601 51.1299 31.9301C51.137 31.8555 51.1262 31.7802 51.0984 31.7107C51.0705 31.6411 51.0265 31.5792 50.9698 31.5301C50.9475 31.5136 50.9289 31.4926 50.9151 31.4685C50.9013 31.4444 50.8927 31.4177 50.8898 31.3901L50.8398 30.0801Z" fill="#271414"/>
<path d="M55.7494 30.1802C55.7494 30.5402 55.7493 30.8702 55.7993 31.1802C55.8145 31.2493 55.8145 31.321 55.7993 31.3902C55.639 31.7589 55.5605 32.1581 55.5694 32.5602C55.5694 32.7102 55.5693 32.7902 55.3593 32.7502C55.1493 32.7102 55.2094 32.7502 55.1494 32.7502C55.0894 32.7502 55.0093 32.6702 55.0093 32.6302C54.9193 31.8502 54.8393 31.0802 54.7693 30.3002C54.7644 30.2536 54.7644 30.2067 54.7693 30.1602L55.7494 30.1802Z" fill="#271414"/>
<path d="M52.7798 30.1201H53.7798C53.8899 30.6221 53.8588 31.1448 53.6898 31.6301C53.6202 31.8154 53.5863 32.0122 53.5898 32.2101C53.5898 32.3801 53.5898 32.5401 53.5198 32.7201H53.3298C53.0198 32.7201 52.9898 32.7201 52.9998 32.3701C52.9998 32.2701 52.9998 32.1601 52.9998 32.0601C52.9866 31.908 52.9387 31.7609 52.8598 31.6301C52.7591 31.4917 52.716 31.3196 52.7398 31.1501C52.7898 30.8001 52.7798 30.4701 52.7798 30.1201Z" fill="#271414"/>
<path d="M35.3298 29.0898L36.3298 29.1898C36.3298 29.5498 36.3298 29.8998 36.3298 30.1898C36.3287 30.2691 36.3117 30.3473 36.2798 30.4198C36.1138 30.7258 36.0376 31.0724 36.0598 31.4198C36.0598 31.5198 36.0598 31.6198 36.0098 31.7498H35.4898V31.1298C35.5068 31.032 35.4993 30.9314 35.4679 30.8371C35.4365 30.7429 35.3821 30.6579 35.3098 30.5898C35.2788 30.5575 35.2609 30.5147 35.2598 30.4698C35.3198 29.9798 35.3298 29.5498 35.3298 29.0898Z" fill="#271414"/>
<path d="M31.4897 28.6602L32.3797 28.7602C32.4086 28.7719 32.4339 28.7911 32.4532 28.8156C32.4725 28.8401 32.4851 28.8693 32.4897 28.9002C32.5213 29.159 32.5379 29.4194 32.5397 29.6802C32.55 29.8065 32.5294 29.9335 32.4797 30.0502C32.3439 30.3659 32.2758 30.7065 32.2797 31.0502C32.2797 31.1602 32.2797 31.2702 32.2797 31.3902L31.7497 31.3202C31.6497 30.4102 31.4797 29.5602 31.4897 28.6602Z" fill="#271414"/>
<path d="M27.8396 30.7699C27.8396 30.5099 27.8396 30.2799 27.8396 30.0499C27.848 29.9731 27.8389 29.8954 27.8129 29.8226C27.7869 29.7499 27.7448 29.684 27.6896 29.6299C27.664 29.6113 27.6426 29.5873 27.6271 29.5597C27.6116 29.5321 27.6022 29.5015 27.5996 29.4699C27.5996 29.0299 27.5996 28.5999 27.5996 28.1299L28.5996 28.2799C28.5996 28.6099 28.5996 28.9299 28.6496 29.2799C28.6751 29.3749 28.6751 29.4749 28.6496 29.5699C28.5013 29.8568 28.429 30.177 28.4396 30.4999C28.4396 30.6199 28.4396 30.7399 28.3796 30.8799L27.8396 30.7699Z" fill="#271414"/>
<path d="M33.9294 36.1596L32.8794 36.3296C32.7455 35.917 32.6945 35.482 32.7294 35.0496C32.8126 34.7437 32.8364 34.4246 32.7994 34.1096C32.8044 34.0197 32.8044 33.9296 32.7994 33.8396C32.7949 33.8176 32.7954 33.7948 32.8009 33.773C32.8064 33.7512 32.8167 33.7309 32.8311 33.7136C32.8455 33.6963 32.8636 33.6825 32.8841 33.6731C32.9046 33.6638 32.9269 33.6592 32.9494 33.6596C33.0191 33.6499 33.0898 33.6499 33.1594 33.6596C33.1594 33.6596 33.2994 33.6596 33.3094 33.7496C33.5094 34.5196 33.7194 35.3296 33.9294 36.1596Z" fill="#271414"/>
<path d="M23.7598 27.4697L24.7598 27.6397C24.7598 27.9697 24.8098 28.2997 24.8198 28.6397C24.8229 28.7505 24.7988 28.8604 24.7498 28.9597C24.6174 29.2409 24.5523 29.549 24.5598 29.8597C24.5516 29.9774 24.5348 30.0944 24.5098 30.2097L24.0998 30.1397C24.0755 30.1308 24.0536 30.1162 24.0362 30.097C24.0188 30.0779 24.0063 30.0548 23.9998 30.0297C23.9098 29.1897 23.8398 28.3597 23.7598 27.5197C23.7636 27.5033 23.7636 27.4862 23.7598 27.4697Z" fill="#271414"/>
<path d="M45.0397 29.7998L46.0397 29.8598C46.1419 30.3664 46.1074 30.891 45.9397 31.3798C45.8667 31.5991 45.8296 31.8287 45.8297 32.0598C45.8297 32.1798 45.8297 32.2998 45.7797 32.4198C45.3197 32.4198 45.2897 32.4198 45.2397 32.0298C45.1597 31.4398 45.0897 30.8398 45.0297 30.2398C45.023 30.0931 45.0264 29.9461 45.0397 29.7998Z" fill="#271414"/>
<path d="M44.3499 34.9095L44.1899 34.0595C44.1698 33.9504 44.1698 33.8386 44.1899 33.7295C44.2978 33.3017 44.3316 32.8587 44.2899 32.4195C44.2899 32.4195 44.2899 32.3495 44.2899 32.2995L44.7899 32.2295C44.7899 32.4595 44.8399 32.6595 44.8599 32.8595C44.8599 32.9637 44.8822 33.0667 44.9253 33.1616C44.9684 33.2564 45.0314 33.341 45.1099 33.4095C45.1325 33.4279 45.1512 33.4507 45.165 33.4764C45.1787 33.5022 45.1872 33.5304 45.1899 33.5595C45.1899 33.9695 45.2699 34.3895 45.3099 34.8295L44.3499 34.9095Z" fill="#271414"/>
<path d="M29.5494 28.4102C29.8594 28.4102 30.1494 28.4802 30.4394 28.5302C30.4655 28.5408 30.4888 28.557 30.5079 28.5778C30.5269 28.5985 30.5411 28.6233 30.5494 28.6502C30.5892 28.8982 30.6093 29.149 30.6094 29.4002C30.5837 29.583 30.5436 29.7636 30.4894 29.9402C30.4394 30.1902 30.3794 30.4402 30.3394 30.6902C30.2694 31.1202 30.3394 31.1302 29.8894 31.0502H29.7794C29.7794 30.8002 29.7794 30.5502 29.7794 30.3002C29.7925 30.2299 29.7831 30.1573 29.7526 30.0927C29.7221 30.028 29.6719 29.9747 29.6094 29.9402C29.592 29.9272 29.5777 29.9107 29.5673 29.8917C29.557 29.8727 29.5508 29.8517 29.5494 29.8302C29.5394 29.3502 29.5494 28.8802 29.5494 28.4102Z" fill="#271414"/>
<path d="M21.8302 27.1299L22.8302 27.3199C22.8302 27.6899 22.8302 28.0499 22.8802 28.4199C22.8792 28.4832 22.862 28.5451 22.8302 28.5999C22.6744 28.8844 22.5984 29.2057 22.6102 29.5299C22.6151 29.5998 22.6151 29.67 22.6102 29.7399C22.6102 29.8699 22.5502 29.8899 22.4302 29.8699C22.1002 29.8099 22.1002 29.8099 22.0702 29.4799L21.8602 27.6099C21.8202 27.4699 21.8302 27.2999 21.8302 27.1299Z" fill="#271414"/>
<path d="M26.4204 30.5394C26.3072 30.5464 26.1936 30.5464 26.0804 30.5394C26.0484 30.5273 26.0194 30.5086 25.9953 30.4845C25.9711 30.4603 25.9524 30.4313 25.9404 30.3994C25.8504 29.7494 25.7504 29.0894 25.6904 28.3994C25.6304 27.7094 25.6904 27.7794 26.2604 27.8894C26.8304 27.9994 26.6704 27.9794 26.7004 28.4094C26.7004 28.5794 26.7004 28.7594 26.7004 28.9294C26.7081 29.0534 26.684 29.1773 26.6304 29.2894C26.4989 29.5744 26.4339 29.8856 26.4404 30.1994C26.4604 30.2994 26.4404 30.4094 26.4204 30.5394Z" fill="#271414"/>
<path d="M41.3802 32.2098C41.3802 31.9498 41.3802 31.6998 41.3802 31.4598C41.3927 31.3898 41.3864 31.3176 41.3618 31.2508C41.3372 31.184 41.2952 31.125 41.2401 31.0798C41.2168 31.0599 41.1977 31.0354 41.184 31.0079C41.1702 30.9805 41.1621 30.9505 41.1602 30.9198C41.1602 30.5098 41.1602 30.0898 41.1602 29.6698C41.1602 29.6698 41.1602 29.6698 41.1602 29.5898L42.1602 29.6498C42.255 30.1083 42.255 30.5814 42.1602 31.0398C42.0762 31.3097 42.0225 31.5881 42.0002 31.8698C42.0002 32.2198 42.0002 32.2198 41.6302 32.2198L41.3802 32.2098Z" fill="#271414"/>
<path d="M50.0901 34.5497C50.0329 34.2926 49.9928 34.032 49.9701 33.7697C49.9553 33.5599 49.9553 33.3494 49.9701 33.1397C49.9701 32.8497 50.0301 32.5597 50.0501 32.2597C50.0501 32.1697 50.0501 32.0697 50.0501 31.9497C50.1799 31.94 50.3103 31.94 50.4401 31.9497C50.4401 31.9497 50.5401 32.0197 50.5601 32.0597C50.5801 32.0997 50.5601 32.3297 50.6301 32.4597C50.6688 32.6622 50.7292 32.86 50.8101 33.0497C50.9311 33.3021 50.9894 33.5799 50.9801 33.8597V34.4697L50.0901 34.5497Z" fill="#271414"/>
<path d="M36.5994 33.1098L37.0894 33.0098C37.0894 33.2798 37.1594 33.5198 37.1894 33.7698C37.1916 33.8478 37.2128 33.924 37.2511 33.992C37.2895 34.0599 37.3438 34.1175 37.4094 34.1598C37.4552 34.1897 37.4875 34.2364 37.4994 34.2898C37.5594 34.7298 37.6194 35.1598 37.6794 35.6098L36.6794 35.7498C36.5204 35.2665 36.4792 34.7522 36.5594 34.2498C36.5948 34.0077 36.5948 33.7618 36.5594 33.5198C36.6194 33.3898 36.5994 33.2698 36.5994 33.1098Z" fill="#271414"/>
<path d="M44.0898 29.7693C44.0898 30.0293 44.0898 30.2693 44.1498 30.5093C44.159 30.7484 44.1181 30.9868 44.0298 31.2093C43.954 31.4806 43.9038 31.7585 43.8799 32.0393C43.8799 32.3393 43.8798 32.3393 43.5498 32.3193H43.3298V31.5593C43.3397 31.4984 43.3306 31.4361 43.3037 31.3806C43.2769 31.3251 43.2337 31.2793 43.1798 31.2493C43.1798 31.2493 43.0898 31.1793 43.0898 31.1393V29.7393L44.0898 29.7693Z" fill="#271414"/>
<path d="M19.8804 26.7393C20.1204 26.7393 20.3304 26.7993 20.5304 26.8493C20.6295 26.8569 20.7216 26.9031 20.787 26.9779C20.8524 27.0527 20.886 27.1501 20.8804 27.2493C20.8804 27.5593 20.8804 27.8793 20.8804 28.2493C20.8789 28.3548 20.8358 28.4554 20.7604 28.5293C20.7182 28.5685 20.6855 28.6167 20.6647 28.6704C20.6439 28.7241 20.6356 28.7819 20.6404 28.8393C20.6404 29.0093 20.6404 29.1793 20.6404 29.3493C20.6404 29.5193 20.5504 29.5693 20.3904 29.5293C20.3279 29.5234 20.267 29.5065 20.2104 29.4793C20.1561 29.4383 20.1145 29.3829 20.0904 29.3193C20.0904 29.0993 20.0904 28.8793 20.0904 28.6593C20.0876 28.5529 20.0488 28.4507 19.9804 28.3693C19.937 28.3396 19.9021 28.299 19.8793 28.2517C19.8565 28.2043 19.8465 28.1517 19.8504 28.0993L19.8804 26.7393Z" fill="#271414"/>
<path d="M37.25 29.2793L38.25 29.3593C38.25 29.6193 38.25 29.8693 38.25 30.1093C38.2246 30.3317 38.1845 30.5522 38.13 30.7693C38.13 31.0793 38.02 31.3893 37.99 31.6993C37.96 32.0093 37.93 31.9693 37.74 31.9193C37.6437 31.9079 37.5463 31.9079 37.45 31.9193L37.25 29.2793Z" fill="#271414"/>
<path d="M22.0295 36.1494C22.0143 36.3992 22.0143 36.6496 22.0295 36.8994C22.0631 37.0068 22.1138 37.1081 22.1795 37.1994C22.1795 37.1994 22.2595 37.2994 22.2595 37.3594C22.2595 37.7594 22.2795 38.1594 22.3195 38.5594C22.3195 38.5851 22.3119 38.6102 22.2977 38.6315C22.2835 38.6529 22.2632 38.6695 22.2395 38.6794C21.9495 38.7794 21.6495 38.8494 21.3495 38.9394C21.3092 38.7011 21.2825 38.4607 21.2695 38.2194C21.2874 37.9742 21.3208 37.7304 21.3695 37.4894C21.3695 37.2494 21.4395 36.9994 21.4595 36.7494C21.5695 36.1794 21.4495 36.2994 22.0295 36.1494Z" fill="#271414"/>
<path d="M47.1804 34.6999L46.1804 34.7599C46.0437 34.2821 46.0164 33.7797 46.1004 33.2899C46.1358 32.9842 46.1358 32.6755 46.1004 32.3699C46.1004 32.2699 46.1004 32.1499 46.2404 32.1299C46.5904 32.1299 46.5904 32.1299 46.6404 32.3199C46.7804 32.9799 46.9304 33.6399 47.0704 34.3199C47.1135 34.4446 47.1502 34.5714 47.1804 34.6999Z" fill="#271414"/>
<path d="M23.8603 35.6299C23.8603 35.8399 23.9203 36.0399 23.9703 36.2299C24.0203 36.4199 24.0703 36.5599 24.1103 36.7299C24.181 36.946 24.2378 37.1665 24.2803 37.3899C24.3053 37.6025 24.3053 37.8173 24.2803 38.0299C24.2781 38.0627 24.2678 38.0945 24.2504 38.1224C24.2329 38.1503 24.2088 38.1735 24.1803 38.1899L23.3003 38.4199C23.2554 37.971 23.2554 37.5188 23.3003 37.0699C23.4368 36.6495 23.4542 36.1995 23.3503 35.7699L23.8603 35.6299Z" fill="#271414"/>
<path d="M43.4304 34.9897L42.4304 35.0797C42.3002 34.6389 42.2594 34.1765 42.3104 33.7197C42.3639 33.4228 42.3873 33.1213 42.3804 32.8197V32.4697H42.4404C42.8104 32.4697 42.8104 32.4697 42.9104 32.7997C43.0104 33.1297 43.1804 33.7997 43.3004 34.2997C43.3604 34.4697 43.3904 34.7297 43.4304 34.9897Z" fill="#271414"/>
<path d="M31.9405 36.47L30.9405 36.65C30.799 36.1701 30.7615 35.6655 30.8304 35.17C30.8705 34.858 30.8705 34.5421 30.8304 34.23C30.8304 34.06 30.8305 33.99 31.0305 33.97C31.2305 33.95 31.3105 33.91 31.3805 34.2C31.5405 34.86 31.6905 35.52 31.8505 36.2C31.8868 36.2878 31.9169 36.378 31.9405 36.47Z" fill="#271414"/>
<path d="M20.4602 39.23L19.4602 39.52C19.3659 39.0208 19.3933 38.5063 19.5402 38.02C19.6251 37.7411 19.6689 37.4514 19.6702 37.16C19.6702 36.85 19.6702 36.85 19.9902 36.76L20.1502 36.71C20.1502 36.92 20.1502 37.12 20.1502 37.33C20.139 37.4186 20.1495 37.5086 20.1809 37.5922C20.2122 37.6758 20.2635 37.7506 20.3302 37.81C20.3715 37.8567 20.393 37.9177 20.3902 37.98C20.4602 38.39 20.4602 38.8 20.4602 39.23Z" fill="#271414"/>
<path d="M34.3704 28.9894C34.3704 29.3194 34.4304 29.6294 34.4204 29.9894C34.4243 30.1561 34.3865 30.3211 34.3104 30.4695C34.2112 30.6423 34.166 30.8407 34.1804 31.0395C34.1804 31.2195 34.1804 31.3995 34.1804 31.6095L33.6304 31.5495C33.6304 31.2995 33.6304 31.0595 33.6304 30.8195C33.6304 30.5795 33.6304 30.5195 33.4604 30.4395C33.4428 30.4246 33.4284 30.4062 33.4181 30.3856C33.4077 30.365 33.4017 30.3425 33.4004 30.3195C33.4004 29.8695 33.4004 29.4195 33.4004 28.9395L34.3704 28.9894Z" fill="#271414"/>
<path d="M29.0802 37.0501C28.9361 36.5498 28.9053 36.0237 28.9902 35.5101C29.0396 35.1987 29.0396 34.8815 28.9902 34.5701C28.9902 34.2801 29.2102 34.3701 29.3402 34.3201C29.4702 34.2701 29.5002 34.4101 29.5202 34.5001C29.6702 35.1401 29.8202 35.7701 29.9602 36.4101C29.9602 36.5501 29.9602 36.7001 30.0202 36.8601L29.0802 37.0501Z" fill="#271414"/>
<path d="M39.97 32.09C39.8402 32.1008 39.7098 32.1008 39.58 32.09C39.5487 32.0699 39.5218 32.0435 39.5012 32.0125C39.4805 31.9815 39.4665 31.9466 39.46 31.91C39.38 31.3 39.32 30.69 39.25 30.08C39.25 29.97 39.25 29.86 39.25 29.75C39.25 29.64 39.33 29.46 39.53 29.46H40.02C40.2 29.46 40.26 29.59 40.27 29.75C40.28 29.91 40.27 30.21 40.27 30.43C40.2677 30.582 40.2336 30.7319 40.17 30.87C40.0572 31.1598 40.0028 31.469 40.01 31.78L39.97 32.09Z" fill="#271414"/>
<path d="M25.7295 35.1494L26.2295 37.6694L25.2295 37.9094C25.1204 37.4371 25.1035 36.9482 25.1795 36.4694C25.2541 36.1416 25.2744 35.8038 25.2395 35.4694C25.2395 35.2794 25.2995 35.1994 25.4695 35.1794C25.5569 35.1772 25.6439 35.1671 25.7295 35.1494Z" fill="#271414"/>
<path d="M49.18 34.5895L48.18 34.6495C48.0634 34.1924 48.0362 33.717 48.1 33.2495C48.1554 32.9462 48.1756 32.6375 48.16 32.3295C48.16 32.0295 48.16 32.0295 48.46 32.0195H48.67C48.81 32.8695 49.03 33.6995 49.18 34.5895Z" fill="#271414"/>
<path d="M40.55 35.2694C40.3349 34.4093 40.3349 33.5095 40.55 32.6494H40.87C41.02 33.1294 41.17 33.5894 41.31 34.0494C41.4312 34.3679 41.4758 34.7105 41.44 35.0494C41.4313 35.0854 41.414 35.1187 41.3896 35.1466C41.3652 35.1744 41.3345 35.196 41.3 35.2094C41.06 35.2294 40.81 35.2394 40.55 35.2694Z" fill="#271414"/>
<path d="M28.0999 37.2497L27.1799 37.4697C27.0598 37.0064 27.0292 36.5244 27.0899 36.0497C27.1438 35.7663 27.1672 35.478 27.1599 35.1897V34.8497C27.6199 34.6897 27.6199 34.6897 27.7199 35.1297C27.8199 35.5697 27.9699 36.2697 28.0899 36.8397C28.0899 36.9597 28.0799 37.0997 28.0999 37.2497Z" fill="#271414"/>
<path d="M54.8694 34.35H53.9193C53.9193 33.8 53.7094 33.23 53.9894 32.66C54.0694 32.5 53.9894 32.26 53.9894 32.05C53.9894 31.84 53.9894 31.89 53.9894 31.79H54.4294C54.4294 31.79 54.5393 31.86 54.5393 31.9C54.6693 32.71 54.7893 33.52 54.9193 34.33C54.8793 34.3 54.8694 34.31 54.8694 34.35Z" fill="#271414"/>
<path d="M52.9702 34.4699C52.6702 34.4699 52.4002 34.4699 52.1302 34.4699C52.1014 34.46 52.0749 34.4442 52.0526 34.4236C52.0302 34.4029 52.0123 34.3778 52.0002 34.3499C51.9548 34.1357 51.9247 33.9185 51.9102 33.6999C51.9102 33.4999 51.9102 33.2899 51.9702 33.0899C52.0302 32.8899 52.0401 32.6799 52.0501 32.4799C52.0601 32.2799 52.0501 32.0899 52.0501 31.9199H52.1101C52.5301 31.9199 52.5301 31.9199 52.6101 32.2999C52.7101 32.8699 52.8201 33.4299 52.9201 33.9999C52.9501 34.0799 52.9502 34.2299 52.9702 34.4699Z" fill="#271414"/>
<path d="M39.5995 35.3796L38.6494 35.4896C38.5894 35.1296 38.5294 34.7796 38.4894 34.4296C38.4491 34.2789 38.4491 34.1203 38.4894 33.9696C38.5891 33.7019 38.5891 33.4073 38.4894 33.1396C38.4894 33.0596 38.4895 32.9796 38.4395 32.8696L38.9594 32.8096L39.5995 35.3796Z" fill="#271414"/>
<path d="M77.8202 32.35C77.8202 33.35 77.8202 34.26 77.8202 35.22C77.8202 35.75 77.6502 35.89 77.1302 35.85C73.9102 35.54 68.7001 35.27 65.4901 34.97C64.9401 34.97 64.4001 34.84 63.8501 34.81C63.5901 34.81 63.5301 34.68 63.5401 34.45C63.5601 34.2372 63.5601 34.0229 63.5401 33.81C63.5401 33.67 63.4802 33.46 63.3902 33.42C63.0802 33.27 63.1201 33.02 63.1201 32.77V32C63.093 31.8593 63.1037 31.7138 63.1511 31.5786C63.1985 31.4433 63.281 31.323 63.3902 31.23C63.5502 31.11 63.5401 30.74 63.5501 30.48C63.5501 29.92 63.5501 29.93 64.1001 29.88C67.2301 29.58 72.3501 29.25 75.4701 28.96L77.2301 28.79C77.6401 28.79 77.8302 28.92 77.8302 29.34C77.8302 30.34 77.8302 31.34 77.8302 32.34L77.8202 32.35ZM76.5501 32.35C76.5501 31.83 76.5501 31.35 76.5501 30.77C76.5501 30.19 76.4001 30.21 75.9801 30.25L73.5802 30.46C73.1402 30.46 73.0202 30.65 73.0102 31.12C73.0102 31.94 73.0102 32.77 73.0102 33.59C73.0102 34.08 73.1401 34.21 73.6201 34.25L75.9301 34.48C76.4101 34.48 76.5602 34.39 76.5702 33.89L76.5501 32.35Z" fill="#E6D4CB"/>
<path d="M58.3005 30.2098C58.201 30.3379 58.1139 30.4752 58.0405 30.6198C57.9205 31.1298 57.5805 31.1998 57.1205 31.1798C56.1705 31.1798 55.2205 31.1798 54.2705 31.1798C53.9005 31.1798 53.7705 31.3198 53.7705 31.6798C53.7705 32.0398 53.7705 32.5698 53.7705 33.0198C53.7705 33.4698 53.9005 33.4898 54.2405 33.4798C55.2905 33.4798 56.3305 33.4798 57.3705 33.4798C57.6705 33.4798 57.8405 33.5398 57.9305 33.8398C58.0196 34.0506 58.1302 34.2517 58.2605 34.4398C57.8607 34.4632 57.4749 34.5959 57.1452 34.8233C56.8155 35.0508 56.5544 35.3643 56.3905 35.7298C56.2333 35.899 56.0269 36.0144 55.8005 36.0598C55.6411 36.08 55.4799 36.08 55.3205 36.0598C55.1209 36.0965 54.9149 36.0559 54.744 35.9464C54.5732 35.8368 54.4504 35.6665 54.4005 35.4698C54.2205 35.0498 53.9905 34.6498 53.7705 34.2498C53.5041 33.7299 53.071 33.3144 52.5405 33.0698C52.3868 33.0203 52.2532 32.9225 52.1595 32.791C52.0658 32.6595 52.017 32.5012 52.0205 32.3398C52.0123 32.1827 52.0558 32.0273 52.1443 31.8973C52.2328 31.7673 52.3614 31.6698 52.5105 31.6198C53.1322 31.3197 53.6281 30.8097 53.9105 30.1798C54.1105 29.8298 54.2805 29.4598 54.4505 29.0898C54.5018 28.9354 54.6038 28.8029 54.74 28.7139C54.8762 28.6249 55.0385 28.5847 55.2005 28.5998H55.7605C55.9023 28.5897 56.044 28.6224 56.167 28.6937C56.29 28.7651 56.3888 28.8717 56.4505 28.9998C56.6058 29.361 56.8641 29.6684 57.1931 29.8836C57.5222 30.0988 57.9073 30.2123 58.3005 30.2098Z" fill="#E6D4CB" stroke="black" stroke-width="0.16" stroke-miterlimit="10"/>
<path d="M60.0097 31.5596V33.0796H54.1797V31.5596H60.0097Z" fill="#E6D4CB" stroke="black" stroke-width="0.16" stroke-miterlimit="10"/>
<path d="M58.1797 31.13C58.2859 30.7828 58.491 30.474 58.7698 30.2414C59.0486 30.0088 59.3891 29.8623 59.7497 29.82C60.6425 29.7748 61.5369 29.7748 62.4297 29.82C62.5297 29.82 62.6997 30.01 62.6997 30.11C62.6997 31.61 62.6997 33.11 62.6997 34.61C62.6997 34.85 62.5697 34.94 62.3497 34.94C61.5397 34.94 60.7397 34.94 59.9397 34.94C59.5282 34.9138 59.1357 34.7572 58.8193 34.4929C58.5028 34.2285 58.2788 33.8702 58.1797 33.47C58.3012 33.4197 58.4371 33.4164 58.561 33.4608C58.6848 33.5052 58.7877 33.594 58.8497 33.71C58.9991 33.9273 59.2015 34.1029 59.4377 34.2201C59.674 34.3373 59.9363 34.3924 60.1997 34.38H61.9197C62.1397 34.38 62.2297 34.3 62.2297 34.08V30.58C62.2297 30.33 62.1297 30.25 61.8897 30.26H60.0897C59.8477 30.2564 59.6086 30.3129 59.3939 30.4247C59.1792 30.5364 58.9956 30.6997 58.8597 30.9C58.7959 31.0166 58.6905 31.105 58.5646 31.1476C58.4386 31.1902 58.3012 31.1839 58.1797 31.13Z" fill="#E6D4CB" stroke="black" stroke-width="0.16" stroke-miterlimit="10"/>
<g style="mix-blend-mode:darken" opacity="0.6">
<path d="M63.54 30.4693C63.54 29.8993 63.54 29.9193 64.09 29.8693C67.22 29.5793 72.3401 29.2493 75.4601 28.9493L77.22 28.7793C77.62 28.7793 77.8201 28.9193 77.8201 29.3393C77.8201 30.3393 77.8201 34.2593 77.8201 35.2193C77.8201 35.7393 77.6201 35.8393 77.1301 35.8393C77.4001 35.8393 77.35 35.4793 77.35 35.4793V29.8693C77.35 29.4493 77.1501 29.2793 76.7401 29.3093L64.04 30.3093C63.59 30.3693 63.54 30.4093 63.54 30.4693Z" fill="#D5B8A9"/>
</g>
<path d="M77.8202 32.35C77.8202 33.35 77.8202 34.26 77.8202 35.22C77.8202 35.75 77.6502 35.89 77.1302 35.85C73.9102 35.54 68.7001 35.27 65.4901 34.97C64.9401 34.97 64.4001 34.84 63.8501 34.81C63.5901 34.81 63.5301 34.68 63.5401 34.45C63.5601 34.2372 63.5601 34.0229 63.5401 33.81C63.5401 33.67 63.4802 33.46 63.3902 33.42C63.0802 33.27 63.1201 33.02 63.1201 32.77V32C63.093 31.8593 63.1037 31.7138 63.1511 31.5786C63.1985 31.4433 63.281 31.323 63.3902 31.23C63.5502 31.11 63.5401 30.74 63.5501 30.48C63.5501 29.92 63.5501 29.93 64.1001 29.88C67.2301 29.58 72.3501 29.25 75.4701 28.96L77.2301 28.79C77.6401 28.79 77.8302 28.92 77.8302 29.34C77.8302 30.34 77.8302 31.34 77.8302 32.34L77.8202 32.35ZM76.5501 32.35C76.5501 31.83 76.5501 31.35 76.5501 30.77C76.5501 30.19 76.4001 30.21 75.9801 30.25L73.5802 30.46C73.1402 30.46 73.0202 30.65 73.0102 31.12C73.0102 31.94 73.0102 32.77 73.0102 33.59C73.0102 34.08 73.1401 34.21 73.6201 34.25L75.9301 34.48C76.4101 34.48 76.5602 34.39 76.5702 33.89L76.5501 32.35Z" stroke="black" stroke-width="0.16" stroke-miterlimit="10"/>
<g style="mix-blend-mode:darken" opacity="0.6">
<path d="M54.2402 31.71H59.8402V33.03" stroke="#D5B8A9" stroke-width="0.16" stroke-miterlimit="10"/>
</g>
<g style="mix-blend-mode:darken" opacity="0.6">
<path d="M58.2998 31.0996C58.3895 30.7759 58.5808 30.4895 58.8454 30.2825C59.11 30.0755 59.434 29.9588 59.7698 29.9496C60.6498 29.8696 61.3898 29.9496 62.2898 29.9496C62.4698 29.9496 62.5798 30.0296 62.5798 30.2096C62.5798 31.6996 62.5798 33.0496 62.5798 34.5496C62.5798 34.7996 62.5798 34.9296 62.1998 34.9396" stroke="#D5B8A9" stroke-width="0.16" stroke-miterlimit="10"/>
</g>
<g style="mix-blend-mode:darken" opacity="0.6">
<path d="M52.04 32.3699C52.04 31.9899 52.2301 31.8699 52.5201 31.7599C53.1588 31.472 53.6733 30.9646 53.9701 30.3299C54.1701 29.9799 54.3501 29.6099 54.5201 29.2399C54.6901 28.8699 54.8401 28.7299 55.2101 28.7499C55.3966 28.7599 55.5835 28.7599 55.7701 28.7499C55.9123 28.737 56.0551 28.7685 56.1787 28.8401C56.3023 28.9118 56.4006 29.02 56.4601 29.1499C56.8401 29.8699 57.1701 30.3499 58.0901 30.3399C57.9701 30.5299 57.92 30.5099 57.89 30.6399C57.76 31.1399 57.47 31.1899 57.01 31.1699" stroke="#D5B8A9" stroke-width="0.16" stroke-miterlimit="10"/>
</g>
<g style="mix-blend-mode:darken" opacity="0.6">
<path d="M53.7803 32.9697C53.7803 33.3197 53.8403 33.6197 54.1803 33.6097C55.2303 33.6097 56.2703 33.6097 57.3103 33.6097C57.6003 33.6097 57.7803 33.6697 57.8703 33.9797C57.9238 34.1498 58.0012 34.3114 58.1003 34.4597" stroke="#D5B8A9" stroke-width="0.16" stroke-miterlimit="10"/>
</g>
<path d="M65.1271 32.5801V30.619H65.3646V32.3694H66.2762V32.5801H65.1271ZM68.308 31.5946C68.308 31.8025 68.2705 31.9821 68.1954 32.1335C68.1203 32.285 68.0174 32.4017 67.8865 32.4838C67.7556 32.566 67.6061 32.607 67.438 32.607C67.2699 32.607 67.1205 32.566 66.9896 32.4838C66.8587 32.4017 66.7557 32.285 66.6807 32.1335C66.6056 31.9821 66.5681 31.8025 66.5681 31.5946C66.5681 31.3868 66.6056 31.2071 66.6807 31.0557C66.7557 30.9043 66.8587 30.7875 66.9896 30.7054C67.1205 30.6233 67.2699 30.5822 67.438 30.5822C67.6061 30.5822 67.7556 30.6233 67.8865 30.7054C68.0174 30.7875 68.1203 30.9043 68.1954 31.0557C68.2705 31.2071 68.308 31.3868 68.308 31.5946ZM68.077 31.5946C68.077 31.424 68.0485 31.2799 67.9914 31.1625C67.9349 31.0451 67.8583 30.9563 67.7614 30.896C67.6651 30.8356 67.5574 30.8055 67.438 30.8055C67.3187 30.8055 67.2106 30.8356 67.1137 30.896C67.0175 30.9563 66.9408 31.0451 66.8837 31.1625C66.8273 31.2799 66.799 31.424 66.799 31.5946C66.799 31.7653 66.8273 31.9093 66.8837 32.0267C66.9408 32.1441 67.0175 32.233 67.1137 32.2933C67.2106 32.3536 67.3187 32.3838 67.438 32.3838C67.5574 32.3838 67.6651 32.3536 67.7614 32.2933C67.8583 32.233 67.9349 32.1441 67.9914 32.0267C68.0485 31.9093 68.077 31.7653 68.077 31.5946ZM70.0566 31.2251C70.0354 31.1603 70.0075 31.1022 69.9729 31.0509C69.9389 30.9989 69.8981 30.9547 69.8507 30.9181C69.8038 30.8815 69.7506 30.8536 69.6909 30.8344C69.6312 30.8151 69.5658 30.8055 69.4946 30.8055C69.3778 30.8055 69.2716 30.8356 69.176 30.896C69.0805 30.9563 69.0044 31.0451 68.948 31.1625C68.8915 31.2799 68.8633 31.424 68.8633 31.5946C68.8633 31.7653 68.8918 31.9093 68.9489 32.0267C69.006 32.1441 69.0833 32.233 69.1809 32.2933C69.2784 32.3536 69.3881 32.3838 69.51 32.3838C69.6229 32.3838 69.7223 32.3597 69.8083 32.3116C69.8949 32.2628 69.9623 32.1942 70.0104 32.1056C70.0592 32.0165 70.0836 31.9116 70.0836 31.7909L70.1567 31.8063H69.5639V31.5946H70.3145V31.8063C70.3145 31.9687 70.2799 32.1098 70.2106 32.2298C70.1419 32.3498 70.047 32.4428 69.9257 32.5089C69.8051 32.5743 69.6665 32.607 69.51 32.607C69.3355 32.607 69.1821 32.566 69.05 32.4838C68.9185 32.4017 68.8158 32.285 68.742 32.1335C68.6689 31.9821 68.6323 31.8025 68.6323 31.5946C68.6323 31.4387 68.6532 31.2985 68.6949 31.1741C68.7372 31.049 68.7969 30.9425 68.8739 30.8546C68.9509 30.7667 69.042 30.6993 69.1472 30.6525C69.2524 30.6056 69.3682 30.5822 69.4946 30.5822C69.5985 30.5822 69.6954 30.5979 69.7852 30.6294C69.8757 30.6602 69.9562 30.7041 70.0268 30.7612C70.098 30.8177 70.1573 30.8854 70.2048 30.9643C70.2523 31.0426 70.285 31.1295 70.303 31.2251H70.0566ZM72.3862 31.5946C72.3862 31.8025 72.3487 31.9821 72.2736 32.1335C72.1986 32.285 72.0956 32.4017 71.9647 32.4838C71.8338 32.566 71.6844 32.607 71.5163 32.607C71.3482 32.607 71.1987 32.566 71.0678 32.4838C70.9369 32.4017 70.834 32.285 70.7589 32.1335C70.6838 31.9821 70.6463 31.8025 70.6463 31.5946C70.6463 31.3868 70.6838 31.2071 70.7589 31.0557C70.834 30.9043 70.9369 30.7875 71.0678 30.7054C71.1987 30.6233 71.3482 30.5822 71.5163 30.5822C71.6844 30.5822 71.8338 30.6233 71.9647 30.7054C72.0956 30.7875 72.1986 30.9043 72.2736 31.0557C72.3487 31.2071 72.3862 31.3868 72.3862 31.5946ZM72.1553 31.5946C72.1553 31.424 72.1267 31.2799 72.0696 31.1625C72.0132 31.0451 71.9365 30.9563 71.8396 30.896C71.7434 30.8356 71.6356 30.8055 71.5163 30.8055C71.3969 30.8055 71.2888 30.8356 71.1919 30.896C71.0957 30.9563 71.019 31.0451 70.9619 31.1625C70.9055 31.2799 70.8773 31.424 70.8773 31.5946C70.8773 31.7653 70.9055 31.9093 70.9619 32.0267C71.019 32.1441 71.0957 32.233 71.1919 32.2933C71.2888 32.3536 71.3969 32.3838 71.5163 32.3838C71.6356 32.3838 71.7434 32.3536 71.8396 32.2933C71.9365 32.233 72.0132 32.1441 72.0696 32.0267C72.1267 31.9093 72.1553 31.7653 72.1553 31.5946Z" fill="#271414"/>
<path d="M65.1271 32.5801H65.0873V32.6199H65.1271V32.5801ZM65.1271 30.619V30.5792H65.0873V30.619H65.1271ZM65.3646 30.619H65.4044V30.5792H65.3646V30.619ZM65.3646 32.3694H65.3248V32.4092H65.3646V32.3694ZM66.2762 32.3694H66.316V32.3296H66.2762V32.3694ZM66.2762 32.5801V32.6199H66.316V32.5801H66.2762ZM65.1669 32.5801V30.619H65.0873V32.5801H65.1669ZM65.1271 30.6588H65.3646V30.5792H65.1271V30.6588ZM65.3248 30.619V32.3694H65.4044V30.619H65.3248ZM65.3646 32.4092H66.2762V32.3296H65.3646V32.4092ZM66.2364 32.3694V32.5801H66.316V32.3694H66.2364ZM66.2762 32.5403H65.1271V32.6199H66.2762V32.5403ZM68.1954 32.1335L68.1597 32.1159V32.1159L68.1954 32.1335ZM67.8865 32.4838L67.9076 32.5176L67.8865 32.4838ZM66.9896 32.4838L66.9684 32.5176L66.9896 32.4838ZM66.6807 32.1335L66.7163 32.1159L66.6807 32.1335ZM67.8865 30.7054L67.9076 30.6717L67.8865 30.7054ZM68.1954 31.0557L68.1597 31.0734V31.0734L68.1954 31.0557ZM67.9914 31.1625L67.9555 31.1798L67.9556 31.1799L67.9914 31.1625ZM67.7614 30.896L67.7402 30.9297L67.7403 30.9297L67.7614 30.896ZM67.1137 30.896L67.0927 30.8622L67.0926 30.8622L67.1137 30.896ZM66.8837 31.1625L66.8479 31.1451L66.8478 31.1453L66.8837 31.1625ZM66.8837 32.0267L66.8478 32.044L66.8479 32.0441L66.8837 32.0267ZM67.1137 32.2933L67.0926 32.327L67.0927 32.3271L67.1137 32.2933ZM67.7614 32.2933L67.7403 32.2595L67.7402 32.2596L67.7614 32.2933ZM67.9914 32.0267L67.9556 32.0093L67.9555 32.0095L67.9914 32.0267ZM68.2682 31.5946C68.2682 31.7977 68.2315 31.9711 68.1597 32.1159L68.2311 32.1512C68.3094 31.9932 68.3478 31.8072 68.3478 31.5946H68.2682ZM68.1597 32.1159C68.0876 32.2613 67.9894 32.3723 67.8653 32.4501L67.9076 32.5176C68.0453 32.4312 68.1531 32.3086 68.2311 32.1512L68.1597 32.1159ZM67.8653 32.4501C67.7413 32.5279 67.5993 32.5672 67.438 32.5672V32.6468C67.6129 32.6468 67.7699 32.604 67.9076 32.5176L67.8653 32.4501ZM67.438 32.5672C67.2767 32.5672 67.1347 32.5279 67.0107 32.4501L66.9684 32.5176C67.1062 32.604 67.2631 32.6468 67.438 32.6468V32.5672ZM67.0107 32.4501C66.8866 32.3723 66.7884 32.2613 66.7163 32.1159L66.645 32.1512C66.723 32.3086 66.8307 32.4312 66.9684 32.5176L67.0107 32.4501ZM66.7163 32.1159C66.6445 31.9711 66.6079 31.7977 66.6079 31.5946H66.5283C66.5283 31.8072 66.5667 31.9932 66.645 32.1512L66.7163 32.1159ZM66.6079 31.5946C66.6079 31.3915 66.6445 31.2182 66.7163 31.0734L66.645 31.038C66.5667 31.196 66.5283 31.382 66.5283 31.5946H66.6079ZM66.7163 31.0734C66.7884 30.9279 66.8866 30.817 67.0107 30.7391L66.9684 30.6717C66.8307 30.7581 66.723 30.8807 66.645 31.038L66.7163 31.0734ZM67.0107 30.7391C67.1347 30.6613 67.2767 30.622 67.438 30.622V30.5424C67.2631 30.5424 67.1062 30.5852 66.9684 30.6717L67.0107 30.7391ZM67.438 30.622C67.5993 30.622 67.7413 30.6613 67.8653 30.7391L67.9076 30.6717C67.7699 30.5852 67.6129 30.5424 67.438 30.5424V30.622ZM67.8653 30.7391C67.9894 30.817 68.0876 30.9279 68.1597 31.0734L68.2311 31.038C68.1531 30.8807 68.0453 30.7581 67.9076 30.6717L67.8653 30.7391ZM68.1597 31.0734C68.2315 31.2182 68.2682 31.3915 68.2682 31.5946H68.3478C68.3478 31.382 68.3094 31.196 68.2311 31.038L68.1597 31.0734ZM68.1168 31.5946C68.1168 31.4197 68.0876 31.2694 68.0272 31.1451L67.9556 31.1799C68.0094 31.2905 68.0372 31.4282 68.0372 31.5946H68.1168ZM68.0273 31.1453C67.968 31.022 67.8866 30.927 67.7824 30.8622L67.7403 30.9297C67.8299 30.9855 67.9019 31.0682 67.9555 31.1798L68.0273 31.1453ZM67.7825 30.8622C67.6796 30.7977 67.5644 30.7657 67.438 30.7657V30.8453C67.5503 30.8453 67.6507 30.8735 67.7402 30.9297L67.7825 30.8622ZM67.438 30.7657C67.3116 30.7657 67.1962 30.7977 67.0927 30.8622L67.1347 30.9297C67.225 30.8735 67.3258 30.8453 67.438 30.8453V30.7657ZM67.0926 30.8622C66.9891 30.9271 66.9078 31.022 66.8479 31.1451L66.9195 31.1799C66.9738 31.0682 67.0458 30.9855 67.1348 30.9297L67.0926 30.8622ZM66.8478 31.1453C66.7881 31.2695 66.7592 31.4198 66.7592 31.5946H66.8388C66.8388 31.4282 66.8664 31.2904 66.9196 31.1798L66.8478 31.1453ZM66.7592 31.5946C66.7592 31.7695 66.7881 31.9198 66.8478 32.044L66.9196 32.0095C66.8664 31.8988 66.8388 31.7611 66.8388 31.5946H66.7592ZM66.8479 32.0441C66.9078 32.1672 66.9891 32.2622 67.0926 32.327L67.1348 32.2596C67.0458 32.2038 66.9738 32.121 66.9195 32.0093L66.8479 32.0441ZM67.0927 32.3271C67.1962 32.3915 67.3116 32.4236 67.438 32.4236V32.344C67.3258 32.344 67.225 32.3157 67.1347 32.2595L67.0927 32.3271ZM67.438 32.4236C67.5644 32.4236 67.6796 32.3915 67.7825 32.327L67.7402 32.2596C67.6507 32.3157 67.5503 32.344 67.438 32.344V32.4236ZM67.7824 32.3271C67.8866 32.2622 67.968 32.1672 68.0273 32.044L67.9555 32.0095C67.9019 32.1211 67.8299 32.2037 67.7403 32.2595L67.7824 32.3271ZM68.0272 32.0441C68.0876 31.9199 68.1168 31.7695 68.1168 31.5946H68.0372C68.0372 31.761 68.0094 31.8987 67.9556 32.0093L68.0272 32.0441ZM70.0566 31.2251L70.0188 31.2374L70.0277 31.2649H70.0566V31.2251ZM69.9729 31.0509L69.9396 31.0727L69.9399 31.0732L69.9729 31.0509ZM69.8507 30.9181L69.8262 30.9495L69.8264 30.9496L69.8507 30.9181ZM69.6909 30.8344L69.7031 30.7965V30.7965L69.6909 30.8344ZM68.948 31.1625L68.9838 31.1798L68.948 31.1625ZM68.9489 32.0267L68.9131 32.0441L68.9489 32.0267ZM69.1809 32.2933L69.1599 32.3271L69.1809 32.2933ZM69.8083 32.3116L69.8278 32.3463L69.8278 32.3463L69.8083 32.3116ZM70.0104 32.1056L69.9755 32.0865L69.9754 32.0866L70.0104 32.1056ZM70.0836 31.7909L70.0918 31.752L70.0438 31.7419V31.7909H70.0836ZM70.1567 31.8063V31.8461H70.5389L70.1649 31.7674L70.1567 31.8063ZM69.5639 31.8063H69.5241V31.8461H69.5639V31.8063ZM69.5639 31.5946V31.5548H69.5241V31.5946H69.5639ZM70.3145 31.5946H70.3543V31.5548H70.3145V31.5946ZM70.2106 32.2298L70.1761 32.2099L70.176 32.21L70.2106 32.2298ZM69.9257 32.5089L69.9447 32.5438L69.9448 32.5438L69.9257 32.5089ZM69.05 32.4838L69.0289 32.5176L69.029 32.5176L69.05 32.4838ZM68.742 32.1335L68.7062 32.1509L68.7062 32.151L68.742 32.1335ZM68.6949 31.1741L68.6572 31.1613L68.6571 31.1614L68.6949 31.1741ZM68.8739 30.8546L68.9038 30.8808L68.8739 30.8546ZM69.1472 30.6525L69.131 30.6161L69.1472 30.6525ZM69.7852 30.6294L69.7721 30.6669L69.7724 30.6671L69.7852 30.6294ZM70.0268 30.7612L70.0017 30.7922L70.002 30.7924L70.0268 30.7612ZM70.2048 30.9643L70.1707 30.9848L70.1708 30.9849L70.2048 30.9643ZM70.303 31.2251V31.2649H70.3509L70.3421 31.2177L70.303 31.2251ZM70.0944 31.2127C70.0722 31.1448 70.0428 31.0833 70.0059 31.0286L69.9399 31.0732C69.9723 31.1211 69.9986 31.1758 70.0188 31.2374L70.0944 31.2127ZM70.0062 31.0291C69.9698 30.9735 69.9261 30.9259 69.8749 30.8866L69.8264 30.9496C69.8702 30.9834 69.9079 31.0243 69.9396 31.0727L70.0062 31.0291ZM69.8752 30.8867C69.8244 30.8471 69.767 30.8171 69.7031 30.7965L69.6787 30.8722C69.7342 30.8901 69.7832 30.9159 69.8262 30.9495L69.8752 30.8867ZM69.7031 30.7965C69.639 30.7758 69.5694 30.7657 69.4946 30.7657V30.8453C69.5622 30.8453 69.6235 30.8544 69.6787 30.8722L69.7031 30.7965ZM69.4946 30.7657C69.3706 30.7657 69.257 30.7978 69.1548 30.8623L69.1973 30.9296C69.2863 30.8735 69.3851 30.8453 69.4946 30.8453V30.7657ZM69.1548 30.8623C69.052 30.9272 68.9713 31.0222 68.9121 31.1453L68.9838 31.1798C69.0376 31.0681 69.1089 30.9854 69.1973 30.9296L69.1548 30.8623ZM68.9121 31.1453C68.8524 31.2695 68.8235 31.4198 68.8235 31.5946H68.9031C68.9031 31.4282 68.9306 31.2904 68.9838 31.1798L68.9121 31.1453ZM68.8235 31.5946C68.8235 31.7695 68.8527 31.9199 68.9131 32.0441L68.9847 32.0093C68.9309 31.8987 68.9031 31.761 68.9031 31.5946H68.8235ZM68.9131 32.0441C68.9731 32.1673 69.0551 32.2623 69.1599 32.3271L69.2018 32.2594C69.1115 32.2036 69.039 32.1209 68.9847 32.0093L68.9131 32.0441ZM69.1599 32.3271C69.2641 32.3916 69.3812 32.4236 69.51 32.4236V32.344C69.395 32.344 69.2926 32.3156 69.2018 32.2594L69.1599 32.3271ZM69.51 32.4236C69.6287 32.4236 69.735 32.3982 69.8278 32.3463L69.7889 32.2769C69.7097 32.3212 69.6171 32.344 69.51 32.344V32.4236ZM69.8278 32.3463C69.9211 32.2938 69.9937 32.2197 70.0454 32.1246L69.9754 32.0866C69.9308 32.1687 69.8688 32.2319 69.7888 32.2769L69.8278 32.3463ZM70.0453 32.1247C70.0978 32.0287 70.1234 31.917 70.1234 31.7909H70.0438C70.0438 31.9061 70.0205 32.0042 69.9755 32.0865L70.0453 32.1247ZM70.0754 31.8299L70.1485 31.8453L70.1649 31.7674L70.0918 31.752L70.0754 31.8299ZM70.1567 31.7665H69.5639V31.8461H70.1567V31.7665ZM69.6037 31.8063V31.5946H69.5241V31.8063H69.6037ZM69.5639 31.6344H70.3145V31.5548H69.5639V31.6344ZM70.2747 31.5946V31.8063H70.3543V31.5946H70.2747ZM70.2747 31.8063C70.2747 31.9629 70.2414 32.0969 70.1761 32.2099L70.245 32.2497C70.3184 32.1227 70.3543 31.9744 70.3543 31.8063H70.2747ZM70.176 32.21C70.111 32.3236 70.0215 32.4114 69.9067 32.4739L69.9448 32.5438C70.0725 32.4742 70.1728 32.3759 70.2451 32.2495L70.176 32.21ZM69.9067 32.4739C69.7927 32.5357 69.6608 32.5672 69.51 32.5672V32.6468C69.6722 32.6468 69.8175 32.6129 69.9447 32.5438L69.9067 32.4739ZM69.51 32.5672C69.342 32.5672 69.1961 32.5278 69.071 32.45L69.029 32.5176C69.1682 32.6041 69.329 32.6468 69.51 32.6468V32.5672ZM69.0711 32.4501C68.9464 32.3723 68.8486 32.2614 68.7778 32.1161L68.7062 32.151C68.783 32.3085 68.8905 32.4312 69.0289 32.5176L69.0711 32.4501ZM68.7779 32.1162C68.7079 31.9713 68.6721 31.7979 68.6721 31.5946H68.5925C68.5925 31.8071 68.6299 31.9929 68.7062 32.1509L68.7779 32.1162ZM68.6721 31.5946C68.6721 31.4422 68.6925 31.3064 68.7326 31.1867L68.6571 31.1614C68.6138 31.2907 68.5925 31.4352 68.5925 31.5946H68.6721ZM68.7326 31.1868C68.7735 31.066 68.8307 30.9643 68.9038 30.8808L68.8439 30.8283C68.7631 30.9207 68.701 31.0319 68.6572 31.1613L68.7326 31.1868ZM68.9038 30.8808C68.9771 30.7972 69.0635 30.7333 69.1634 30.6888L69.131 30.6161C69.0204 30.6653 68.9247 30.7362 68.8439 30.8283L68.9038 30.8808ZM69.1634 30.6888C69.263 30.6445 69.3732 30.622 69.4946 30.622V30.5424C69.3632 30.5424 69.2418 30.5668 69.131 30.6161L69.1634 30.6888ZM69.4946 30.622C69.5945 30.622 69.6869 30.6371 69.7721 30.6669L69.7984 30.5918C69.704 30.5588 69.6026 30.5424 69.4946 30.5424V30.622ZM69.7724 30.6671C69.8587 30.6964 69.935 30.7382 70.0017 30.7922L70.0518 30.7303C69.9774 30.6701 69.8927 30.6239 69.798 30.5917L69.7724 30.6671ZM70.002 30.7924C70.0695 30.8459 70.1257 30.9099 70.1707 30.9848L70.2389 30.9438C70.189 30.8608 70.1265 30.7895 70.0515 30.73L70.002 30.7924ZM70.1708 30.9849C70.2156 31.0589 70.2467 31.1412 70.2639 31.2324L70.3421 31.2177C70.3233 31.1177 70.2889 31.0262 70.2388 30.9436L70.1708 30.9849ZM70.303 31.1853H70.0566V31.2649H70.303V31.1853ZM72.2736 32.1335L72.238 32.1159V32.1159L72.2736 32.1335ZM71.9647 32.4838L71.9859 32.5176L71.9647 32.4838ZM71.0678 32.4838L71.0467 32.5176L71.0678 32.4838ZM70.7589 32.1335L70.7945 32.1159L70.7589 32.1335ZM71.9647 30.7054L71.9859 30.6717L71.9647 30.7054ZM72.2736 31.0557L72.238 31.0734V31.0734L72.2736 31.0557ZM72.0696 31.1625L72.0338 31.1798L72.0338 31.1799L72.0696 31.1625ZM71.8396 30.896L71.8185 30.9297L71.8186 30.9297L71.8396 30.896ZM71.1919 30.896L71.1709 30.8622L71.1708 30.8622L71.1919 30.896ZM70.9619 31.1625L70.9262 31.1451L70.9261 31.1453L70.9619 31.1625ZM70.9619 32.0267L70.9261 32.044L70.9262 32.0441L70.9619 32.0267ZM71.1919 32.2933L71.1708 32.327L71.1709 32.3271L71.1919 32.2933ZM71.8396 32.2933L71.8186 32.2595L71.8185 32.2596L71.8396 32.2933ZM72.0696 32.0267L72.0338 32.0093L72.0338 32.0095L72.0696 32.0267ZM72.3464 31.5946C72.3464 31.7977 72.3098 31.9711 72.238 32.1159L72.3093 32.1512C72.3876 31.9932 72.426 31.8072 72.426 31.5946H72.3464ZM72.238 32.1159C72.1659 32.2613 72.0676 32.3723 71.9436 32.4501L71.9859 32.5176C72.1236 32.4312 72.2313 32.3086 72.3093 32.1512L72.238 32.1159ZM71.9436 32.4501C71.8196 32.5279 71.6776 32.5672 71.5163 32.5672V32.6468C71.6912 32.6468 71.8481 32.604 71.9859 32.5176L71.9436 32.4501ZM71.5163 32.5672C71.355 32.5672 71.2129 32.5279 71.089 32.4501L71.0467 32.5176C71.1844 32.604 71.3414 32.6468 71.5163 32.6468V32.5672ZM71.089 32.4501C70.9649 32.3723 70.8667 32.2613 70.7945 32.1159L70.7232 32.1512C70.8012 32.3086 70.909 32.4312 71.0467 32.5176L71.089 32.4501ZM70.7945 32.1159C70.7228 31.9711 70.6861 31.7977 70.6861 31.5946H70.6065C70.6065 31.8072 70.6449 31.9932 70.7232 32.1512L70.7945 32.1159ZM70.6861 31.5946C70.6861 31.3915 70.7228 31.2182 70.7945 31.0734L70.7232 31.038C70.6449 31.196 70.6065 31.382 70.6065 31.5946H70.6861ZM70.7945 31.0734C70.8667 30.9279 70.9649 30.817 71.089 30.7391L71.0467 30.6717C70.909 30.7581 70.8012 30.8807 70.7232 31.038L70.7945 31.0734ZM71.089 30.7391C71.2129 30.6613 71.355 30.622 71.5163 30.622V30.5424C71.3414 30.5424 71.1844 30.5852 71.0467 30.6717L71.089 30.7391ZM71.5163 30.622C71.6776 30.622 71.8196 30.6613 71.9436 30.7391L71.9859 30.6717C71.8481 30.5852 71.6912 30.5424 71.5163 30.5424V30.622ZM71.9436 30.7391C72.0676 30.817 72.1659 30.9279 72.238 31.0734L72.3093 31.038C72.2313 30.8807 72.1236 30.7581 71.9859 30.6717L71.9436 30.7391ZM72.238 31.0734C72.3098 31.2182 72.3464 31.3915 72.3464 31.5946H72.426C72.426 31.382 72.3876 31.196 72.3093 31.038L72.238 31.0734ZM72.1951 31.5946C72.1951 31.4197 72.1658 31.2694 72.1054 31.1451L72.0338 31.1799C72.0876 31.2905 72.1155 31.4282 72.1155 31.5946H72.1951ZM72.1055 31.1453C72.0462 31.022 71.9648 30.927 71.8606 30.8622L71.8186 30.9297C71.9082 30.9855 71.9801 31.0682 72.0338 31.1798L72.1055 31.1453ZM71.8607 30.8622C71.7579 30.7977 71.6427 30.7657 71.5163 30.7657V30.8453C71.6285 30.8453 71.7289 30.8735 71.8185 30.9297L71.8607 30.8622ZM71.5163 30.7657C71.3899 30.7657 71.2744 30.7977 71.1709 30.8622L71.213 30.9297C71.3033 30.8735 71.404 30.8453 71.5163 30.8453V30.7657ZM71.1708 30.8622C71.0674 30.9271 70.986 31.022 70.9262 31.1451L70.9977 31.1799C71.0521 31.0682 71.1241 30.9855 71.2131 30.9297L71.1708 30.8622ZM70.9261 31.1453C70.8664 31.2695 70.8375 31.4198 70.8375 31.5946H70.9171C70.9171 31.4282 70.9446 31.2904 70.9978 31.1798L70.9261 31.1453ZM70.8375 31.5946C70.8375 31.7695 70.8664 31.9198 70.9261 32.044L70.9978 32.0095C70.9446 31.8988 70.9171 31.7611 70.9171 31.5946H70.8375ZM70.9262 32.0441C70.986 32.1672 71.0674 32.2622 71.1708 32.327L71.2131 32.2596C71.1241 32.2038 71.0521 32.121 70.9977 32.0093L70.9262 32.0441ZM71.1709 32.3271C71.2744 32.3915 71.3899 32.4236 71.5163 32.4236V32.344C71.404 32.344 71.3033 32.3157 71.213 32.2595L71.1709 32.3271ZM71.5163 32.4236C71.6427 32.4236 71.7579 32.3915 71.8607 32.327L71.8185 32.2596C71.7289 32.3157 71.6285 32.344 71.5163 32.344V32.4236ZM71.8606 32.3271C71.9648 32.2622 72.0462 32.1672 72.1055 32.044L72.0338 32.0095C71.9801 32.1211 71.9082 32.2037 71.8186 32.2595L71.8606 32.3271ZM72.1054 32.0441C72.1658 31.9199 72.1951 31.7695 72.1951 31.5946H72.1155C72.1155 31.761 72.0876 31.8987 72.0338 32.0093L72.1054 32.0441Z" fill="#271414"/>
<path d="M38.3398 16.79H46.5398" stroke="black" stroke-width="2.01" stroke-linecap="round" stroke-linejoin="round"/>
<path d="M69.1396 16.8193H77.3396" stroke="black" stroke-width="2.01" stroke-linecap="round" stroke-linejoin="round"/>
<path d="M73.2497 16.82V14.1C73.2497 6.87 66.3597 1 57.8597 1C49.3597 1 42.4697 6.87 42.4697 14.1V16.82" stroke="black" stroke-width="2.01" stroke-linecap="round" stroke-linejoin="round"/>
<path d="M77.3396 49.6797H69.1396" stroke="black" stroke-width="2.01" stroke-linecap="round" stroke-linejoin="round"/>
<path d="M46.5398 49.6494H38.3398" stroke="black" stroke-width="2.01" stroke-linecap="round" stroke-linejoin="round"/>
<path d="M42.4297 49.6494V52.3694C42.4297 59.5994 49.3197 65.4594 57.8197 65.4594C66.3197 65.4594 73.1797 59.5994 73.1797 52.3694V49.6494" stroke="black" stroke-width="2.01" stroke-linecap="round" stroke-linejoin="round"/>
</svg>
