<svg width="116" height="92" viewBox="0 0 116 92" fill="none" xmlns="http://www.w3.org/2000/svg">
<path d="M114.68 33.4805L96.68 90.6905H19L1 33.4805H6.33L20.33 57.9605H46.81L48.81 64.0605C48.9608 64.5179 49.2513 64.9164 49.6406 65.1999C50.0299 65.4833 50.4984 65.6374 50.98 65.6405H64.12C64.6012 65.636 65.069 65.4813 65.458 65.198C65.8471 64.9147 66.1379 64.517 66.29 64.0605L68.29 57.9605H94.57L108.57 33.4805H114.68Z" fill="#D52B3E"/>
<path d="M6.33008 33.4805L20.3301 57.9605H46.8101L46.3801 56.6905C46.263 56.3444 46.2297 55.9755 46.2829 55.614C46.3361 55.2526 46.4743 54.9089 46.6861 54.6112C46.8979 54.3136 47.1773 54.0704 47.5013 53.9016C47.8253 53.7328 48.1848 53.6433 48.5501 53.6405H66.5501C66.9146 53.6449 67.2728 53.7356 67.5955 53.905C67.9183 54.0744 68.1963 54.3178 68.407 54.6152C68.6177 54.9127 68.755 55.2558 68.8076 55.6165C68.8603 55.9772 68.8269 56.3452 68.7101 56.6905L68.2901 57.9605H94.5701L108.57 33.4805H6.33008Z" fill="#DA666A"/>
<path d="M68.7398 56.6897L68.3198 57.9596L66.3198 64.0596C66.1678 64.5162 65.8769 64.9139 65.4879 65.1972C65.0989 65.4805 64.6311 65.6351 64.1498 65.6396H51.0098C50.5283 65.6366 50.0598 65.4825 49.6704 65.199C49.2811 64.9156 48.9906 64.517 48.8398 64.0596L46.8398 57.9596L46.4098 56.6897C46.2928 56.3436 46.2595 55.9747 46.3127 55.6132C46.3659 55.2518 46.5041 54.9081 46.7159 54.6104C46.9277 54.3127 47.207 54.0695 47.5311 53.9008C47.8551 53.732 48.2145 53.6425 48.5798 53.6396H66.5798C66.9443 53.6441 67.3026 53.7347 67.6253 53.9042C67.9481 54.0736 68.2261 54.317 68.4368 54.6144C68.6474 54.9119 68.7847 55.255 68.8374 55.6157C68.8901 55.9763 68.8566 56.3444 68.7398 56.6897Z" fill="#AC2231"/>
<path d="M112.621 39.9698L96.6605 90.6898H18.9805L1.31055 34.5098L25.6505 83.5198H91.4305L112.621 39.9698Z" fill="#AC2231"/>
<path d="M47.6505 60.5297H16.6405L7.73047 35.9697L20.3105 57.9597H46.7905L47.6505 60.5297Z" fill="#AC2231"/>
<path d="M108.599 33.4805L98.8094 60.5305H67.4395L68.2995 57.9605H94.5795L108.599 33.4805Z" fill="#AC2231"/>
<path d="M69.4397 57.96L69.1497 58.84L66.9697 65.41C66.8039 65.9009 66.4897 66.3282 66.0705 66.6327C65.6513 66.9373 65.1478 67.104 64.6297 67.11H50.4997C49.9805 67.1085 49.4749 66.9435 49.0548 66.6383C48.6348 66.3331 48.3215 65.9033 48.1597 65.41L45.9697 58.84L45.6797 57.96H46.8097L48.8097 64.06C48.9604 64.5174 49.251 64.9159 49.6403 65.1994C50.0296 65.4828 50.4981 65.6369 50.9797 65.64H64.1197C64.6009 65.6354 65.0687 65.4808 65.4577 65.1975C65.8468 64.9142 66.1376 64.5165 66.2897 64.06L68.2897 57.96H69.4397Z" fill="#693838"/>
<path d="M1 33.4805L19 90.6905H96.68L114.68 33.4805H1ZM66.29 64.0605C66.1379 64.517 65.8471 64.9147 65.458 65.198C65.069 65.4813 64.6012 65.636 64.12 65.6405H51.01C50.5284 65.6374 50.0599 65.4833 49.6706 65.1999C49.2813 64.9164 48.9908 64.5179 48.84 64.0605L46.84 57.9605L46.41 56.6905C46.293 56.3444 46.2597 55.9755 46.3129 55.614C46.3661 55.2526 46.5042 54.9089 46.716 54.6112C46.9278 54.3136 47.2072 54.0704 47.5312 53.9016C47.8552 53.7328 48.2147 53.6433 48.58 53.6405H66.58C66.9445 53.6449 67.3027 53.7356 67.6255 53.905C67.9482 54.0744 68.2263 54.3178 68.4369 54.6152C68.6476 54.9127 68.7849 55.2558 68.8375 55.6165C68.8902 55.9772 68.8568 56.3452 68.74 56.6905L68.32 57.9605L66.29 64.0605Z" stroke="black" stroke-width="1.01" stroke-linejoin="round"/>
<path d="M108.6 33.4805L94.6001 57.9605H68.3201L68.7401 56.6905C68.8569 56.3452 68.8903 55.9772 68.8376 55.6165C68.7849 55.2558 68.6477 54.9127 68.437 54.6152C68.2263 54.3178 67.9483 54.0744 67.6255 53.905C67.3028 53.7356 66.9446 53.6449 66.5801 53.6405H48.5801C48.2148 53.6433 47.8553 53.7328 47.5313 53.9016C47.2073 54.0704 46.9279 54.3136 46.7161 54.6112C46.5043 54.9089 46.3661 55.2526 46.3129 55.614C46.2597 55.9755 46.293 56.3444 46.4101 56.6905L46.8401 57.9605H20.3301L6.33008 33.4805H108.6Z" stroke="black" stroke-width="1.01" stroke-linejoin="round"/>
<path d="M81.38 43.99V24.92C81.38 18.576 78.8599 12.4919 74.374 8.00601C69.8882 3.52014 63.804 1 57.46 1C51.1161 1 45.0319 3.52014 40.546 8.00601C36.0602 12.4919 33.54 18.576 33.54 24.92V43.99" stroke="black" stroke-width="2.01" stroke-linecap="round" stroke-linejoin="round"/>
<path d="M83.2399 39.6299H79.5199L77.8799 44.3699L81.3799 48.3499L84.8699 44.3699L83.2399 39.6299Z" fill="#592F2F" stroke="black" stroke-width="1.3" stroke-linejoin="round"/>
<path d="M35.4 39.6299H31.68L30.04 44.3699L33.54 48.3499L37.03 44.3699L35.4 39.6299Z" fill="#592F2F" stroke="black" stroke-width="1.3" stroke-linejoin="round"/>
</svg>
