<svg width="116" height="92" viewBox="0 0 116 92" fill="none" xmlns="http://www.w3.org/2000/svg">
<path d="M114.69 33.4805L96.68 90.6905H19L1 33.4805H114.69Z" fill="#D52B3E"/>
<g style="mix-blend-mode:darken" opacity="0.5">
<path d="M112.631 39.9698L96.6705 90.6898H18.9905L1.31055 34.5098L25.6505 83.5198H91.4305L112.631 39.9698Z" fill="#AC2231"/>
</g>
<path d="M1 33.4805L19 90.6905H96.68L114.68 33.4805H1Z" stroke="black" stroke-width="1.01" stroke-linejoin="round"/>
<path d="M72.3598 45.3604H43.3398V54.9104H72.3598V45.3604Z" fill="#E6D4CB" stroke="#271414" stroke-width="0.75" stroke-linecap="round" stroke-linejoin="round"/>
<path d="M48.6292 53V47.8044H49.2583V52.4419H51.6735V53H48.6292ZM57.0567 50.3891C57.0567 50.9398 56.9573 51.4158 56.7584 51.8169C56.5595 52.2181 56.2867 52.5275 55.94 52.745C55.5932 52.9626 55.1972 53.0714 54.7518 53.0714C54.3065 53.0714 53.9104 52.9626 53.5636 52.745C53.2169 52.5275 52.9441 52.2181 52.7452 51.8169C52.5463 51.4158 52.4469 50.9398 52.4469 50.3891C52.4469 49.8384 52.5463 49.3624 52.7452 48.9613C52.9441 48.5601 53.2169 48.2507 53.5636 48.0332C53.9104 47.8156 54.3065 47.7068 54.7518 47.7068C55.1972 47.7068 55.5932 47.8156 55.94 48.0332C56.2867 48.2507 56.5595 48.5601 56.7584 48.9613C56.9573 49.3624 57.0567 49.8384 57.0567 50.3891ZM56.4448 50.3891C56.4448 49.9369 56.3692 49.5553 56.2179 49.2443C56.0683 48.9332 55.8652 48.6978 55.6085 48.538C55.3535 48.3782 55.068 48.2983 54.7518 48.2983C54.4356 48.2983 54.1492 48.3782 53.8925 48.538C53.6376 48.6978 53.4344 48.9332 53.2832 49.2443C53.1336 49.5553 53.0588 49.9369 53.0588 50.3891C53.0588 50.8412 53.1336 51.2228 53.2832 51.5339C53.4344 51.845 53.6376 52.0804 53.8925 52.2402C54.1492 52.4 54.4356 52.4799 54.7518 52.4799C55.068 52.4799 55.3535 52.4 55.6085 52.2402C55.8652 52.0804 56.0683 51.845 56.2179 51.5339C56.3692 51.2228 56.4448 50.8412 56.4448 50.3891ZM61.6896 49.41C61.6335 49.2383 61.5595 49.0845 61.4678 48.9485C61.3777 48.8108 61.2697 48.6935 61.1439 48.5966C61.0199 48.4998 60.8788 48.4258 60.7207 48.3748C60.5626 48.3238 60.3892 48.2983 60.2005 48.2983C59.8912 48.2983 59.6099 48.3782 59.3566 48.538C59.1033 48.6978 58.9019 48.9332 58.7523 49.2443C58.6027 49.5553 58.5279 49.9369 58.5279 50.3891C58.5279 50.8412 58.6036 51.2228 58.7549 51.5339C58.9061 51.845 59.111 52.0804 59.3693 52.2402C59.6277 52.4 59.9184 52.4799 60.2413 52.4799C60.5405 52.4799 60.804 52.4161 61.0318 52.2886C61.2612 52.1594 61.4397 51.9776 61.5672 51.743C61.6964 51.5067 61.761 51.2288 61.761 50.9092L61.9547 50.95H60.3841V50.3891H62.3729V50.95C62.3729 51.3801 62.2811 51.754 62.0975 52.0719C61.9157 52.3898 61.6641 52.6362 61.3428 52.8113C61.0233 52.9847 60.6561 53.0714 60.2413 53.0714C59.779 53.0714 59.3727 52.9626 59.0226 52.745C58.6741 52.5275 58.4021 52.2181 58.2067 51.8169C58.0129 51.4158 57.916 50.9398 57.916 50.3891C57.916 49.976 57.9712 49.6046 58.0817 49.2749C58.1939 48.9434 58.352 48.6612 58.556 48.4284C58.76 48.1955 59.0013 48.017 59.2801 47.8929C59.5589 47.7688 59.8657 47.7068 60.2005 47.7068C60.4759 47.7068 60.7326 47.7484 60.9706 47.8317C61.2102 47.9133 61.4236 48.0298 61.6105 48.181C61.7992 48.3306 61.9564 48.51 62.0822 48.719C62.208 48.9264 62.2947 49.1567 62.3423 49.41H61.6896ZM67.8618 50.3891C67.8618 50.9398 67.7624 51.4158 67.5635 51.8169C67.3646 52.2181 67.0918 52.5275 66.745 52.745C66.3983 52.9626 66.0022 53.0714 65.5569 53.0714C65.1115 53.0714 64.7155 52.9626 64.3687 52.745C64.0219 52.5275 63.7491 52.2181 63.5502 51.8169C63.3514 51.4158 63.2519 50.9398 63.2519 50.3891C63.2519 49.8384 63.3514 49.3624 63.5502 48.9613C63.7491 48.5601 64.0219 48.2507 64.3687 48.0332C64.7155 47.8156 65.1115 47.7068 65.5569 47.7068C66.0022 47.7068 66.3983 47.8156 66.745 48.0332C67.0918 48.2507 67.3646 48.5601 67.5635 48.9613C67.7624 49.3624 67.8618 49.8384 67.8618 50.3891ZM67.2499 50.3891C67.2499 49.9369 67.1742 49.5553 67.0229 49.2443C66.8734 48.9332 66.6702 48.6978 66.4136 48.538C66.1586 48.3782 65.873 48.2983 65.5569 48.2983C65.2407 48.2983 64.9543 48.3782 64.6976 48.538C64.4426 48.6978 64.2395 48.9332 64.0882 49.2443C63.9386 49.5553 63.8638 49.9369 63.8638 50.3891C63.8638 50.8412 63.9386 51.2228 64.0882 51.5339C64.2395 51.845 64.4426 52.0804 64.6976 52.2402C64.9543 52.4 65.2407 52.4799 65.5569 52.4799C65.873 52.4799 66.1586 52.4 66.4136 52.2402C66.6702 52.0804 66.8734 51.845 67.0229 51.5339C67.1742 51.2228 67.2499 50.8412 67.2499 50.3891Z" fill="#271414"/>
<path d="M81.7599 43.99V24.92C81.7599 18.576 79.2398 12.4919 74.7539 8.00601C70.268 3.52014 64.1839 1 57.8399 1C51.4959 1 45.4118 3.52014 40.9259 8.00601C36.44 12.4919 33.9199 18.576 33.9199 24.92V43.99" stroke="black" stroke-width="2.01" stroke-linecap="round" stroke-linejoin="round"/>
<path d="M83.6295 39.6299H79.8995L78.2695 44.3699L81.7695 48.3499L85.2595 44.3699L83.6295 39.6299Z" fill="#592F2F" stroke="black" stroke-width="1.3" stroke-linejoin="round"/>
<path d="M35.7897 39.6299H32.0597L30.4297 44.3699L33.9297 48.3499L37.4197 44.3699L35.7897 39.6299Z" fill="#592F2F" stroke="black" stroke-width="1.3" stroke-linejoin="round"/>
</svg>
