<svg width="129" height="20" viewBox="0 0 129 20" fill="none" xmlns="http://www.w3.org/2000/svg">
<path fill-rule="evenodd" clip-rule="evenodd" d="M123.55 0.687286H128.06C127.56 1.07488 127.26 1.54959 127.26 2.19931V17.728C127.26 18.3769 127.573 18.8396 128.06 19.2264H123.55C124.037 18.8396 124.336 18.3649 124.336 17.728V2.19851C124.337 1.54879 124.049 1.07408 123.55 0.687286ZM19.0266 7.35795C18.2898 5.7716 17.4778 4.21002 16.116 3.0736C14.6671 1.84928 12.8299 1.11245 10.931 1.11245C5.88428 1.11245 3.62263 5.6717 3.62263 10.1566C3.62263 14.4921 5.78438 18.8764 10.6561 18.8764C12.6421 18.8764 14.5792 18.0149 15.8028 16.4525V12.9545C15.8028 12.0051 15.4903 11.3938 14.7535 10.8319H19.9129C19.3631 11.4561 19.0266 12.093 19.0266 12.9545V16.4525C16.6651 18.6518 13.7297 20 10.4691 20C4.7103 20 0 15.7652 0 9.86893C0 4.01023 4.64717 0 10.3317 0C13.8672 0 16.7274 1.29945 19.0266 3.91034V7.35795ZM31.6687 0.687286H36.5284C35.8659 1.17398 35.6413 1.72381 35.6413 2.53577V13.8672C35.6413 16.9767 39.2887 18.5016 41.9628 18.5016C44.5864 18.5016 48.0093 16.9656 48.0093 13.9295V2.53577C48.0093 1.77336 47.8215 1.2491 47.31 0.687286H49.9584C49.4214 1.23711 49.2216 1.78615 49.2216 2.53577V13.9295C49.2216 18.0269 44.3874 19.6004 41.0389 19.6004C37.5913 19.6004 32.5565 18.0772 32.5565 13.8672V2.53577C32.5557 1.76137 32.2433 1.18677 31.6687 0.687286ZM80.3389 7.42029C79.6899 5.78359 78.9275 4.34748 77.5905 3.16071C76.1544 1.88604 74.405 1.08687 72.4694 1.08687C67.473 1.08687 64.9117 5.45913 64.9117 9.99441C64.9117 14.5537 67.5729 18.8636 72.507 18.8636C76.18 18.8636 78.8036 16.2775 80.3397 13.1663V16.5396C78.0548 18.8012 75.1059 19.9505 71.8829 19.9505C65.9107 19.9505 61.4385 16.0905 61.4385 9.93207C61.4385 3.94869 65.7356 0.0135906 71.5951 0.0135906C74.843 0.0135906 77.9901 1.13802 80.3389 3.37409V7.42029ZM111.67 7.42029C111.021 5.78359 110.257 4.34748 108.922 3.16071C107.486 1.88604 105.736 1.08687 103.801 1.08687C98.8028 1.08687 96.2543 5.45913 96.2543 9.99441C96.2543 14.5537 98.9027 18.8636 103.838 18.8636C107.511 18.8636 110.146 16.2775 111.671 13.1663V16.5396C109.385 18.8012 106.448 19.9505 103.214 19.9505C97.2421 19.9505 92.7707 16.0905 92.7707 9.93207C92.7707 3.94869 97.0679 0.0135906 102.926 0.0135906C106.174 0.0135906 109.322 1.13802 111.671 3.37409L111.67 7.42029Z" fill="#482626"/>
</svg>
