<svg width="100" height="58" viewBox="0 0 100 58" fill="none" xmlns="http://www.w3.org/2000/svg">
<path d="M9.04849 30.9843H10.9643V34.6448H4.15036V30.9843H6.05744V28.8396H0V30.9843H1.92737V41.7659H0V43.9005H6.05744V41.7659H4.14891V36.7635H10.9628V41.7659H9.04849V43.9005H15.1204V41.7659H13.1873V30.9843H15.1219V28.8396H9.04994M82.1175 41.7659H76.147V36.7417H81.2828V34.6158H76.1456V30.9843H82.1624V33.045H84.2782V28.8396H71.9024V30.9843H73.9211V41.7659H71.9024V43.9005H84.3072V38.8821H82.1189M30.3597 38.8821H28.1715V41.7659H22.201V36.7417H27.3382V34.6158H22.201V30.9843H28.2193V33.045H30.335V28.8396H17.9593V30.9843H19.978V41.7659H17.9579V43.9005H30.3597M76.7223 28.0962H81.0625L79.9525 26.7731H75.5036M96.3771 35.2882C94.8628 34.8564 93.7933 34.9549 92.2529 34.4405C90.8617 33.9739 90.5863 33.1189 90.5863 32.5523C90.5863 31.9828 91.2008 30.5061 93.3861 30.5061C95.5743 30.5061 97.0061 31.9523 97.0872 33.2261L97.0959 33.2203V33.2261H99.1972V28.8352H97.164V29.7917L97.2278 30.0902C97.2133 30.0467 97.1553 29.9264 96.9408 29.7134C96.9379 29.7091 96.9379 29.7062 96.9379 29.7018C96.2931 29.1222 95.0642 28.4903 93.2165 28.4903C90.9776 28.4903 88.3401 29.8786 88.3401 32.5624C88.3401 35.1781 90.2298 36.0911 91.8326 36.5142C93.4383 36.9403 94.257 36.9403 95.596 37.3025C96.9322 37.6648 97.7987 38.4706 97.7987 39.6646C97.7987 40.795 97.1031 42.2774 94.2744 42.2774C91.4413 42.2774 90.3226 40.7501 89.9951 38.5647L89.9719 38.5749H87.9721V43.9048H90.0617V42.9078L90.0559 42.9006L89.9806 42.6368C89.9806 42.6368 90.0559 42.8151 90.2936 42.9803L90.3139 43.0093C91.3718 43.8208 92.76 44.3599 94.5396 44.3599C96.5249 44.3599 100 43.3411 100 39.7328C99.9942 37.1504 98.6233 35.9331 96.3771 35.2868V35.2882ZM62.9366 41.7659V43.9005H69.0809V41.7659H67.0666V30.9843H69.0809V28.8396H63.5887L59.9513 37.6416L59.876 38.0735L59.8035 37.6344L56.1661 28.8381H50.6797V30.9829H52.6896V41.7645H50.6768V43.899H56.8168V41.7659H54.8967V31.8509L54.9112 31.1959L55.0894 31.7176L59.2775 41.7384H60.4687L64.6712 31.7147L64.8248 31.1872L64.848 31.7813V41.7659M20.9663 22.4981V22.9908H23.0386C22.8335 22.8364 22.6362 22.672 22.4473 22.4981H20.9663ZM76.7817 22.5068H75.7036C75.4036 22.5648 75.1819 22.8184 75.1572 22.9908H76.7803V22.5054L76.7817 22.5068ZM20.9663 24.4284H76.773V23.385H40.8805C39.9632 23.8227 38.7995 23.8024 37.8924 23.385H26.9948C25.9659 23.8371 24.7805 23.8342 23.7487 23.3894L20.9663 23.3821V24.4255V24.4284ZM36.6809 22.4981H28.2526C28.2236 22.5561 27.8382 22.8894 27.6817 22.9908H37.2171C37.0194 22.8485 36.8394 22.6831 36.6809 22.4981Z" fill="#482626"/>
<path d="M21.9223 18.6263C21.819 18.9562 21.7638 19.2993 21.7585 19.645C21.7849 20.5824 22.1758 21.4726 22.8481 22.1264C23.5204 22.7801 24.4212 23.146 25.3589 23.1462C26.2967 23.1463 27.1976 22.7809 27.8702 22.1274C28.5427 21.4739 28.934 20.5839 28.9608 19.6465C28.9608 19.2204 28.8738 18.8161 28.7376 18.4365C29.1521 18.364 29.5578 18.2771 29.9578 18.1655C30.1462 18.1147 30.1389 18.0292 29.9911 17.9843C29.4578 17.8206 28.8898 17.6945 28.3101 17.5873C27.9793 17.1116 27.5383 16.7229 27.0248 16.4544C26.5113 16.1859 25.9405 16.0456 25.3611 16.0454C24.8974 16.0454 24.4597 16.1396 24.0569 16.299C24.0511 16.2961 24.0453 16.2874 24.0424 16.2845C23.9603 16.1366 23.9137 15.9716 23.9062 15.8027C23.8986 15.6337 23.9304 15.4653 23.9989 15.3107C24.3655 14.7136 25.1785 14.4803 25.8466 14.4238C26.0712 14.4122 26.6103 14.4383 26.6682 14.502C26.7986 14.6064 27.0233 14.6441 27.2624 14.56C27.4913 14.647 27.5493 14.7151 27.8102 14.7962C30.1056 15.5788 32.6474 15.9918 35.2153 15.5208C35.6167 15.9005 35.8384 16.5671 36.1196 17.0279C36.1949 17.1438 36.2862 16.9409 37.5513 16.8975C37.9977 16.8801 38.5455 16.883 39.0222 16.8946C38.0368 17.0076 37.189 17.5612 36.6862 18.3611C35.895 18.6133 35.2849 18.8538 35.0559 18.9929C34.7748 19.1625 34.7226 19.2567 35.0559 19.3436C35.4588 19.4494 35.85 19.5175 36.2399 19.5653C36.2138 19.7247 36.1906 19.8885 36.1906 20.0551C36.1906 20.9028 36.5273 21.7157 37.1267 22.3151C37.7261 22.9145 38.539 23.2512 39.3867 23.2512C40.2343 23.2512 41.0473 22.9145 41.6467 22.3151C42.2461 21.7157 42.5828 20.9028 42.5828 20.0551C42.5828 19.5045 42.4306 18.9929 42.1857 18.5408C42.5886 18.3959 43.0117 18.2365 43.461 18.0626C43.8088 18.1887 44.045 18.3959 44.2942 18.6857C44.4971 18.9147 44.9565 18.8248 45.2289 18.7582C45.6709 18.6422 45.739 18.2901 45.7361 17.8887C45.7361 17.7061 45.7448 17.5264 45.8318 17.3815C46.3491 16.2033 48.4171 16.0483 49.4778 15.7874C49.4778 15.7874 48.9228 16.454 48.5301 16.6018C48.4504 18.322 47.791 19.8189 47.7113 21.4594C48.2113 21.4797 48.1895 22.039 48.3098 22.3578C48.1707 22.6592 47.9301 22.3578 47.7113 22.4593C46.952 22.039 47.891 21.3608 47.2708 20.8406C47.5896 19.4639 48.1113 18.1234 48.0678 16.6642C47.8693 16.6844 47.7925 16.9047 47.7099 17.0641C47.5693 18.4452 47.1708 19.7045 46.8114 20.9826C46.9708 21.0623 47.2505 21.142 47.2317 21.3826C46.7505 21.6825 47.2505 22.1651 47.0505 22.5071H42.1162L41.5684 22.9998H49.1358L49.2083 22.7216C48.0925 21.5623 48.5127 19.8233 49.03 18.5046L50.3285 16.7453C51.4081 16.3251 52.0675 15.0063 53.2065 14.5861C53.2065 15.1469 52.5066 15.3875 52.1269 15.7063C51.7298 16.6453 50.4691 16.7453 50.2894 17.7858C50.7676 18.3452 51.4849 18.7045 52.0863 19.2248C52.7065 19.6059 52.4834 20.4044 52.9848 20.8043C53.0659 20.9246 52.9848 21.1043 52.8428 21.2043C52.3167 21.3304 52.3327 21.6854 52.65 21.9811C52.8529 22.1694 53.0848 22.4158 53.0587 22.5085H49.5662C49.5662 22.6679 49.7083 22.7288 49.8619 23.0012H69.15C69.295 22.7288 68.9805 22.4071 68.8457 22.139C67.4835 21.6246 67.4908 20.3363 67.4111 18.9161C67.4256 18.8582 67.3328 18.7234 67.3473 18.4307C67.1444 18.2394 66.2488 15.9599 66.6561 14.176L66.9531 13.5891C67.2328 13.1877 66.9357 12.9732 67.1343 12.5544L71.1991 11.769C71.2716 11.7313 71.2528 11.5661 71.176 11.4907L69.9413 11.7197C68.9602 11.3067 67.5212 10.3937 66.5735 9.15472C66.8676 7.14621 66.7213 5.51738 66.5227 4.43052C67.1169 3.93781 67.6009 3.47119 67.6009 3.47119C68.011 3.71755 68.0994 3.60161 68.1559 3.46829C68.0907 3.39294 67.4821 3.13499 67.5821 2.87125C67.9661 2.97269 68.0516 2.85386 68.111 2.63939L67.8415 2.54374H67.8328L67.8762 2.39883C67.9545 2.23942 68.3168 2.39013 68.4559 2.34956C68.6979 2.20175 68.4269 1.98003 68.5081 1.78005C67.9429 1.30183 66.9227 1.28734 66.3054 0.842452C66.1141 0.485964 66.0358 0.335254 65.8358 0.19034C65.6301 0.0454256 64.7345 -0.0371754 64.5678 0.0164428C64.4041 0.0744084 64.0896 0.368584 64.0896 0.368584C63.4476 0.503354 63.0607 0.296127 62.6187 0.0280359C62.6187 0.0280359 62.7129 0.535235 63.2187 0.749707C62.7723 0.932299 62.5753 1.30908 62.5028 1.78149C61.8884 1.90612 61.8652 2.51766 61.9449 2.79589C61.442 3.09586 61.4913 3.49438 61.6695 3.89724C61.2203 4.19866 61.2884 4.6334 61.4159 4.96525C61.0392 5.19712 61.4159 5.84053 61.4739 6.21731C62.5564 5.99414 63.9085 8.38377 65.8503 8.67795C66.2155 6.97231 65.7576 6.13616 65.3373 5.29421C65.6532 5.11017 65.9967 4.85657 66.33 4.58993C66.5242 5.66954 66.6633 7.23316 66.4459 9.01995C66.4314 9.00546 66.4169 8.99386 66.4082 8.97937C66.2865 8.97937 66.1648 8.89822 66.0662 8.85909C66.0865 8.91706 66.3097 9.2721 66.2648 9.33731C66.2648 9.33731 65.6359 9.75321 64.3881 9.22862C64.0548 10.0083 59.7711 11.924 59.7711 11.924C59.9305 13.1065 60.4928 13.892 61.0725 14.5325C61.9927 15.2136 62.9752 15.5643 64.136 15.8048C64.3794 16.4337 65.1649 18.5263 65.2373 18.8625C65.3156 19.1987 65.5025 19.1987 65.5025 19.1987C65.6141 19.3494 65.9807 20.016 66.0213 20.3363L66.1126 21.4666C66.1518 21.7246 66.4894 21.5304 66.5532 21.7506L66.3967 22.51L53.5644 22.5129C53.7441 21.6144 53.2862 20.829 53.5239 20.0291C53.008 19.1306 51.6081 18.5104 51.8457 17.3308C52.5268 16.3917 54.6426 15.4759 54.1644 14.3412C56.0874 13.3659 57.1018 14.9933 58.9234 14.873C59.5581 14.8382 60.2653 14.7687 60.8464 14.5977C60.1276 13.9746 59.4407 13.0587 59.0785 12.2399C55.2614 13.776 51.5487 15.0411 47.4099 15.8802L47.0911 15.7787C46.7766 15.8266 42.2176 16.8511 41.009 17.3221C40.6917 17.1312 40.3435 16.9974 39.9801 16.9265H40.0859C40.4728 16.9265 41.0641 16.7207 41.4829 16.5743C43.2537 15.928 43.9059 13.4065 44.7 11.8037C45.3956 14.2963 47.0099 14.4991 47.9461 14.189L48.033 14.9716C48.033 14.9716 48.8504 14.9426 49.4648 14.6962C49.4025 14.5484 49.3199 14.1528 49.2619 13.6326C49.6343 13.4398 49.8358 13.2993 50.0053 13.2007C50.056 13.792 50.0923 14.3499 49.9155 14.6499L52.0225 14.0876C52.4283 12.266 53.5297 9.73437 55.4759 7.88527C52.8631 6.84624 50.9052 8.03308 50.4082 8.5084C47.949 9.29383 47.8504 12.6877 47.9243 13.8557C47.4983 13.9398 45.71 14.56 44.8637 11.4646C45.3565 10.2764 46.2912 8.95474 47.3418 7.9244C47.4331 7.84759 47.3273 7.72587 47.1172 7.84904C45.0058 9.29818 44.2334 11.8487 43.0987 14.0021C42.2089 15.3396 41.0076 16.0642 39.2063 15.9874C36.9572 15.9526 35.8689 13.6065 34.8385 12.0834C33.259 8.62433 29.1724 9.86624 26.1349 9.12718C25.9654 9.04023 25.6277 8.04033 25.1437 8.07801C24.8003 8.10409 25.1234 8.45768 24.9263 8.57651C24.5452 8.4171 24.225 8.13742 23.7467 8.21712C23.4468 8.27799 23.3656 8.5968 23.3874 8.87793C23.6265 9.97638 24.8046 10.4575 25.6843 10.8575C26.0219 11.3618 25.8958 13.1036 25.6147 13.7021C25.2524 14.3687 23.8279 14.1311 23.5424 15.6585C23.4873 15.9686 23.5569 16.2381 23.6844 16.4917C23.1312 16.7827 22.6629 17.212 22.3251 17.738C21.7208 17.8829 21.131 18.0452 20.5803 18.2423C20.4354 18.2944 20.4354 18.3785 20.6238 18.422C21.0484 18.5089 21.4846 18.5814 21.9252 18.6364L21.9223 18.6263ZM66.9241 10.0735C67.4458 10.643 68.6921 11.5081 69.4891 11.7907L67.1806 12.2182C67.4415 11.24 66.5532 10.8647 66.9241 10.0735ZM67.1734 2.15682C67.2603 2.12059 67.5038 2.21479 67.6038 2.24087C67.6647 2.25536 67.6415 2.38579 67.611 2.50172C67.4603 2.5336 67.2256 2.451 67.1937 2.37129C67.1502 2.28435 67.0879 2.1945 67.1734 2.15682ZM67.1922 2.75097C67.2212 2.92052 67.2908 3.11325 67.3908 3.25817C67.3879 3.33642 66.9604 3.73204 66.4677 4.14939C66.3459 3.5451 66.2213 3.12919 66.1923 2.96399C66.388 2.82488 66.9169 2.67416 67.1922 2.75097ZM64.9823 0.630878C65.0692 0.601895 65.246 0.659861 65.2939 0.69464C65.3417 0.730869 65.3026 0.877232 65.2997 0.926502C65.2997 0.975773 65.0794 1.08011 65.0794 1.08011C65.0794 1.08011 64.8707 0.920706 64.8736 0.871435L64.8635 0.867088C64.8976 0.785724 64.9373 0.706801 64.9823 0.630878ZM65.2533 5.09858C64.9808 4.5479 64.7606 3.96535 64.8185 3.11325C65.0823 3.10891 65.4649 3.28135 65.9706 3.05239C65.9706 3.05239 66.1271 3.52481 66.2822 4.29865C65.9054 4.61311 65.5141 4.91888 65.2533 5.09858ZM61.7971 14.6774C60.971 14.2629 61.4855 14.6107 61.7246 14.431C63.0332 15.0339 63.6925 14.8948 64.6722 14.7759C64.8127 14.9556 65.0055 15.1237 65.0055 15.3628C63.807 15.7034 62.8752 15.2614 61.7956 14.6788L61.7971 14.6774ZM66.5111 21.1261C66.4343 20.4913 66.3981 20.0421 66.1054 19.7392C65.8735 19.1074 65.2011 17.3511 64.7229 15.7686C65.0127 15.4817 65.2373 15.6309 65.4301 16.4178C65.6141 17.0525 65.8358 17.5771 66.0039 18.1075C66.2271 18.6408 66.3952 19.3509 66.5662 19.7247C66.5662 19.7247 66.7169 19.7508 66.801 19.9523C67.2212 21.1261 67.3314 21.3144 67.2604 21.8738C67.3618 22.3129 67.9791 21.955 67.9226 22.4969H66.6126L67.1893 22.4926C66.7923 22.0723 67.0734 21.4463 66.5111 21.1261ZM40.9597 22.1767C40.5974 22.4477 40.1627 22.6201 39.6888 22.6752C39.6425 22.6607 39.6019 22.5665 39.599 22.5085L39.5236 20.8754C39.5207 20.858 39.5497 20.8391 39.5671 20.8319C39.6077 20.8174 39.7193 20.7739 39.7642 20.7478C39.7816 20.7377 39.8265 20.7333 39.841 20.7478L40.9134 21.9912C40.951 22.0376 40.9858 22.139 40.9568 22.1796L40.9597 22.1767ZM39.3019 22.6984C38.8672 22.6839 38.4614 22.5607 38.1035 22.3622C38.0745 22.3216 38.0846 22.2144 38.118 22.1665L39.0135 20.8015C39.0222 20.787 39.057 20.787 39.0773 20.7928C39.115 20.8043 39.2034 20.829 39.2541 20.8362C39.2744 20.8362 39.3121 20.8652 39.3121 20.8841L39.3918 22.5216C39.3947 22.5795 39.3483 22.681 39.3005 22.6955L39.3019 22.6984ZM37.0412 19.2972C36.9833 19.2799 36.8963 19.2016 36.8992 19.1523C36.9818 18.9263 37.0876 18.7132 37.2253 18.5205C37.4426 18.4582 37.6673 18.3988 37.8919 18.3408L38.6165 19.2538L38.5831 19.2581C38.1136 19.3161 37.6745 19.3451 37.2586 19.3509L37.0412 19.2929V19.2972ZM39.0802 17.4279C39.1237 17.4452 39.1671 17.538 39.1671 17.5945L39.1744 17.722C38.7396 17.8061 38.3136 17.9003 37.9049 18.0046C37.8788 17.951 37.8658 17.8887 37.8875 17.8597C38.2353 17.6235 38.6411 17.4786 39.0758 17.4293L39.0802 17.4279ZM38.8512 19.2103L38.1151 18.2886C38.4715 18.2017 38.8309 18.122 39.1903 18.051L39.2396 19.1306C39.0947 19.1654 38.9744 19.1886 38.8512 19.2103ZM38.7817 19.5001C38.7788 19.5103 38.7817 19.5204 38.7759 19.5291C38.7411 19.5787 38.7096 19.6305 38.6817 19.6842C38.673 19.703 38.6382 19.7305 38.6165 19.7276L38.0875 19.5827C38.3136 19.5595 38.544 19.5393 38.7831 19.4987L38.7817 19.5001ZM39.7569 19.303C39.7482 19.3175 39.7135 19.3175 39.6932 19.3103H39.6859L39.7627 19.2929L39.7584 19.3016L39.7569 19.303ZM39.4483 19.0784L39.3976 18.0104C39.841 17.9264 40.2772 17.8568 40.6931 17.8075C40.6882 17.8519 40.6754 17.8951 40.6554 17.9351L39.9989 18.9321C39.8048 18.99 39.6251 19.035 39.4483 19.0784ZM40.8293 18.0495C40.8583 18.0017 40.951 17.9481 41.0003 17.9582C41.1887 18.1061 41.3626 18.2771 41.5075 18.4698C41.1162 18.6002 40.7105 18.7248 40.3076 18.8466L40.8293 18.0495ZM39.3802 17.6829L39.3773 17.5815C39.3744 17.5206 39.4207 17.4134 39.4671 17.4032C39.7425 17.4105 40.0033 17.4641 40.2497 17.5481C39.9598 17.5858 39.6729 17.6293 39.3802 17.6815V17.6829ZM39.3439 17.4003C39.3584 17.4003 39.37 17.396 39.3831 17.396L39.4178 17.3989H39.3425L39.3439 17.4003ZM35.5501 19.2031C35.408 19.1596 35.4414 19.1161 35.5269 19.0799C35.8124 18.9668 36.1326 18.8553 36.4688 18.7466C36.3862 18.9321 36.3239 19.1262 36.2746 19.3262C36.0299 19.3076 35.7874 19.2654 35.5501 19.2031ZM36.7746 19.6161C36.9891 19.6276 37.2093 19.6248 37.4311 19.6204L38.5556 19.9291C38.5701 19.9334 38.5817 19.9667 38.5817 19.987C38.5817 20.0305 38.5889 20.1464 38.602 20.1972C38.602 20.2174 38.5875 20.2334 38.5701 20.2406L37.0702 20.9029C37.0152 20.9246 36.9065 20.9232 36.8731 20.8855C36.7797 20.6179 36.7298 20.3371 36.7253 20.0537C36.7253 19.903 36.7456 19.7595 36.7688 19.619L36.7746 19.6161ZM36.9412 21.0898L36.9369 21.0797C36.9369 21.084 36.9398 21.0869 36.9412 21.0898ZM37.0224 21.2405C37.0224 21.1913 37.1021 21.1159 37.1528 21.0927L38.6599 20.4638C38.6744 20.4551 38.7034 20.4783 38.715 20.4928C38.7411 20.5247 38.7802 20.5725 38.8164 20.6087C38.8338 20.6232 38.8483 20.6667 38.8396 20.6812L37.9412 22.0521C37.9093 22.1013 37.8107 22.1535 37.7644 22.139C37.454 21.8985 37.2014 21.5915 37.0253 21.2405H37.0224ZM37.9165 22.2593C37.902 22.2491 37.8919 22.2404 37.8788 22.2332L37.918 22.2578L37.9165 22.2593ZM41.2641 21.9245C41.2206 21.9506 41.1119 21.8956 41.0713 21.8521L40.0033 20.6102C39.9888 20.5986 40.0004 20.5667 40.012 20.5479C40.0406 20.5052 40.0663 20.4607 40.0888 20.4145C40.0989 20.3957 40.1323 20.3682 40.154 20.3711L41.7336 20.8087C41.7829 20.8232 41.864 20.8768 41.8814 20.9246C41.7466 21.3014 41.5408 21.6463 41.2641 21.9245ZM41.9857 20.5623C41.9596 20.6058 41.8408 20.6203 41.7829 20.6058L40.2105 20.1711C40.1917 20.1667 40.1815 20.1334 40.1815 20.1131C40.1817 20.0525 40.1778 19.992 40.1699 19.932C40.1656 19.9117 40.1772 19.8682 40.1946 19.8595L41.722 19.2799C41.7756 19.2596 41.8814 19.2697 41.9176 19.3059C41.9857 19.5436 42.0336 19.7885 42.0336 20.0493C42.0336 20.2232 42.0147 20.3971 41.9828 20.5638L41.9857 20.5623ZM41.7829 18.9321C41.7829 18.9828 41.7031 19.0625 41.6495 19.0842L41.751 19.0494L40.1236 19.661C40.1062 19.6682 40.0801 19.6465 40.0685 19.632C40.0326 19.583 39.9939 19.536 39.9526 19.4914C39.9337 19.4769 39.9207 19.4364 39.9279 19.419L40.0685 19.2059C40.5641 19.0755 41.0974 18.9074 41.6626 18.7132C41.706 18.7857 41.7495 18.8582 41.7843 18.9335L41.7829 18.9321ZM46.0289 16.5989C45.3217 17.109 45.655 17.7104 45.2173 17.8307C45.0579 17.8075 44.1682 17.9698 44.029 18.0336C43.7291 17.7539 43.4233 17.5177 42.9625 17.396C43.8392 17.0366 45.2289 16.6801 46.0289 16.5989ZM43.1523 17.8669C43.0001 17.9394 42.5944 18.0959 42.048 18.2872C41.912 18.0828 41.7525 17.8951 41.5727 17.7278C42.2567 17.6916 42.8146 17.7278 43.1523 17.8669ZM50.7864 8.91416C49.7169 9.98942 49.8546 11.5951 49.9792 12.8587C49.7329 13.0384 49.4286 13.1891 49.2315 13.2993C49.1155 11.7487 49.2808 9.43585 50.7864 8.91416ZM24.0206 9.45904C23.8409 9.21848 23.5772 8.8504 23.7815 8.5997C23.9322 8.41421 24.2394 8.55912 24.4191 8.64027C24.5713 8.71998 25.7698 9.36484 26.0958 9.45469C28.5159 10.0575 31.5736 9.16921 33.4923 10.9082C33.5865 10.9951 33.6546 11.0777 33.6343 11.198C30.8186 9.27934 26.5784 12.1168 24.0206 9.45904ZM26.2987 12.5573C26.4987 12.6776 26.5784 12.9964 26.7986 13.1761C27.158 13.776 27.8377 13.976 28.1971 14.4948C28.0757 14.5043 27.9536 14.4955 27.8348 14.4687C27.6 14.4223 27.5073 14.3528 27.3102 14.2658C27.2059 14.0963 26.9436 14.0398 26.7378 14.1499C26.574 14.1789 26.1204 14.1571 25.819 14.0774C25.877 13.5963 26.3407 13.1355 26.2972 12.5558L26.2987 12.5573ZM23.4815 17.7307L24.2177 18.5495C23.6844 18.5451 23.17 18.5205 22.6816 18.4872C22.6439 18.435 22.6236 18.3857 22.6338 18.3568C22.728 18.1597 22.8425 17.9771 22.9743 17.8061C23.1381 17.7771 23.3105 17.7554 23.4815 17.7336V17.7307ZM27.8464 17.9336C27.9362 18.064 28.0087 18.2031 28.0782 18.3466C27.716 18.4002 27.3305 18.4408 26.9247 18.4727L27.5 17.98C27.645 17.864 27.8102 17.8887 27.8464 17.9336ZM27.3392 17.8061L26.5219 18.5017C26.3132 18.5162 26.1016 18.522 25.8886 18.5306L26.2219 17.5829C26.6363 17.5974 27.0392 17.6264 27.4145 17.6641C27.3971 17.7148 27.3827 17.7655 27.3421 17.8061H27.3392ZM27.1392 22.0738C26.8494 22.2854 26.5219 22.4419 26.1683 22.5419C26.1045 22.5332 25.9828 22.4346 25.948 22.2897L25.6292 20.5609C25.6234 20.5392 25.6321 20.5116 25.6538 20.5029C25.7149 20.4831 25.7733 20.4559 25.8277 20.4218C25.8466 20.4073 25.8712 20.4174 25.8857 20.4334L27.0667 21.7318C27.1827 21.868 27.1783 22.0245 27.1392 22.0723V22.0738ZM24.638 19.0161C24.6525 19.0306 24.6583 19.0625 24.6452 19.0799C24.609 19.1233 24.5959 19.1378 24.567 19.1915C24.5568 19.2117 24.5322 19.2146 24.509 19.2059L23.1932 18.7364C23.5989 18.7596 24.0076 18.7698 24.4148 18.7698L24.638 19.0161ZM25.9422 18.9509C25.9026 18.9145 25.8588 18.8829 25.8118 18.8567C25.7886 18.8451 25.7828 18.8277 25.7915 18.8031L25.8161 18.7364L26.2741 18.7132L25.9987 18.9451C25.9842 18.9596 25.9596 18.9654 25.9422 18.9509ZM25.6306 18.5379C25.5147 18.5408 25.4046 18.548 25.2915 18.5495H25.2857L25.1046 17.5786C25.1626 17.5757 25.2133 17.5684 25.2698 17.5641C25.5089 17.5641 25.7422 17.5728 25.977 17.5786L25.6292 18.5393L25.6306 18.5379ZM24.8655 17.5931L25.0423 18.5495C24.8756 18.5524 24.709 18.5524 24.5394 18.5495L23.7569 17.6945C24.1163 17.651 24.4844 17.6177 24.8655 17.5931ZM25.0611 18.7669C25.0568 18.7727 25.0611 18.7842 25.0524 18.7871C24.9916 18.8089 24.9333 18.8371 24.8785 18.8712C24.8582 18.8857 24.8351 18.8755 24.8206 18.8596L24.7394 18.7698C24.8466 18.7669 24.9568 18.7698 25.0626 18.7654L25.0611 18.7669ZM22.5686 18.477C22.5729 18.4654 22.5831 18.4524 22.5874 18.4379C22.5823 18.4519 22.576 18.4655 22.5686 18.4785V18.477ZM22.4338 18.9147C22.4671 18.8611 22.6222 18.7944 22.77 18.8422L24.4264 19.4335C24.4452 19.4393 24.4626 19.4624 24.4583 19.4842C24.4488 19.5378 24.444 19.5921 24.4438 19.6465C24.4438 19.6697 24.4249 19.6827 24.4047 19.69L22.6744 20.0117C22.5034 20.0363 22.3845 19.9537 22.3599 19.8957C22.3527 19.8088 22.3353 19.7276 22.3353 19.6407C22.3353 19.39 22.3729 19.1494 22.4338 18.9147ZM22.4628 20.471C22.4686 20.4058 22.5686 20.2754 22.7178 20.2421L24.4423 19.9262C24.4531 19.9238 24.4643 19.9254 24.4739 19.9307C24.4835 19.9361 24.4909 19.9448 24.4945 19.9552C24.5119 20.0044 24.5177 20.0276 24.5496 20.0798C24.5597 20.1001 24.5539 20.1204 24.5351 20.1377L23.1627 21.242C23.0149 21.3536 22.8584 21.3289 22.8222 21.2855C22.6645 21.0323 22.5435 20.7581 22.4628 20.471ZM22.8758 21.3637C22.8613 21.3449 22.8468 21.3275 22.8352 21.3058C22.8439 21.3231 22.8628 21.3449 22.8758 21.3637ZM23.199 21.7579C23.1671 21.7086 23.1903 21.526 23.312 21.4246L24.6829 20.3305C24.6974 20.3102 24.722 20.3058 24.7409 20.3232C24.78 20.3595 24.8423 20.4058 24.8945 20.4348C24.9162 20.4464 24.9234 20.4638 24.9119 20.4899L24.3177 22.1448C24.2539 22.3115 24.1206 22.3767 24.0612 22.3651C23.7414 22.2131 23.4503 22.0072 23.2004 21.7564L23.199 21.7579ZM24.2032 22.4361C24.1847 22.4299 24.1668 22.4221 24.1496 22.4129L24.2032 22.4361ZM24.6177 22.5665C24.5626 22.5332 24.4873 22.3839 24.5336 22.2361L25.1336 20.5754C25.1394 20.5536 25.1597 20.5392 25.1814 20.5435C25.235 20.5536 25.2828 20.558 25.3452 20.558C25.3698 20.558 25.3843 20.5783 25.3886 20.6015L25.7118 22.3332C25.7379 22.4998 25.6611 22.6085 25.6031 22.6433C25.5219 22.6491 25.4408 22.6679 25.3567 22.6679C25.1002 22.6679 24.8568 22.6288 24.6206 22.5665H24.6177ZM27.4725 21.7985C27.487 21.784 27.5015 21.7695 27.5102 21.755C27.4957 21.7695 27.4855 21.784 27.4725 21.7985ZM27.5783 21.6753C27.5247 21.7086 27.3537 21.697 27.245 21.5854L26.0726 20.2754C26.0581 20.2609 26.0523 20.2319 26.0683 20.2131C26.098 20.1787 26.1233 20.1407 26.1436 20.1001C26.1538 20.0783 26.1784 20.074 26.1987 20.0856L27.8797 20.6826C28.0536 20.7507 28.0971 20.8884 28.0826 20.9435C27.9522 21.2096 27.7848 21.4559 27.5855 21.6753H27.5783ZM28.0855 20.9188C28.1101 20.8754 28.1377 20.8058 28.1652 20.7362C28.1407 20.7975 28.1141 20.8579 28.0855 20.9174V20.9188ZM28.2782 20.3725C28.255 20.4276 28.1043 20.5087 27.9493 20.4595L26.277 19.8595C26.2581 19.8537 26.2407 19.8305 26.2436 19.8088C26.2523 19.7537 26.2581 19.7276 26.2581 19.6682C26.2581 19.645 26.2784 19.632 26.2987 19.6248L28.0623 19.3494C28.2362 19.3277 28.3463 19.4103 28.3637 19.4697C28.3666 19.5277 28.3782 19.5856 28.3782 19.6436C28.3782 19.8943 28.3405 20.1363 28.2811 20.3711L28.2782 20.3725ZM28.271 18.8915C28.271 18.961 28.1695 19.0857 28.0188 19.1147L26.2654 19.39C26.2547 19.3918 26.2437 19.3899 26.2342 19.3846C26.2247 19.3794 26.2173 19.371 26.2132 19.361C26.195 19.3007 26.1707 19.2425 26.1407 19.1871C26.1262 19.1683 26.132 19.148 26.148 19.1291L26.6697 18.6828C27.1682 18.6451 27.6623 18.5886 28.1522 18.5162C28.2 18.6393 28.2348 18.7625 28.2681 18.8929L28.271 18.8915ZM29.1738 17.9843C29.2868 18.0206 29.326 18.0959 29.1825 18.135C29.0318 18.1756 28.8492 18.2075 28.6753 18.2437C28.6101 18.0901 28.5231 17.9495 28.4391 17.809C28.7115 17.8611 28.9608 17.9177 29.1724 17.9829L29.1738 17.9843ZM26.3088 17.3424L26.3813 17.1351C26.4451 16.9699 26.5842 16.9134 26.6479 16.9236C26.9291 17.0583 27.1885 17.2337 27.416 17.4452C27.0479 17.3975 26.6781 17.3637 26.3074 17.3438L26.3088 17.3424ZM26.0799 16.7192C26.1335 16.7584 26.2045 16.9149 26.1596 17.0598L26.061 17.3351C25.7929 17.3235 25.5277 17.309 25.2597 17.3119C25.1901 17.3119 25.1249 17.3264 25.0539 17.3264L24.9858 16.9554C24.9597 16.7844 25.0394 16.6743 25.0988 16.6468C25.1857 16.6395 25.2669 16.6207 25.3524 16.6207C25.6045 16.6207 25.8451 16.6613 26.0799 16.7192ZM24.5293 16.7482C24.5945 16.7555 24.7206 16.8554 24.7539 17.0033L24.7974 17.2395C24.6488 17.1025 24.512 16.9532 24.3887 16.7931L24.5307 16.7497L24.5293 16.7482ZM24.4278 17.3757C24.1467 17.4018 23.867 17.4337 23.5902 17.4771C23.5323 17.3641 23.5294 17.2598 23.5612 17.2221C23.6989 17.1206 23.8482 17.0308 24.0047 16.9525C24.1293 17.0946 24.2713 17.2366 24.4278 17.3757ZM21.3817 18.1901C21.6078 18.1089 21.8831 18.0336 22.1875 17.9611C22.1072 18.1099 22.037 18.2638 21.9773 18.422C21.7701 18.3973 21.5571 18.3741 21.3832 18.3408C21.2354 18.3147 21.2701 18.2307 21.3817 18.1901ZM74.5728 9.60685C74.5119 9.65757 74.4916 9.72713 74.5409 9.73727C74.6336 9.75466 74.6858 9.78654 74.793 9.88508C74.851 9.91407 74.8365 9.82422 74.822 9.77495C74.764 9.63583 74.6423 9.55178 74.5757 9.60685H74.5728Z" fill="#482626"/>
<path d="M72.3994 22.5069H69.5503C69.5141 22.6996 69.7387 22.8402 69.8692 22.9894H72.9805L73.85 22.5663C74.0036 22.1895 73.6935 21.8562 73.7051 21.5519C73.7572 20.6447 73.2515 19.7405 72.9848 18.9101C73.1587 18.7261 73.3761 18.3015 73.6616 18.4145C74.3282 19.4521 74.4514 20.7766 74.3383 22.0953C74.2702 22.4214 73.7152 22.7185 73.7326 23.0257C73.7427 23.1329 74.4717 23.0865 74.7731 22.83C74.8267 22.6185 75.218 22.3576 75.344 22.3272C75.4832 21.9287 75.2658 21.9417 75.3006 21.7012C75.3701 21.5345 75.2774 19.7376 75.1528 19.5448C75.1064 19.5159 75.0904 19.5159 75.0875 19.5202C74.9484 19.1637 75.2875 18.6174 75.4237 18.2797L76.4179 18.1899C76.299 17.3059 75.9831 16.3872 75.7831 15.48C75.9049 15.2684 76.1251 15.1032 76.3266 14.9829C77.3743 14.2917 76.4512 13.1773 76.4164 12.3165C76.2382 11.8702 75.6237 11.5224 75.5672 11.0297C75.6947 11.1282 75.7918 11.0877 75.8194 11.0949C76.1193 10.8891 76.1048 10.5921 75.9556 10.2196C76.4106 9.67765 76.6889 9.42839 76.7729 9.25595C76.7439 8.80237 76.015 8.12562 75.5875 8.12562C75.3353 8.26473 75.1672 8.54587 74.7035 8.90525C74.689 8.92409 74.147 8.71687 73.9833 8.89076C73.8239 9.02119 73.8789 9.44144 74.1717 9.66895C74.1354 9.78053 74.1021 9.82401 74.0413 9.95878C74.0094 10.0254 73.9949 10.0964 74.0369 10.1356C74.1326 10.2225 74.1673 10.3573 74.0992 10.5645C74.0268 10.7848 74.2731 10.9471 74.3601 10.979C74.3746 10.9833 74.4035 11.0138 74.4325 11.0514C74.4644 11.2949 73.6384 11.7325 73.6384 11.9209C73.5732 12.4904 73.2181 12.4339 72.8732 14.3047C72.9167 14.7583 72.9109 15.1597 72.879 15.5177C72.4559 16.6364 72.111 17.2813 71.8241 18.0899C71.5864 18.7565 72.9196 20.6868 72.9399 22.0026C72.6501 22.4373 72.4182 22.375 72.3994 22.5054V22.5069ZM74.5629 20.5027C74.4948 20.3245 74.4383 20.0723 74.4731 19.8854C74.589 19.7738 74.8064 19.8564 74.9165 19.839C75.0513 20.4621 75.0846 20.5491 74.5644 20.5056L74.5629 20.5027ZM74.5731 11.2905C74.6108 11.2616 74.6456 11.1688 74.6673 11.1355C75.1064 10.8543 74.8035 11.0572 74.3673 10.8268C74.2253 10.7544 74.2224 10.6181 74.2398 10.4254C74.2659 10.1863 74.1673 10.1399 74.1297 10.0631C74.1152 10.0312 74.1833 9.91386 74.2398 9.83125C74.3412 9.67765 74.4325 9.35884 74.4803 9.28058C75.2078 9.30956 75.0455 9.63127 75.0644 9.68924C75.1223 9.84575 75.4266 10.1819 75.5759 10.2877C75.5324 10.7283 75.1875 10.4689 75.3411 10.8703C75.3006 11.6325 74.3948 11.5369 74.0079 12.1629C73.9688 11.5427 74.5151 11.5441 74.5731 11.2891V11.2905ZM73.7471 14.5714C73.9442 14.7496 74.1528 14.9743 74.3036 15.0119C74.4079 15.2728 74.0862 15.309 73.9702 15.4322C73.6993 15.4728 73.5978 15.1858 73.4399 15.3162C73.4036 15.3452 73.2413 15.3119 73.2442 15.28C73.3312 15.0482 73.5732 14.7149 73.7456 14.5699L73.7471 14.5714ZM72.0298 18.4551C71.9284 17.9276 72.6298 17.1074 73.0964 15.4988C73.2877 15.4322 73.3891 15.8713 73.6616 15.7017C74.0818 15.7119 73.9021 16.806 74.2934 16.1104C74.2847 15.8032 74.276 15.4583 74.5195 15.2945C74.7832 15.2336 74.9542 15.3815 74.9716 15.6133L74.5658 16.2451C75.3339 16.2741 74.3195 17.5088 75.3339 17.2827C75.3006 17.7465 75.0513 19.0463 74.8731 18.9811C74.7339 18.2609 74.6209 18.5609 74.6209 18.7724C74.6499 19.0521 74.6441 19.2796 74.8093 19.5057C74.7542 19.5637 74.5485 19.5579 74.4905 19.5709C73.9166 18.7522 73.9398 17.6291 73.5703 16.7393C73.508 16.7364 73.4297 16.8118 73.4326 16.877C73.3891 17.4132 73.1805 18.187 72.7399 18.442C72.4646 18.6043 73.3457 18.5058 72.624 18.8449C72.8993 19.0275 72.6457 19.2753 72.3429 19.2753C72.1921 18.9536 72.0762 18.6869 72.0313 18.4536L72.0298 18.4551ZM72.7906 20.2317C72.6863 20.11 72.5254 19.7579 72.4602 19.6057L72.8805 19.4318C73.0109 19.5767 73.1413 19.8463 73.1602 20.0839C73.066 20.1346 72.9356 20.2216 72.7906 20.2317ZM59.2628 11.5949C59.2005 10.7399 59.5527 10.0153 59.1541 9.10234C59.1585 8.72556 59.4222 8.43573 59.3512 8.08794L58.7035 8.24445C58.6049 8.96322 58.4861 9.20088 58.5832 9.87763C58.7542 10.6529 58.8411 11.3586 59.2614 11.5963L59.2628 11.5949ZM52.5707 13.9859C55.0487 13.2903 56.7587 12.6962 58.8121 11.834C57.9571 10.008 58.1455 9.48056 58.218 8.31256C58.218 8.31256 57.1746 8.32705 55.9617 8.00534C54.5241 8.93279 52.846 12.2528 52.5707 13.9859ZM61.0743 14.5149C60.9409 14.3844 61.138 14.5931 61.0743 14.5149V14.5149ZM64.0523 8.97916C63.0089 8.26039 62.2003 6.58808 61.0627 6.70111C60.9525 5.46934 60.4149 3.37824 62.1162 1.17265C62.3365 1.07121 62.6959 1.03208 62.835 0.871225C62.1394 0.798768 61.2235 1.22916 60.5598 0.852386C60.5598 0.852386 60.867 1.38857 61.2235 1.46972C60.9888 1.78853 60.5337 2.01605 60.8105 2.57107C60.2425 2.90872 60.4569 3.41446 60.6323 3.6869C60.3482 3.97963 60.1758 4.50567 60.5526 4.82593C60.0888 5.32298 60.6642 5.74468 60.7989 5.91278C60.5642 6.40984 60.7902 6.79386 60.7902 6.79386C60.7815 7.1518 60.1439 7.66334 59.9135 7.82854C59.6382 8.66904 59.7439 10.3602 59.786 11.4804C61.3366 10.7384 62.8582 10.0327 64.0523 8.97916ZM46.2277 38.6894C46.2277 37.8054 45.6379 36.7621 44.8279 36.2723C44.6298 36.1521 44.4066 36.0797 44.1757 36.0607C44.3728 36.0723 44.6395 36.0578 44.8902 35.9534C44.8985 35.9501 44.9073 35.9482 44.9163 35.9476C45.7365 35.5825 46.7306 34.5202 46.7306 32.7306C46.7306 31.4075 46.1611 30.3395 45.1945 29.6366C44.2902 28.9816 43.2178 28.8338 42.1469 28.8338H33.7129V30.9785H35.6113V41.7819H33.7129V43.9179H39.7022V41.7804H37.8285V37.0215H41.9687C43.3961 37.0388 43.9482 37.9779 43.9772 38.7851L44.0815 43.915H48.2203V41.7819H46.2857L46.2277 38.6894ZM42.4165 34.9506H37.8299V30.98H42.1701C42.6193 30.98 43.1787 30.9655 43.6149 31.1872C44.1482 31.4582 44.6482 32.0422 44.6482 32.9958C44.6482 34.0971 43.6395 34.9506 42.4165 34.9506ZM32.9637 49.2218H30.1045V57.8398H31.3797V54.1097H32.7941C34.8519 54.1097 35.7866 53.0518 35.7866 51.6983C35.7866 50.3333 34.9026 49.2218 32.9637 49.2218ZM32.9115 52.9997H31.3826V50.3333H32.9651C34.1244 50.3333 34.4722 51.0144 34.4722 51.6433C34.4722 52.5055 33.8621 52.9997 32.9115 52.9997ZM40.7441 49.171L36.93 57.8369H38.3067L39.3501 55.2966H43.1251L44.2047 57.8369H45.6104L41.6397 49.171H40.7413H40.7441ZM39.8457 54.1851L41.1731 50.7796L42.6034 54.1851H39.8457ZM58.673 49.2218H59.9483V57.8398H58.673V49.2218ZM65.2507 51.2433C65.2507 50.6347 65.8709 50.2188 66.7346 50.2188C67.3723 50.2188 68.1447 50.4217 68.9403 51.1172V49.7116C68.3114 49.3207 67.5866 49.1115 66.8462 49.1073C65.1246 49.1073 63.9958 50.0014 63.9958 51.4056C63.9958 53.7677 68.0577 53.9706 68.0577 55.753C68.0577 56.2313 67.5766 56.837 66.5289 56.837C65.6043 56.837 64.7406 56.3936 64.0508 55.5907V57.1558C64.8363 57.6992 65.6594 57.9528 66.6796 57.9528C68.1939 57.9528 69.3083 56.9645 69.3083 55.6154C69.3141 52.8721 65.2507 52.8997 65.2507 51.2433ZM54.1647 56.1327C53.4735 55.0603 52.9706 54.2633 52.1504 53.7445C53.117 53.3793 53.6604 52.6316 53.6604 51.636C53.6604 50.1463 52.5185 49.2232 50.6897 49.2232H48.4058V57.8412H49.7057V54.0981H50.2506C50.9143 54.0981 51.4577 54.301 52.6518 56.069L53.7923 57.8398H55.3182L54.6473 56.837C54.4794 56.6071 54.3185 56.3723 54.1647 56.1327ZM50.5418 52.9881H49.7086V50.2825H50.5433C51.8041 50.2825 52.3084 50.7752 52.3229 51.5839C52.333 52.3084 51.9374 52.9866 50.5433 52.9866L50.5418 52.9881Z" fill="#482626"/>
</svg>
