<svg width="165" height="20" viewBox="0 0 165 20" fill="none" xmlns="http://www.w3.org/2000/svg">
<path fill-rule="evenodd" clip-rule="evenodd" d="M162.712 0.890746H164.935V19.6827L151.347 5.46008V18.9839H149.062V0L162.712 14.287V0.890746ZM98.8474 0.890746V12.3812C98.8474 14.4124 98.2751 16.063 97.1314 17.3343C95.9267 18.7309 94.276 19.3655 92.1806 19.3655C90.2127 19.3655 88.5631 18.7309 87.3551 17.3343C86.1504 16.063 85.5769 14.4124 85.5769 12.3812V0.890746H87.8643V11.6191C87.8643 15.3652 89.2609 17.2711 92.1806 17.2711C95.1635 17.2711 96.6244 15.3652 96.6244 11.6191V0.890746H98.8474ZM105.83 0.890746H116.686V2.98626H112.37V18.9849H110.211V2.98626H105.83V0.890746ZM101.895 0.890746H104.18V18.9849H101.895V0.890746ZM81.8962 0.890746H84.3722L76.4995 20L68.6279 0.890746H71.1039L76.5006 14.287L81.8962 0.890746ZM144.872 9.96836C144.872 11.9995 144.173 13.7146 142.715 15.1745C141.381 16.5711 139.667 17.2699 137.697 17.2699C135.729 17.2699 134.016 16.5711 132.557 15.1745C131.096 13.7135 130.398 11.9995 130.398 9.96836C130.398 7.93718 131.033 6.22219 132.429 4.82555C133.826 3.36676 135.604 2.66789 137.697 2.66789C139.793 2.66789 141.507 3.36676 142.84 4.82555C144.175 6.22219 144.872 7.93609 144.872 9.96836ZM144.365 3.30242C142.462 1.46095 140.239 0.509159 137.698 0.509159C135.096 0.509159 132.875 1.46095 130.969 3.30242C129.129 5.14281 128.176 7.3659 128.176 9.9673C128.176 12.633 129.13 14.8561 130.969 16.6965C132.811 18.4747 135.033 19.3644 137.698 19.3644C140.303 19.3644 142.587 18.4747 144.365 16.6965C146.207 14.8561 147.159 12.633 147.159 9.9673C147.16 7.3659 146.208 5.14281 144.365 3.30242ZM127.669 0.890746V2.98626H123.415V18.9849H121.13V2.98626H116.814V0.890746H127.669ZM22.6641 4.82555C23.9975 6.22219 24.632 7.93718 24.632 9.96836C24.632 11.9995 23.9331 13.7146 22.5376 15.1745C21.141 16.5711 19.4261 17.2699 17.4582 17.2699C15.4903 17.2699 13.7764 16.5711 12.3165 15.1745C10.9832 13.7135 10.2222 11.9995 10.2222 9.96836C10.2222 7.93718 10.9199 6.22219 12.2533 4.82555C13.6499 3.36676 15.3649 2.66789 17.4592 2.66789C19.5536 2.66789 21.3318 3.36676 22.6641 4.82555ZM24.125 3.30242C22.2204 1.46095 19.9984 0.509159 17.4592 0.509159C14.8557 0.509159 12.5717 1.46095 10.7935 3.30242C8.8888 5.14281 7.93701 7.3659 7.93701 9.9673C7.93701 12.633 8.88989 14.8561 10.7935 16.6965C12.5717 18.4747 14.7936 19.3644 17.4592 19.3644C20.126 19.3644 22.3479 18.4747 24.125 16.6965C26.0297 14.8561 26.9182 12.633 26.9182 9.9673C26.9182 7.3659 26.0297 5.14281 24.125 3.30242ZM31.0448 11.618C31.0448 15.3641 32.5047 17.2699 35.4255 17.2699C38.283 17.2699 39.8061 15.3641 39.8061 11.618V0.889658H42.028V12.3801C42.028 14.4112 41.4567 16.0619 40.2498 17.3332C39.044 18.7298 37.3934 19.3644 35.4255 19.3644C33.3943 19.3644 31.8069 18.7298 30.6011 17.3332C29.331 16.0619 28.7608 14.4112 28.7608 12.3801V0.889658H31.0459L31.0448 11.618ZM2.22193 0.890746V16.9527H7.74513V18.9839H0V0.889658H2.22193V0.890746ZM56.6286 8.31771C59.6759 9.52246 61.1368 11.3007 61.1368 13.7135C61.1368 15.3642 60.5655 16.6965 59.4229 17.7769C58.3436 18.8563 57.0102 19.3655 55.4228 19.3655C53.963 19.3655 52.6928 18.9206 51.6146 17.9045C50.5985 16.9527 49.9639 15.7458 49.7731 14.287L52.0583 13.7778C52.0583 14.7939 52.3756 15.6193 53.0744 16.3181C53.7733 16.9527 54.5343 17.2699 55.5504 17.2699C56.5033 17.2699 57.2642 16.8883 57.9631 16.1906C58.5344 15.556 58.8517 14.7296 58.8517 13.7146C58.8517 12.3179 57.8355 11.1764 55.7412 10.2857L54.471 9.84301C51.9318 8.63607 50.5985 7.11296 50.5985 5.20716C50.5985 3.81051 51.1698 2.60466 52.1859 1.77823C53.2652 0.890745 54.471 0.509159 55.932 0.509159C58.0263 0.509159 59.5505 1.46095 60.5655 3.30242L58.7884 4.31858C58.0896 3.23921 57.1378 2.66789 55.8676 2.66789C55.1056 2.66789 54.3435 2.85759 53.7722 3.30242C53.1377 3.8094 52.8193 4.44613 52.8193 5.20605C52.8193 6.28542 53.6446 7.11186 55.4217 7.7464L56.6286 8.31771ZM45.0753 0.890746H47.3615V18.9849H45.0753V0.890746Z" fill="#482626"/>
</svg>
