<svg width="129" height="22" viewBox="0 0 129 22" fill="none" xmlns="http://www.w3.org/2000/svg">
<path d="M11.4593 12.1979C10.1272 12.1979 7.90396 12.1393 7.90396 12.1393V2.40424L11.9588 2.43353C11.9588 2.43353 16.4445 2.58 16.4445 7.33524C16.4543 12.0905 12.7815 12.1979 11.4593 12.1979ZM13.0068 1.02746H0.323215C0.323215 1.02746 1.21449 1.33992 1.73358 2.53117C2.01762 3.18538 2.08618 4.15206 2.08618 5.39213V15.8595C2.08618 15.8595 2.63465 20.9175 0 20.9175H9.78445C9.78445 20.9175 8.50141 20.7124 8.0019 18.574C7.85499 17.9491 7.92355 17.168 7.92355 16.1622V13.5747L13.3496 13.643C13.3496 13.643 21.8706 14.0434 21.8706 7.44265C21.8706 1.54497 16.9049 1.02746 13.0068 1.02746ZM30.6462 12.0612L30.6756 2.414H35.0144C35.0144 2.414 39.1672 2.7167 39.1672 7.43289C39.1672 12.1588 35.1124 12.1295 33.8489 12.1295C32.5855 12.1295 30.6462 12.0612 30.6462 12.0612ZM34.7108 13.5063C34.7108 13.5063 35.3964 13.5454 36.2387 13.5454C37.0908 13.5454 44.554 14.2289 44.5834 6.98372C44.6128 0.705233 36.9243 1.02746 36.9243 1.02746H22.5268C24.7403 1.02746 24.8578 4.70862 24.8578 4.70862V15.7619C24.8578 16.9922 24.9361 18.1053 24.7501 18.8181C24.1918 20.9761 22.8696 20.9175 22.8696 20.9175H32.9478C31.9292 20.9468 31.2828 20.0875 30.94 19.3649C30.4895 18.1932 30.6266 15.7521 30.6266 15.7521V13.7309L40.9302 20.9077H48.9516L41.1162 14.1996C36.2779 15.0589 34.7108 13.5063 34.7108 13.5063ZM57.3845 13.4868L60.4403 7.58911L63.927 13.4868H57.3845ZM59.5098 5.91941C59.5098 5.91941 55.4942 13.643 53.5647 17.3047C51.8409 20.566 50.5285 20.6831 50.1955 20.937H55.455C53.6823 19.7165 55.3962 17.207 55.3962 17.207L56.4932 15.0784H64.8379L66.023 17.0996C66.7478 18.408 67.1885 18.9353 67.1298 19.5114C67.0318 20.5953 65.8075 20.9956 65.8075 20.9956H76.9534C76.3755 20.937 75.3961 20.0582 74.8574 19.6579C72.9475 18.2225 71.88 15.84 71.88 15.84C71.88 15.84 65.6508 5.75341 64.2992 3.29279C62.9378 0.832171 62.9378 1.03723 62.9378 1.03723H54.2405C54.2405 1.03723 55.9251 1.93555 57.0907 3.05845C58.4619 4.39617 59.5098 5.91941 59.5098 5.91941ZM109.451 13.4868L112.506 7.58911L115.993 13.4868H109.451ZM111.576 5.91941C111.576 5.91941 107.57 13.643 105.631 17.3047C103.907 20.566 102.595 20.6831 102.262 20.937H107.511C105.739 19.7165 107.453 17.207 107.453 17.207L108.55 15.0784H116.894L118.079 17.0996C118.804 18.408 119.245 18.9353 119.186 19.5114C119.088 20.5953 117.864 20.9956 117.864 20.9956H129C128.412 20.937 127.443 20.0582 126.904 19.6579C124.994 18.2225 123.927 15.84 123.927 15.84C123.927 15.84 117.697 5.75341 116.336 3.29279C114.975 0.832171 114.975 1.03723 114.975 1.03723H106.277C106.277 1.03723 107.962 1.93555 109.127 3.05845C110.528 4.39617 111.576 5.91941 111.576 5.91941ZM89.5978 2.43353C94.6418 2.43353 94.9846 6.12446 94.9846 6.12446C94.9846 6.12446 95.1511 7.84299 95.1511 14.0629C95.1511 16.5333 94.25 17.9979 92.8984 18.9255C90.9494 19.9215 87.3353 19.4431 87.3353 19.4431L87.4038 2.43353C88.0894 2.37494 89.0297 2.414 89.5978 2.43353ZM99.4018 4.16182C95.964 0.900524 90.5282 1.03723 90.5282 1.03723L79.4019 0.988403C81.3118 1.61332 81.4196 4.12276 81.4196 4.12276V16.2403C81.4196 17.4218 81.4587 18.2225 81.2824 18.8962C80.734 21.0639 79.4215 21.0054 79.4215 21.0054H89.4019C89.4019 21.0054 90.4107 21.0346 91.6154 20.9663C95.2294 20.7808 102.183 19.3454 102.183 10.206C102.183 7.67699 100.822 5.50931 99.4018 4.16182Z" fill="#482626"/>
</svg>
