<svg width="112" height="20" viewBox="0 0 112 20" fill="none" xmlns="http://www.w3.org/2000/svg">
<path fill-rule="evenodd" clip-rule="evenodd" d="M89.7711 15.0671V10.708H93.8093V9.8361H89.7711V5.46171C91.04 5.3093 92.463 5.3093 93.9617 5.46171L94.0539 4.66599H88.3332V15.2975L85.0901 11.489V10.7854C86.5888 10.3111 87.3851 9.19515 87.3851 7.45071C87.3851 5.70686 85.5644 4.66658 84.0504 4.66658H80.4103V16.0932H82.1535V5.38491C83.7444 5.38491 85.3967 5.93548 85.3967 7.69469C85.3967 9.43795 84.5242 10.3105 83.1779 10.708L83.2552 11.4116L88.3332 17.3609L90.3984 17.759L88.9748 16.0926H94.0539L95.002 14.0274C93.2594 15.0671 91.4387 15.3884 89.7711 15.0671ZM78.7432 4.66599H77.8707V11.1824C77.8707 13.5536 77.8707 15.4652 75.8055 15.4652C73.8939 15.4652 73.5117 14.3487 73.5117 11.3354V4.66599H72.15V11.6562C72.15 14.7457 72.6391 16.6426 75.8055 16.6426C78.8194 16.6426 78.7432 13.0792 78.7432 11.4884V4.66599ZM42.1855 16.0926H43.5324V4.66599H42.1855V16.0926ZM68.3569 4.66599L67.7904 5.72222L62.3143 16.0932H63.9825L66.2001 11.489H68.9069L69.9324 16.0932H71.5994L68.6629 4.66658L68.3569 4.66599ZM67.7904 10.2189H66.8428L67.7904 8.13833L68.0361 7.60312L68.7385 10.2189H67.7904Z" fill="#482626"/>
<path fill-rule="evenodd" clip-rule="evenodd" d="M60.7394 18.9053L64.7476 0.428287H63.0793L62.208 4.66504H53.8568V13.3997L46.469 4.66504H45.4441V16.0916H46.469V7.37238L53.8562 16.0916H55.0335V5.62971C55.8286 5.38456 56.4714 5.38455 57.1749 5.78212V16.0922H58.5053V5.78212C59.1492 5.26168 60.7388 5.23096 61.9168 6.02668L59.1941 19.87L67.7898 19.6863L68.5862 19.6709L68.9069 18.1108L67.7898 18.2177L60.7394 18.9053ZM38.5461 4.66504L37.9796 5.73545L33.8651 13.6283C33.6961 13.0009 33.4669 12.4503 33.07 12.0534C31.4791 9.91136 27.67 7.20402 27.4414 4.43524C27.2725 2.44683 28.7865 1.02434 30.7755 0.871338C32.1974 0.779774 34.187 1.97306 34.737 3.08955L36.0065 2.29442C34.9662 0.473771 32.1974 0 30.6066 0C29.2609 0 27.9152 0.856568 26.9813 1.83483C26.2476 2.58506 25.7584 3.41091 25.697 3.96088V4.8334C23.1574 3.88527 20.2209 4.58825 20.3745 8.07595C20.5428 10.1412 24.1061 11.4106 24.5805 12.6033C25.0549 13.7198 25.3756 15.2185 23.1574 15.2959C21.322 15.4637 20.6184 14.1942 20.6184 14.0264C19.8233 15.0661 15.8624 15.5399 15.4637 15.0661V10.6155H19.5019V9.74359H15.4637V5.46076C16.7332 5.30835 18.1568 5.30835 19.6703 5.46076L19.7471 4.58884H14.0264V4.66504H13.5521L9.51379 12.8491L8.07594 4.66504H7.60158L10.7833 0.382798H9.26982L3.96147 8.24489H3.4877L1.4987 0.382798H0.153L1.89685 9.83516L0 19.4257H1.4987L3.79311 9.91136L6.82181 5.85832L8.64246 16.0916H9.19302L14.0264 6.33209V16.0916H19.7471L20.2215 15.2959C20.9398 16.0142 21.9653 16.0916 22.9134 16.0916H23.786V18.2325C24.5811 18.9354 25.7289 19.5167 26.9818 19.7926C29.1238 20.2977 31.5719 19.9462 33.0705 18.0033C33.4675 17.4373 33.6973 16.81 33.8657 16.0922H34.187L36.4047 11.488H39.0966L40.121 16.0922H41.7886L38.8515 4.66563L38.5461 4.66504ZM28.8627 19.349C28.083 19.3182 27.4716 19.2125 26.9807 19.0128C25.6503 18.4924 25.0992 17.3918 24.1818 16.0148C26.8743 15.6935 27.1957 14.027 26.3238 12.054C25.6048 10.6155 21.5666 8.4741 21.5666 7.05161C21.5666 4.66504 24.7335 4.66504 25.7726 6.73025L25.9256 6.17969C26.1708 6.86789 26.5376 7.47989 26.9807 8.04582C28.4345 9.94149 30.6976 11.3646 31.7999 13.3223C33.3907 16.26 31.5553 19.349 28.8627 19.349ZM37.9796 10.218H37.0314L37.9796 8.13738L38.2247 7.60218L38.9431 10.218H37.9796ZM104.669 4.66504H103.492V13.3997L96.1038 4.66504H95.0783V16.0916H96.1038V7.37238L103.492 16.0916H104.669V5.62971C105.465 5.38456 106.107 5.38455 106.81 5.78212V16.0922H108.171V5.78212C108.875 5.23096 109.747 5.30835 111.261 5.85832V4.66504H104.669Z" fill="#482626"/>
</svg>
