<svg width="28" height="22" viewBox="0 0 28 22" fill="none" xmlns="http://www.w3.org/2000/svg">
<path d="M1.82757 10.6808C1.41792 9.39109 2.38053 8.07533 3.73373 8.07533H24.2663C25.6195 8.07533 26.5821 9.39109 26.1724 10.6808L23.3377 19.6054C23.0739 20.4359 22.3029 21 21.4315 21H6.56847C5.69714 21 4.92609 20.4359 4.66231 19.6054L1.82757 10.6808Z" stroke="#482626" stroke-width="1.5" stroke-linecap="round" stroke-linejoin="round"/>
<path d="M19.3595 9.46788V6.40385C19.3595 3.42778 16.9088 1 13.8858 1C10.8628 1 8.41211 3.41258 8.41211 6.38865V9.46788" stroke="#482626" stroke-width="1.5" stroke-linecap="round" stroke-linejoin="round"/>
<path d="M19.3594 10.059L20.327 11.0044L19.3594 11.9499L18.3918 11.0044L19.3594 10.059Z" fill="#482626" stroke="#482626" stroke-width="1.5" stroke-linecap="round" stroke-linejoin="round"/>
<path d="M8.41211 10.059L9.37973 11.0044L8.41211 11.9499L7.44449 11.0044L8.41211 10.059Z" fill="#482626" stroke="#482626" stroke-width="1.5" stroke-linecap="round" stroke-linejoin="round"/>
</svg>
