<svg width="23" height="22" viewBox="0 0 23 22" fill="none" xmlns="http://www.w3.org/2000/svg">
<path d="M14.6559 4.55569C15.1457 4.12677 15.3276 4 15.4773 4C15.6586 4 15.7774 4.14315 15.7144 4.33331C15.5246 4.96084 15.2088 6.67597 14.9324 8.19303C14.7269 9.30441 14.2923 11.4168 14.2056 11.8536C13.7236 14.2755 13.2254 16.7687 11.3614 17.6825C10.8238 17.9525 10.4448 18 10.0654 18C9.25977 18 8.40631 17.8178 8.1693 16.8564C7.41095 13.7911 6.73144 9.09048 6.73144 6.22329C6.73144 5.7949 6.79503 5.61953 6.96846 5.38183C7.33212 4.92122 8.01899 4.66662 8.71427 4.66662C10.0896 4.66662 10.3891 5.36598 10.3891 6.74781C10.3891 6.95382 10.3576 7.3035 10.3734 7.58135C10.5079 9.08203 10.8553 14.5618 11.0214 15.4038C11.8512 13.4578 12.8229 6.71612 14.071 4.9133C14.2923 4.57154 14.482 4.61908 14.6559 4.55569Z" fill="#482626"/>
<rect x="1.21436" y="1" width="20" height="20" rx="3" stroke="#482626" stroke-width="2"/>
</svg>
