<svg width="30" height="30" viewBox="0 0 30 30" fill="none" xmlns="http://www.w3.org/2000/svg">
<path d="M18 7.77777C17.8233 6.91697 17.4332 6.15668 16.8908 5.61429C16.3484 5.0719 15.6837 4.77777 15 4.77777C14.3163 4.77777 13.6516 5.0719 13.1092 5.61429C12.5668 6.15668 12.1767 6.91697 12 7.77777" stroke="#482626" stroke-linecap="round"/>
<path d="M23.0679 12.6622L24.6068 22.6622C24.6555 22.9787 24.6352 23.302 24.5473 23.6099C24.4594 23.9178 24.306 24.2031 24.0976 24.4463C23.8892 24.6894 23.6307 24.8846 23.3399 25.0185C23.049 25.1524 22.7326 25.2219 22.4124 25.2222H7.59016C7.26976 25.2223 6.95313 25.153 6.66199 25.0192C6.37085 24.8854 6.11209 24.6903 5.90344 24.4471C5.69479 24.2039 5.54119 23.9185 5.45317 23.6105C5.36515 23.3024 5.34479 22.9789 5.3935 22.6622L6.93239 12.6622C7.01311 12.1373 7.27914 11.6587 7.6823 11.313C8.08546 10.9673 8.59909 10.7774 9.13016 10.7778H20.8724C21.4033 10.7777 21.9166 10.9677 22.3196 11.3134C22.7225 11.659 22.9872 12.1375 23.0679 12.6622Z" stroke="#482626" stroke-linecap="round" stroke-linejoin="round"/>
</svg>
