<svg width="23" height="22" viewBox="0 0 23 22" fill="none" xmlns="http://www.w3.org/2000/svg">
<rect x="1.21436" y="1" width="20" height="20" rx="3" stroke="#482626" stroke-width="2"/>
<path d="M15.6893 6.16662L16.2531 5.93879V5.84766H12.0167V5.93879L12.672 6.22738C13.3273 6.51597 13.4644 6.6071 13.4644 6.89569C13.4644 7.36654 12.992 8.931 12.9006 9.26515L11.4833 13.6699L9.24321 7.45768C9.10606 7.03239 9.06035 6.7438 9.06035 6.6071C9.06035 6.42483 9.15178 6.22738 9.71562 6.13624L10.2795 6.04511V5.84766H4.21436V5.98436L4.39722 6.02992C5.34204 6.21219 5.47919 6.40964 6.46972 8.87024L9.71562 16.8748H10.569L13.8149 8.87024C14.653 6.92607 14.8512 6.59191 15.6893 6.16662Z" fill="#482626"/>
<path d="M17.2143 15.2567C17.2143 16.0948 16.5402 16.7742 15.6462 16.7742C14.7522 16.7742 14.0781 16.0948 14.0781 15.2567C14.0781 14.4186 14.7522 13.7898 15.6462 13.7898C16.5402 13.7898 17.2143 14.4186 17.2143 15.2567Z" fill="#482626"/>
</svg>
