<svg width="22" height="22" viewBox="0 0 22 22" fill="none" xmlns="http://www.w3.org/2000/svg">
<path d="M11 5.5C12.4587 5.5 13.8576 6.07946 14.8891 7.11091C15.9205 8.14236 16.5 9.54131 16.5 11C16.5 12.4587 15.9205 13.8576 14.8891 14.8891C13.8576 15.9205 12.4587 16.5 11 16.5C9.54131 16.5 8.14236 15.9205 7.11091 14.8891C6.07946 13.8576 5.5 12.4587 5.5 11C5.5 9.54131 6.07946 8.14236 7.11091 7.11091C8.14236 6.07946 9.54131 5.5 11 5.5ZM11 7.7C10.1248 7.7 9.28542 8.04768 8.66655 8.66655C8.04768 9.28542 7.7 10.1248 7.7 11C7.7 11.8752 8.04768 12.7146 8.66655 13.3335C9.28542 13.9523 10.1248 14.3 11 14.3C11.8752 14.3 12.7146 13.9523 13.3335 13.3335C13.9523 12.7146 14.3 11.8752 14.3 11C14.3 10.1248 13.9523 9.28542 13.3335 8.66655C12.7146 8.04768 11.8752 7.7 11 7.7Z" fill="#482626"/>
<path d="M11 5.5C12.4587 5.5 13.8576 6.07946 14.8891 7.11091C15.9205 8.14236 16.5 9.54131 16.5 11C16.5 12.4587 15.9205 13.8576 14.8891 14.8891C13.8576 15.9205 12.4587 16.5 11 16.5C9.54131 16.5 8.14236 15.9205 7.11091 14.8891C6.07946 13.8576 5.5 12.4587 5.5 11C5.5 9.54131 6.07946 8.14236 7.11091 7.11091C8.14236 6.07946 9.54131 5.5 11 5.5ZM11 7.7C10.1248 7.7 9.28542 8.04768 8.66655 8.66655C8.04768 9.28542 7.7 10.1248 7.7 11C7.7 11.8752 8.04768 12.7146 8.66655 13.3335C9.28542 13.9523 10.1248 14.3 11 14.3C11.8752 14.3 12.7146 13.9523 13.3335 13.3335C13.9523 12.7146 14.3 11.8752 14.3 11C14.3 10.1248 13.9523 9.28542 13.3335 8.66655C12.7146 8.04768 11.8752 7.7 11 7.7Z" stroke="#482626"/>
<path d="M17.7472 4.25283C17.4893 3.99496 17.1396 3.8501 16.7749 3.8501C16.4102 3.8501 16.0605 3.99496 15.8026 4.25283C15.5448 4.51069 15.3999 4.86042 15.3999 5.2251C15.3999 5.58977 15.5448 5.93951 15.8026 6.19737C16.0605 6.45523 16.4102 6.6001 16.7749 6.6001C17.1396 6.6001 17.4893 6.45523 17.7472 6.19737C18.005 5.93951 18.1499 5.58977 18.1499 5.2251C18.1499 4.86042 18.005 4.51069 17.7472 4.25283Z" fill="#482626"/>
<path d="M17.7472 4.25283C17.4893 3.99496 17.1396 3.8501 16.7749 3.8501C16.4102 3.8501 16.0605 3.99496 15.8026 4.25283C15.5448 4.51069 15.3999 4.86042 15.3999 5.2251C15.3999 5.58977 15.5448 5.93951 15.8026 6.19737C16.0605 6.45523 16.4102 6.6001 16.7749 6.6001C17.1396 6.6001 17.4893 6.45523 17.7472 6.19737C18.005 5.93951 18.1499 5.58977 18.1499 5.2251C18.1499 4.86042 18.005 4.51069 17.7472 4.25283Z" stroke="#482626"/>
<rect x="1" y="1" width="20" height="20" rx="5" stroke="#482626" stroke-width="2"/>
</svg>
