<svg width="22" height="22" viewBox="0 0 22 22" fill="none" xmlns="http://www.w3.org/2000/svg">
<rect x="1" y="1" width="20" height="20" rx="3" stroke="#CA2530" stroke-width="2"/>
<path d="M15.4749 6.16662L16.0388 5.93879V5.84766H11.8024V5.93879L12.4576 6.22738C13.1129 6.51597 13.2501 6.6071 13.2501 6.89569C13.2501 7.36654 12.7776 8.931 12.6862 9.26515L11.269 13.6699L9.02886 7.45768C8.89171 7.03239 8.84599 6.7438 8.84599 6.6071C8.84599 6.42483 8.93742 6.22738 9.50127 6.13624L10.0651 6.04511V5.84766H4V5.98436L4.18287 6.02992C5.12768 6.21219 5.26483 6.40964 6.25537 8.87024L9.50127 16.8748H10.3546L13.6005 8.87024C14.4387 6.92607 14.6368 6.59191 15.4749 6.16662Z" fill="#CA2530"/>
<path d="M16.9999 15.2567C16.9999 16.0948 16.3258 16.7742 15.4318 16.7742C14.5379 16.7742 13.8638 16.0948 13.8638 15.2567C13.8638 14.4186 14.5379 13.7898 15.4318 13.7898C16.3258 13.7898 16.9999 14.4186 16.9999 15.2567Z" fill="#CA2530"/>
</svg>
