<svg width="22" height="22" viewBox="0 0 22 22" fill="none" xmlns="http://www.w3.org/2000/svg">
<path d="M14.4416 4.55569C14.9314 4.12677 15.1132 4 15.263 4C15.4443 4 15.5631 4.14315 15.5 4.33331C15.3103 4.96084 14.9944 6.67597 14.718 8.19303C14.5125 9.30441 14.0779 11.4168 13.9912 11.8536C13.5093 14.2755 13.0111 16.7687 11.147 17.6825C10.6094 17.9525 10.2305 18 9.85106 18C9.04542 18 8.19196 17.8178 7.95494 16.8564C7.1966 13.7911 6.51709 9.09048 6.51709 6.22329C6.51709 5.7949 6.58068 5.61953 6.7541 5.38183C7.11777 4.92122 7.80464 4.66662 8.49992 4.66662C9.87523 4.66662 10.1748 5.36598 10.1748 6.74781C10.1748 6.95382 10.1433 7.3035 10.159 7.58135C10.2936 9.08203 10.6409 14.5618 10.807 15.4038C11.6368 13.4578 12.6085 6.71612 13.8567 4.9133C14.0779 4.57154 14.2676 4.61908 14.4416 4.55569Z" fill="#CA2530"/>
<rect x="1" y="1" width="20" height="20" rx="3" stroke="#CA2530" stroke-width="2"/>
</svg>
