<svg width="24" height="19" viewBox="0 0 24 19" fill="none" xmlns="http://www.w3.org/2000/svg">
<path d="M1.82757 9.67394C1.41792 8.38425 2.38053 7.06849 3.73373 7.06849H20.5663C21.9195 7.06849 22.8821 8.38425 22.4724 9.67394L20.2219 16.7593C19.9581 17.5898 19.1871 18.1539 18.3157 18.1539H5.98426C5.11293 18.1539 4.34188 17.5898 4.0781 16.7593L1.82757 9.67394Z" stroke="#CA2530" stroke-width="1.5" stroke-linecap="round" stroke-linejoin="round"/>
<path d="M16.7469 8.26284V5.63484C16.7469 3.08228 14.645 1 12.0522 1C9.45933 1 7.35742 3.06925 7.35742 5.62181V8.26284" stroke="#CA2530" stroke-width="1.5" stroke-linecap="round" stroke-linejoin="round"/>
<path d="M16.7466 8.76984L17.5765 9.58073L16.7466 10.3916L15.9167 9.58073L16.7466 8.76984Z" fill="#CA2530" stroke="#CA2530" stroke-width="1.5" stroke-linecap="round" stroke-linejoin="round"/>
<path d="M7.35742 8.76984L8.18734 9.58073L7.35742 10.3916L6.5275 9.58073L7.35742 8.76984Z" fill="#CA2530" stroke="#CA2530" stroke-width="1.5" stroke-linecap="round" stroke-linejoin="round"/>
</svg>
