<svg width="17" height="22" viewBox="0 0 17 22" fill="none" xmlns="http://www.w3.org/2000/svg">
<path d="M15.9945 18.3017C16.4815 19.6085 15.5151 21 14.1204 21L2.87958 21C1.48494 21 0.518497 19.6085 1.00546 18.3017L1.76597 16.2607C2.64086 13.9128 4.88268 12.3557 7.38833 12.3557L9.61168 12.3557C12.1173 12.3557 14.3591 13.9128 15.234 16.2607L15.9945 18.3017Z" stroke="#CA2530" stroke-width="1.5" stroke-linecap="round" stroke-linejoin="round"/>
<path d="M8.5 9.76245C10.8472 9.76245 12.75 7.70918 12.75 5.32213C12.75 2.93509 10.8472 1 8.5 1C6.15279 1 4.25 2.93509 4.25 5.32213C4.25 7.70918 6.15279 9.76245 8.5 9.76245Z" stroke="#CA2530" stroke-width="1.5" stroke-linecap="round"/>
</svg>
