<svg width="24" height="24" viewBox="0 0 24 24" fill="none" xmlns="http://www.w3.org/2000/svg">
<path fill-rule="evenodd" clip-rule="evenodd" d="M4.30881 23C3.87423 23.0002 3.44387 22.9148 3.04234 22.7486C2.6408 22.5823 2.27595 22.3386 1.96866 22.0313C1.66137 21.724 1.41765 21.3592 1.25144 20.9577C1.08523 20.5561 0.99979 20.1258 1 19.6912V4.30881C0.99979 3.87423 1.08523 3.44387 1.25144 3.04234C1.41765 2.6408 1.66137 2.27595 1.96866 1.96866C2.27595 1.66137 2.6408 1.41765 3.04234 1.25144C3.44387 1.08523 3.87423 0.99979 4.30881 1H19.6912C20.1258 0.99979 20.5561 1.08523 20.9577 1.25144C21.3592 1.41765 21.724 1.66137 22.0313 1.96866C22.3386 2.27595 22.5824 2.6408 22.7486 3.04234C22.9148 3.44387 23.0002 3.87423 23 4.30881V19.6912C23.0002 20.1258 22.9148 20.5561 22.7486 20.9577C22.5824 21.3592 22.3386 21.724 22.0313 22.0313C21.724 22.3386 21.3592 22.5823 20.9577 22.7486C20.5561 22.9148 20.1258 23.0002 19.6912 23H4.30881ZM17.7524 13.7065H15.429V21.3977H19.7072C19.9315 21.3977 20.1536 21.3535 20.3609 21.2676C20.5681 21.1818 20.7564 21.056 20.915 20.8974C21.0736 20.7388 21.1994 20.5505 21.2853 20.3432C21.3711 20.136 21.4153 19.9139 21.4153 19.6896V4.30721C21.4153 3.8542 21.2353 3.41974 20.915 3.09941C20.5947 2.77908 20.1602 2.59913 19.7072 2.59913H4.32484C3.87182 2.59913 3.43737 2.77908 3.11704 3.09941C2.79671 3.41974 2.61675 3.8542 2.61675 4.30721V19.6896C2.61675 20.1426 2.79671 20.5771 3.11704 20.8974C3.43737 21.2177 3.87182 21.3977 4.32484 21.3977H12.8653V13.7065H10.3015V11.1428H12.8653V9.76635C12.8653 7.15455 14.1359 6.0169 16.2942 6.0169C17.3117 6.0169 17.8581 6.0906 18.1209 6.12746H18.1369V8.57902H16.6596C15.9145 8.57902 15.562 8.89949 15.4562 9.54042C15.4305 9.70849 15.4182 9.87834 15.4194 10.0484V11.1428H18.1113L17.746 13.7065H17.7524Z" fill="#482626" stroke="#482626" stroke-width="0.2"/>
</svg>
