<svg width="65" height="27" viewBox="0 0 65 27" fill="none" xmlns="http://www.w3.org/2000/svg">
<path d="M7.25 1.5H17.75C21.4739 1.5 24.5 4.52614 24.5 8.25V18.75C24.5 20.5402 23.7888 22.2571 22.523 23.523C21.2571 24.7888 19.5402 25.5 17.75 25.5H7.25C3.52614 25.5 0.5 22.4739 0.5 18.75V8.25C0.5 6.45979 1.21116 4.7429 2.47703 3.47703C3.7429 2.21116 5.45979 1.5 7.25 1.5ZM7 3C5.67392 3 4.40215 3.52678 3.46447 4.46447C2.52678 5.40215 2 6.67392 2 8V19C2 21.7636 4.23636 24 7 24H18C19.3261 24 20.5979 23.4732 21.5355 22.5355C22.4732 21.5979 23 20.3261 23 19V8C23 5.23636 20.7636 3 18 3H7ZM19.0625 5.875C19.3443 5.875 19.6145 5.98694 19.8138 6.1862C20.0131 6.38546 20.125 6.65571 20.125 6.9375C20.125 7.21929 20.0131 7.48954 19.8138 7.6888C19.6145 7.88806 19.3443 8 19.0625 8C18.7807 8 18.5105 7.88806 18.3112 7.6888C18.1119 7.48954 18 7.21929 18 6.9375C18 6.65571 18.1119 6.38546 18.3112 6.1862C18.5105 5.98694 18.7807 5.875 19.0625 5.875ZM12.5 7.75C14.025 7.75 15.4875 8.3558 16.5659 9.43414C17.6442 10.5125 18.25 11.975 18.25 13.5C18.25 15.025 17.6442 16.4875 16.5659 17.5659C15.4875 18.6442 14.025 19.25 12.5 19.25C10.975 19.25 9.51247 18.6442 8.43414 17.5659C7.3558 16.4875 6.75 15.025 6.75 13.5C6.75 11.975 7.3558 10.5125 8.43414 9.43414C9.51247 8.3558 10.975 7.75 12.5 7.75ZM12.5 9.25C11.3728 9.25 10.2918 9.69777 9.4948 10.4948C8.69777 11.2918 8.25 12.3728 8.25 13.5C8.25 14.6272 8.69777 15.7082 9.49479 16.5052C10.2918 17.3022 11.3728 17.75 12.5 17.75C13.6272 17.75 14.7082 17.3022 15.5052 16.5052C16.3022 15.7082 16.75 14.6272 16.75 13.5C16.75 12.3728 16.3022 11.2918 15.5052 10.4948C14.7082 9.69777 13.6272 9.25 12.5 9.25Z" fill="#E5C7A0" stroke="#E5C7A0"/>
<path fill-rule="evenodd" clip-rule="evenodd" d="M42.76 26C42.2662 26.0002 41.7771 25.9031 41.3208 25.7143C40.8645 25.5254 40.4499 25.2484 40.1007 24.8993C39.7516 24.5501 39.4746 24.1355 39.2857 23.6792C39.0969 23.2229 38.9998 22.7338 39 22.24V4.76002C38.9998 4.26618 39.0969 3.77713 39.2857 3.32084C39.4746 2.86454 39.7516 2.44995 40.1007 2.10075C40.4499 1.75155 40.8645 1.4746 41.3208 1.28573C41.7771 1.09685 42.2662 0.999761 42.76 1H60.24C60.7338 0.999761 61.2229 1.09685 61.6792 1.28573C62.1355 1.4746 62.5501 1.75155 62.8993 2.10075C63.2484 2.44995 63.5254 2.86454 63.7143 3.32084C63.9031 3.77713 64.0002 4.26618 64 4.76002V22.24C64.0002 22.7338 63.9031 23.2229 63.7143 23.6792C63.5254 24.1355 63.2484 24.5501 62.8993 24.8993C62.5501 25.2484 62.1355 25.5254 61.6792 25.7143C61.2229 25.9031 60.7338 26.0002 60.24 26H42.76ZM58.0368 15.4392H55.3966V24.1792H60.2582C60.5131 24.1792 60.7655 24.129 61.001 24.0314C61.2365 23.9339 61.4505 23.7909 61.6307 23.6107C61.8109 23.4304 61.9539 23.2164 62.0514 22.981C62.149 22.7455 62.1992 22.4931 62.1992 22.2382V4.75819C62.1992 4.24341 61.9947 3.74971 61.6307 3.3857C61.2667 3.02169 60.773 2.81719 60.2582 2.81719H42.7782C42.2634 2.81719 41.7697 3.02169 41.4057 3.3857C41.0417 3.74971 40.8372 4.24341 40.8372 4.75819V22.2382C40.8372 22.7529 41.0417 23.2467 41.4057 23.6107C41.7697 23.9747 42.2634 24.1792 42.7782 24.1792H52.4832V15.4392H49.5699V12.5259H52.4832V10.9618C52.4832 7.99381 53.9272 6.70102 56.3798 6.70102C57.5361 6.70102 58.157 6.78478 58.4556 6.82666H58.4738V9.61253H56.795C55.9483 9.61253 55.5477 9.97669 55.4275 10.705C55.3983 10.896 55.3843 11.089 55.3857 11.2822V12.5259H58.4446L58.0295 15.4392H58.0368Z" fill="#E5C7A0" stroke="#E5C7A0" stroke-width="0.2"/>
</svg>
