<svg width="20" height="20" viewBox="0 0 20 20" fill="none" xmlns="http://www.w3.org/2000/svg">
<path d="M19.1358 20L11.4922 12.3564C10.8819 12.8764 10.18 13.2788 9.38663 13.5636C8.59322 13.8484 7.79575 13.9908 6.9942 13.9908C5.03957 13.9908 3.38521 13.3142 2.03113 11.9609C0.677042 10.6077 0 8.95372 0 6.99909C0 5.04445 0.676228 3.38969 2.02868 2.03479C3.38114 0.679893 5.03469 0.00163043 6.98932 2.92717e-06C8.94395 -0.00162458 10.5991 0.675417 11.9548 2.03113C13.3105 3.38684 13.9884 5.04161 13.9884 6.99542C13.9884 7.84335 13.8383 8.66402 13.538 9.45743C13.2377 10.2508 12.843 10.9295 12.354 11.4934L19.9976 19.1358L19.1358 20ZM6.99542 12.769C8.61479 12.769 9.98189 12.2116 11.0967 11.0967C12.2116 9.9819 12.769 8.61438 12.769 6.9942C12.769 5.37402 12.2116 4.00692 11.0967 2.89289C9.98189 1.77887 8.61479 1.22145 6.99542 1.22063C5.37605 1.21982 4.00854 1.77724 2.89289 2.89289C1.77724 4.00855 1.21981 5.37565 1.22063 6.9942C1.22144 8.61276 1.77886 9.97986 2.89289 11.0955C4.00692 12.2112 5.37402 12.7686 6.9942 12.7678" fill="#482626"/>
</svg>
