<svg width="166" height="107" viewBox="0 0 166 107" fill="none" xmlns="http://www.w3.org/2000/svg">
<rect y="7" width="166" height="100" fill="#E6D4CB"/>
<path d="M139.68 33.4805L121.68 90.6905H44L26 33.4805H31.33L45.33 57.9605H71.81L73.81 64.0605C73.9608 64.5179 74.2513 64.9164 74.6406 65.1999C75.0299 65.4833 75.4984 65.6374 75.98 65.6405H89.12C89.6012 65.636 90.069 65.4813 90.458 65.198C90.8471 64.9147 91.1379 64.517 91.29 64.0605L93.29 57.9605H119.57L133.57 33.4805H139.68Z" fill="#D52B3E"/>
<path d="M31.3301 33.4805L45.3301 57.9605H71.8101L71.3801 56.6905C71.263 56.3444 71.2297 55.9755 71.2829 55.614C71.3361 55.2526 71.4743 54.9089 71.6861 54.6112C71.8979 54.3136 72.1773 54.0704 72.5013 53.9016C72.8253 53.7328 73.1848 53.6433 73.5501 53.6405H91.5501C91.9146 53.6449 92.2728 53.7356 92.5955 53.905C92.9183 54.0744 93.1963 54.3178 93.407 54.6152C93.6177 54.9127 93.755 55.2558 93.8076 55.6165C93.8603 55.9772 93.8269 56.3452 93.7101 56.6905L93.2901 57.9605H119.57L133.57 33.4805H31.3301Z" fill="#DA666A"/>
<path d="M93.7398 56.6897L93.3198 57.9596L91.3198 64.0596C91.1678 64.5162 90.8769 64.9139 90.4879 65.1972C90.0989 65.4805 89.6311 65.6351 89.1498 65.6396H76.0098C75.5283 65.6366 75.0598 65.4825 74.6704 65.199C74.2811 64.9156 73.9906 64.517 73.8398 64.0596L71.8398 57.9596L71.4098 56.6897C71.2928 56.3436 71.2595 55.9747 71.3127 55.6132C71.3659 55.2518 71.5041 54.9081 71.7159 54.6104C71.9277 54.3127 72.207 54.0695 72.5311 53.9008C72.8551 53.732 73.2145 53.6425 73.5798 53.6396H91.5798C91.9443 53.6441 92.3026 53.7347 92.6253 53.9042C92.9481 54.0736 93.2261 54.317 93.4368 54.6144C93.6474 54.9119 93.7847 55.255 93.8374 55.6157C93.8901 55.9763 93.8566 56.3444 93.7398 56.6897Z" fill="#AC2231"/>
<path d="M137.621 39.9698L121.661 90.6898H43.9805L26.3105 34.5098L50.6505 83.5198H116.431L137.621 39.9698Z" fill="#AC2231"/>
<path d="M72.6505 60.5297H41.6405L32.7305 35.9697L45.3105 57.9597H71.7905L72.6505 60.5297Z" fill="#AC2231"/>
<path d="M133.599 33.4805L123.809 60.5305H92.4395L93.2995 57.9605H119.579L133.599 33.4805Z" fill="#AC2231"/>
<path d="M94.4397 57.96L94.1497 58.84L91.9697 65.41C91.8039 65.9009 91.4897 66.3282 91.0705 66.6327C90.6513 66.9373 90.1478 67.104 89.6297 67.11H75.4997C74.9805 67.1085 74.4749 66.9435 74.0548 66.6383C73.6348 66.3331 73.3215 65.9033 73.1597 65.41L70.9697 58.84L70.6797 57.96H71.8097L73.8097 64.06C73.9604 64.5174 74.251 64.9159 74.6403 65.1994C75.0296 65.4828 75.4981 65.6369 75.9797 65.64H89.1197C89.6009 65.6354 90.0687 65.4808 90.4577 65.1975C90.8468 64.9142 91.1376 64.5165 91.2897 64.06L93.2897 57.96H94.4397Z" fill="#693838"/>
<path d="M26 33.4805L44 90.6905H121.68L139.68 33.4805H26ZM91.29 64.0605C91.1379 64.517 90.8471 64.9147 90.458 65.198C90.069 65.4813 89.6012 65.636 89.12 65.6405H76.01C75.5284 65.6374 75.0599 65.4833 74.6706 65.1999C74.2813 64.9164 73.9908 64.5179 73.84 64.0605L71.84 57.9605L71.41 56.6905C71.293 56.3444 71.2597 55.9755 71.3129 55.614C71.3661 55.2526 71.5042 54.9089 71.716 54.6112C71.9278 54.3136 72.2072 54.0704 72.5312 53.9016C72.8552 53.7328 73.2147 53.6433 73.58 53.6405H91.58C91.9445 53.6449 92.3027 53.7356 92.6255 53.905C92.9482 54.0744 93.2263 54.3178 93.4369 54.6152C93.6476 54.9127 93.7849 55.2558 93.8375 55.6165C93.8902 55.9772 93.8568 56.3452 93.74 56.6905L93.32 57.9605L91.29 64.0605Z" stroke="black" stroke-width="1.01" stroke-linejoin="round"/>
<path d="M133.6 33.4805L119.6 57.9605H93.3201L93.7401 56.6905C93.8569 56.3452 93.8903 55.9772 93.8376 55.6165C93.7849 55.2558 93.6477 54.9127 93.437 54.6152C93.2263 54.3178 92.9483 54.0744 92.6255 53.905C92.3028 53.7356 91.9446 53.6449 91.5801 53.6405H73.5801C73.2148 53.6433 72.8553 53.7328 72.5313 53.9016C72.2073 54.0704 71.9279 54.3136 71.7161 54.6112C71.5043 54.9089 71.3661 55.2526 71.3129 55.614C71.2597 55.9755 71.293 56.3444 71.4101 56.6905L71.8401 57.9605H45.3301L31.3301 33.4805H133.6Z" stroke="black" stroke-width="1.01" stroke-linejoin="round"/>
<path d="M106.38 43.99V24.92C106.38 18.576 103.86 12.4919 99.374 8.00601C94.8882 3.52014 88.804 1 82.46 1C76.1161 1 70.0319 3.52014 65.546 8.00601C61.0602 12.4919 58.54 18.576 58.54 24.92V43.99" stroke="black" stroke-width="2.01" stroke-linecap="round" stroke-linejoin="round"/>
<path d="M108.24 39.6299H104.52L102.88 44.3699L106.38 48.3499L109.87 44.3699L108.24 39.6299Z" fill="#592F2F" stroke="black" stroke-width="1.3" stroke-linejoin="round"/>
<path d="M60.4 39.6299H56.68L55.04 44.3699L58.54 48.3499L62.03 44.3699L60.4 39.6299Z" fill="#592F2F" stroke="black" stroke-width="1.3" stroke-linejoin="round"/>
<ellipse cx="84" cy="95.5" rx="34" ry="1.5" fill="#D5B8A9"/>
</svg>
