<svg width="166" height="114" viewBox="0 0 166 114" fill="none" xmlns="http://www.w3.org/2000/svg">
<rect y="14" width="166" height="100" fill="#E6D4CB"/>
<ellipse cx="84" cy="102.5" rx="34" ry="1.5" fill="#D5B8A9"/>
<path d="M139.68 40.4004L121.9 97.6104H44.22L26 40.4004L47.62 55.9304H118.5L139.68 40.4004Z" fill="#D52B3E"/>
<g style="mix-blend-mode:darken" opacity="0.5">
<path d="M137.65 46.8498L121.88 97.6098H44.1996L26.3496 41.5098L50.8696 90.4398H116.65L137.65 46.8498Z" fill="#AC2231"/>
</g>
<path d="M139.68 40.4001L118.51 55.9301H47.63L26 40.4001L38.6 37.3701H127.09L139.68 40.4001Z" fill="#DD454F"/>
<g style="mix-blend-mode:hard-light" opacity="0.5">
<path d="M139.68 40.4001L138.79 40.6701L126.94 38.8001L38.82 38.7101L27.02 40.7201L26 40.4001L38.6 37.3701H127.09L139.68 40.4001Z" fill="#EEB8BA"/>
</g>
<path d="M58.9199 36.64V24.92C58.9199 21.7788 59.5386 18.6683 60.7407 15.7662C61.9428 12.8641 63.7048 10.2272 65.9259 8.00601C68.1471 5.78483 70.784 4.02289 73.6862 2.8208C76.5883 1.61871 79.6987 1 82.8399 1C85.9812 1 89.0916 1.61871 91.9937 2.8208C94.8958 4.02289 97.5328 5.78483 99.7539 8.00601C101.975 10.2272 103.737 12.8641 104.939 15.7662C106.141 18.6683 106.76 21.7788 106.76 24.92V36.64" stroke="black" stroke-width="2.01" stroke-linecap="round" stroke-linejoin="round"/>
<path d="M26 40.4004L44 97.6104H121.68L139.68 40.4004L127.08 37.4004H38.59L26 40.4004Z" stroke="black" stroke-width="1.01" stroke-linecap="round" stroke-linejoin="round"/>
<path d="M26 40.4004L47.62 55.9304H118.5L139.68 40.4004" stroke="black" stroke-width="1.01" stroke-linecap="round" stroke-linejoin="round"/>
<path d="M97.3501 42.4199H68.3301V49.7199H97.3501V42.4199Z" fill="#E6D4CB" stroke="#271414" stroke-width="0.75" stroke-linecap="round" stroke-linejoin="round"/>
<path d="M71.5895 48H71.1278L72.4631 44.3636H72.9176L74.2528 48H73.7912L72.7045 44.9389H72.6761L71.5895 48ZM71.7599 46.5795H73.6207V46.9702H71.7599V46.5795ZM75.8628 44.3636V48H75.4225V44.8253H75.4012L74.5134 45.4148V44.9673L75.4225 44.3636H75.8628ZM78.1871 44.3636V48H77.7467V44.8253H77.7254L76.8376 45.4148V44.9673L77.7467 44.3636H78.1871ZM79.4459 48H78.9843L80.3195 44.3636H80.7741L82.1093 48H81.6476L80.561 44.9389H80.5326L79.4459 48ZM79.6164 46.5795H81.4772V46.9702H79.6164V46.5795ZM82.8248 48H82.3632L83.6984 44.3636H84.153L85.4882 48H85.0265L83.9399 44.9389H83.9115L82.8248 48ZM82.9953 46.5795H84.8561V46.9702H82.9953V46.5795ZM86.2037 48H85.7421L87.0773 44.3636H87.5319L88.8671 48H88.4055L87.3188 44.9389H87.2904L86.2037 48ZM86.3742 46.5795H88.235V46.9702H86.3742V46.5795ZM90.4771 44.3636V48H90.0368V44.8253H90.0154L89.1277 45.4148V44.9673L90.0368 44.3636H90.4771ZM91.736 48H91.2743L92.6096 44.3636H93.0641L94.3993 48H93.9377L92.851 44.9389H92.8226L91.736 48ZM91.9064 46.5795H93.7672V46.9702H91.9064V46.5795Z" fill="#271414"/>
<path d="M58.9199 65.3496V84.4196C58.9199 87.5608 59.5386 90.6713 60.7407 93.5734C61.9428 96.4755 63.7048 99.1124 65.9259 101.334C68.1471 103.555 70.784 105.317 73.6862 106.519C76.5883 107.721 79.6987 108.34 82.8399 108.34C85.9812 108.34 89.0916 107.721 91.9937 106.519C94.8958 105.317 97.5328 103.555 99.7539 101.334C101.975 99.1124 103.737 96.4755 104.939 93.5734C106.141 90.6713 106.76 87.5608 106.76 84.4196V65.3496" stroke="black" stroke-width="2.01" stroke-linecap="round" stroke-linejoin="round"/>
<path d="M57.0599 69.7102H60.7799L62.4199 64.9802L58.9199 60.9902L55.4199 64.9802L57.0599 69.7102Z" fill="#592F2F" stroke="black" stroke-width="1.3" stroke-linejoin="round"/>
<path d="M104.9 69.7102H108.62L110.25 64.9802L106.76 60.9902L103.26 64.9802L104.9 69.7102Z" fill="#592F2F" stroke="black" stroke-width="1.3" stroke-linejoin="round"/>
</svg>
