<svg width="166" height="107" viewBox="0 0 166 107" fill="none" xmlns="http://www.w3.org/2000/svg">
<rect y="7" width="166" height="100" fill="#E6D4CB"/>
<path d="M139.69 33.4805L121.68 90.6905H44L26 33.4805H139.69Z" fill="#D52B3E"/>
<g style="mix-blend-mode:darken" opacity="0.5">
<path d="M137.631 39.9698L121.671 90.6898H43.9905L26.3105 34.5098L50.6505 83.5198H116.431L137.631 39.9698Z" fill="#AC2231"/>
</g>
<path d="M26 33.4805L44 90.6905H121.68L139.68 33.4805H26Z" stroke="black" stroke-width="1.01" stroke-linejoin="round"/>
<path d="M97.3598 45.3604H68.3398V54.9104H97.3598V45.3604Z" fill="#E6D4CB" stroke="#271414" stroke-width="0.75" stroke-linecap="round" stroke-linejoin="round"/>
<path d="M73.6292 53V47.8044H74.2583V52.4419H76.6735V53H73.6292ZM82.0567 50.3891C82.0567 50.9398 81.9573 51.4158 81.7584 51.8169C81.5595 52.2181 81.2867 52.5275 80.94 52.745C80.5932 52.9626 80.1972 53.0714 79.7518 53.0714C79.3065 53.0714 78.9104 52.9626 78.5636 52.745C78.2169 52.5275 77.9441 52.2181 77.7452 51.8169C77.5463 51.4158 77.4469 50.9398 77.4469 50.3891C77.4469 49.8384 77.5463 49.3624 77.7452 48.9613C77.9441 48.5601 78.2169 48.2507 78.5636 48.0332C78.9104 47.8156 79.3065 47.7068 79.7518 47.7068C80.1972 47.7068 80.5932 47.8156 80.94 48.0332C81.2867 48.2507 81.5595 48.5601 81.7584 48.9613C81.9573 49.3624 82.0567 49.8384 82.0567 50.3891ZM81.4448 50.3891C81.4448 49.9369 81.3692 49.5553 81.2179 49.2443C81.0683 48.9332 80.8652 48.6978 80.6085 48.538C80.3535 48.3782 80.068 48.2983 79.7518 48.2983C79.4356 48.2983 79.1492 48.3782 78.8925 48.538C78.6376 48.6978 78.4344 48.9332 78.2832 49.2443C78.1336 49.5553 78.0588 49.9369 78.0588 50.3891C78.0588 50.8412 78.1336 51.2228 78.2832 51.5339C78.4344 51.845 78.6376 52.0804 78.8925 52.2402C79.1492 52.4 79.4356 52.4799 79.7518 52.4799C80.068 52.4799 80.3535 52.4 80.6085 52.2402C80.8652 52.0804 81.0683 51.845 81.2179 51.5339C81.3692 51.2228 81.4448 50.8412 81.4448 50.3891ZM86.6896 49.41C86.6335 49.2383 86.5595 49.0845 86.4678 48.9485C86.3777 48.8108 86.2697 48.6935 86.1439 48.5966C86.0199 48.4998 85.8788 48.4258 85.7207 48.3748C85.5626 48.3238 85.3892 48.2983 85.2005 48.2983C84.8912 48.2983 84.6099 48.3782 84.3566 48.538C84.1033 48.6978 83.9019 48.9332 83.7523 49.2443C83.6027 49.5553 83.5279 49.9369 83.5279 50.3891C83.5279 50.8412 83.6036 51.2228 83.7549 51.5339C83.9061 51.845 84.111 52.0804 84.3693 52.2402C84.6277 52.4 84.9184 52.4799 85.2413 52.4799C85.5405 52.4799 85.804 52.4161 86.0318 52.2886C86.2612 52.1594 86.4397 51.9776 86.5672 51.743C86.6964 51.5067 86.761 51.2288 86.761 50.9092L86.9547 50.95H85.3841V50.3891H87.3729V50.95C87.3729 51.3801 87.2811 51.754 87.0975 52.0719C86.9157 52.3898 86.6641 52.6362 86.3428 52.8113C86.0233 52.9847 85.6561 53.0714 85.2413 53.0714C84.779 53.0714 84.3727 52.9626 84.0226 52.745C83.6741 52.5275 83.4021 52.2181 83.2067 51.8169C83.0129 51.4158 82.916 50.9398 82.916 50.3891C82.916 49.976 82.9712 49.6046 83.0817 49.2749C83.1939 48.9434 83.352 48.6612 83.556 48.4284C83.76 48.1955 84.0013 48.017 84.2801 47.8929C84.5589 47.7688 84.8657 47.7068 85.2005 47.7068C85.4759 47.7068 85.7326 47.7484 85.9706 47.8317C86.2102 47.9133 86.4236 48.0298 86.6105 48.181C86.7992 48.3306 86.9564 48.51 87.0822 48.719C87.208 48.9264 87.2947 49.1567 87.3423 49.41H86.6896ZM92.8618 50.3891C92.8618 50.9398 92.7624 51.4158 92.5635 51.8169C92.3646 52.2181 92.0918 52.5275 91.745 52.745C91.3983 52.9626 91.0022 53.0714 90.5569 53.0714C90.1115 53.0714 89.7155 52.9626 89.3687 52.745C89.0219 52.5275 88.7491 52.2181 88.5502 51.8169C88.3514 51.4158 88.2519 50.9398 88.2519 50.3891C88.2519 49.8384 88.3514 49.3624 88.5502 48.9613C88.7491 48.5601 89.0219 48.2507 89.3687 48.0332C89.7155 47.8156 90.1115 47.7068 90.5569 47.7068C91.0022 47.7068 91.3983 47.8156 91.745 48.0332C92.0918 48.2507 92.3646 48.5601 92.5635 48.9613C92.7624 49.3624 92.8618 49.8384 92.8618 50.3891ZM92.2499 50.3891C92.2499 49.9369 92.1742 49.5553 92.0229 49.2443C91.8734 48.9332 91.6702 48.6978 91.4136 48.538C91.1586 48.3782 90.873 48.2983 90.5569 48.2983C90.2407 48.2983 89.9543 48.3782 89.6976 48.538C89.4426 48.6978 89.2395 48.9332 89.0882 49.2443C88.9386 49.5553 88.8638 49.9369 88.8638 50.3891C88.8638 50.8412 88.9386 51.2228 89.0882 51.5339C89.2395 51.845 89.4426 52.0804 89.6976 52.2402C89.9543 52.4 90.2407 52.4799 90.5569 52.4799C90.873 52.4799 91.1586 52.4 91.4136 52.2402C91.6702 52.0804 91.8734 51.845 92.0229 51.5339C92.1742 51.2228 92.2499 50.8412 92.2499 50.3891Z" fill="#271414"/>
<path d="M106.76 43.99V24.92C106.76 18.576 104.24 12.4919 99.7539 8.00601C95.268 3.52014 89.1839 1 82.8399 1C76.4959 1 70.4118 3.52014 65.9259 8.00601C61.44 12.4919 58.9199 18.576 58.9199 24.92V43.99" stroke="black" stroke-width="2.01" stroke-linecap="round" stroke-linejoin="round"/>
<path d="M108.63 39.6299H104.9L103.27 44.3699L106.77 48.3499L110.26 44.3699L108.63 39.6299Z" fill="#592F2F" stroke="black" stroke-width="1.3" stroke-linejoin="round"/>
<path d="M60.7897 39.6299H57.0597L55.4297 44.3699L58.9297 48.3499L62.4197 44.3699L60.7897 39.6299Z" fill="#592F2F" stroke="black" stroke-width="1.3" stroke-linejoin="round"/>
<ellipse cx="84" cy="95.5" rx="34" ry="1.5" fill="#D5B8A9"/>
</svg>
