<svg width="166" height="100" viewBox="0 0 166 100" fill="none" xmlns="http://www.w3.org/2000/svg">
<rect width="166" height="100" fill="#E6D4CB"/>
<path d="M139.68 50.1294L118.51 65.6594H47.63L26 50.1294L47.62 34.6094H118.5L139.68 50.1294Z" fill="#DD454F"/>
<g style="mix-blend-mode:darken" opacity="0.5">
<path d="M139.68 50.1299L117.28 63.2999H48.04L26 50.1299L47.63 65.6599H118.51L139.68 50.1299Z" fill="#AC2231"/>
</g>
<g style="mix-blend-mode:hard-light" opacity="0.5">
<path d="M139.68 50.1294L117.28 36.9694H48.04L26 50.1294L47.63 34.6094H118.51L139.68 50.1294Z" fill="#EEB8BA"/>
</g>
<path d="M26 50.1299L47.62 65.6599H118.5L139.68 50.1299" stroke="black" stroke-width="1.01" stroke-linecap="round" stroke-linejoin="round"/>
<path d="M26 50.1294L47.62 34.6094H118.5L139.68 50.1294" stroke="black" stroke-width="1.01" stroke-linecap="round" stroke-linejoin="round"/>
<g style="mix-blend-mode:darken" opacity="0.6">
<path d="M78.0199 49.5495V48.6695C70.5299 48.1095 49.0199 47.0295 45.3899 44.5195C45.3899 44.5195 46.3899 50.6995 44.8799 55.7495C44.8799 55.7495 54.9999 51.2195 78.0199 49.5495Z" stroke="#AC2231" stroke-width="0.75" stroke-miterlimit="10"/>
</g>
<path d="M45.3899 44.5195C45.3899 44.5195 46.3899 50.6995 44.8799 55.7495C44.8799 55.7495 54.9999 51.2195 78.0199 49.5495V48.6695C70.5299 48.1095 49.0399 47.0295 45.3899 44.5195Z" fill="#961E2B"/>
<path d="M123.51 49.6002C123.51 50.2202 123.51 50.8402 123.51 51.4602C123.51 51.7302 123.43 51.8602 123.15 51.8502H121.75C121.5 51.8502 121.39 51.7602 121.39 51.5002C121.39 50.2269 121.39 48.9569 121.39 47.6902C121.39 47.4102 121.5 47.3002 121.77 47.3102H123.18C123.46 47.3102 123.57 47.4102 123.56 47.7002C123.5 48.3302 123.51 48.9602 123.51 49.6002Z" fill="#271414"/>
<path d="M118.69 49.9601C118.7 49.7803 118.7 49.6 118.69 49.4201C118.69 49.2201 118.82 48.9401 118.48 48.8501C118.48 48.8501 118.48 48.7201 118.48 48.6601V47.3701H119.48C119.572 47.8088 119.572 48.2615 119.48 48.7001C119.353 49.109 119.28 49.5324 119.26 49.9601H118.69Z" fill="#271414"/>
<path d="M106.87 47.3398H107.87C107.87 47.8198 108.03 48.3398 107.87 48.7298C107.71 49.1198 107.75 49.5298 107.64 49.9498H107.14V49.6398L106.93 47.7498C106.901 47.6147 106.881 47.4777 106.87 47.3398Z" fill="#271414"/>
<path d="M95.9905 49.9596H95.4305C95.4405 49.7664 95.4405 49.5728 95.4305 49.3796C95.4305 49.1896 95.5605 48.9296 95.2305 48.8496C95.2305 48.8496 95.2305 48.7496 95.2305 48.6996V47.3496H96.2305C96.1605 47.8696 96.4405 48.3996 96.0705 48.9396C95.9805 49.0696 96.0705 49.2996 96.0205 49.4796C95.9705 49.6596 95.9905 49.7796 95.9905 49.9596Z" fill="#271414"/>
<path d="M117.3 49.9694H116.83C116.83 49.9694 116.77 49.9694 116.77 49.8994L116.53 47.7494C116.53 47.6294 116.53 47.5094 116.53 47.3594H117.53C117.622 47.8047 117.622 48.264 117.53 48.7094C117.395 49.1164 117.317 49.5406 117.3 49.9694Z" fill="#271414"/>
<path d="M105.91 47.3496C105.91 47.8296 106.06 48.3496 105.91 48.7196C105.76 49.0896 105.79 49.5296 105.68 49.9496H105.18C105.18 49.7496 105.18 49.5496 105.18 49.3496C105.18 49.1496 105.29 48.9296 104.98 48.8496C104.98 48.8496 104.98 48.7596 104.98 48.7096C104.98 48.2696 104.98 47.8296 104.98 47.3496H105.91Z" fill="#271414"/>
<path d="M109.53 49.9596H109.02C109.02 49.8396 109.02 49.7396 109.02 49.6296C109.005 49.3149 108.941 49.0044 108.83 48.7096C108.753 48.2595 108.753 47.7997 108.83 47.3496H109.83C109.922 47.8017 109.922 48.2676 109.83 48.7196C109.669 49.116 109.568 49.5338 109.53 49.9596Z" fill="#271414"/>
<path d="M81.6299 47.3601C82.6299 47.2501 82.6299 47.2501 82.6299 48.2101C82.6299 48.4701 82.7299 48.7501 82.4399 48.9801C82.3499 49.0501 82.4399 49.3301 82.4399 49.5201C82.4399 50.0001 82.4399 50.0001 81.8899 49.9501C81.9048 49.7704 81.9048 49.5898 81.8899 49.4101C81.8899 49.2101 82.0299 48.9301 81.6799 48.8501C81.6723 48.8138 81.6723 48.7764 81.6799 48.7401C81.6299 48.2701 81.6299 47.8101 81.6299 47.3601Z" fill="#271414"/>
<path d="M103.7 49.9594H103.19C103.2 49.7695 103.2 49.5792 103.19 49.3894C103.19 49.1794 103.3 48.9294 103 48.7994C102.95 48.7994 103 48.5694 103 48.4494V47.3594H104C104.091 47.8047 104.091 48.264 104 48.7094C103.72 49.1294 103.83 49.5294 103.7 49.9594Z" fill="#271414"/>
<path d="M94.0405 49.9596H93.5205C93.4405 49.2096 93.3605 48.4796 93.2905 47.7496C93.2808 47.6165 93.2808 47.4828 93.2905 47.3496H94.2905C94.3824 47.7983 94.3824 48.2609 94.2905 48.7096C94.1434 49.111 94.0591 49.5326 94.0405 49.9596Z" fill="#271414"/>
<path d="M92.0701 49.9596H91.5801C91.5801 49.7596 91.5801 49.5696 91.5801 49.3896C91.5801 49.2096 91.6801 48.9396 91.3701 48.8496C91.3701 48.8496 91.3701 48.7496 91.3701 48.6996V47.3496H92.3701C92.3701 47.8196 92.5301 48.3496 92.3701 48.7296C92.2101 49.1096 92.1801 49.5396 92.0701 49.9596Z" fill="#271414"/>
<path d="M114.6 47.3398H115.6C115.6 47.7998 115.75 48.3398 115.6 48.6798C115.45 49.0198 115.49 49.5398 115.36 49.9698H114.91C114.89 49.9142 114.873 49.8574 114.86 49.7998C114.8 49.4598 115 49.0898 114.65 48.7998C114.54 48.6998 114.65 48.3898 114.65 48.1698L114.6 47.3398Z" fill="#271414"/>
<path d="M84.3101 49.9698H83.9C83.9 49.9698 83.84 49.9698 83.84 49.9098C83.75 49.1898 83.67 48.4698 83.59 47.7498C83.5807 47.6133 83.5807 47.4764 83.59 47.3398H84.59C84.59 47.8198 84.75 48.3398 84.59 48.7198C84.43 49.0998 84.4501 49.5498 84.3101 49.9698Z" fill="#271414"/>
<path d="M88.48 51.84C88.3986 51.4004 88.3986 50.9496 88.48 50.51C88.6153 50.1035 88.6862 49.6784 88.6901 49.25H89.18C89.18 49.25 89.18 49.25 89.18 49.32L89.42 51.46C89.429 51.5865 89.429 51.7135 89.42 51.84H88.48Z" fill="#271414"/>
<path d="M112.699 51.84H111.699C111.608 51.398 111.608 50.942 111.699 50.5C111.833 50.0965 111.904 49.675 111.909 49.25H112.359C112.367 49.293 112.367 49.337 112.359 49.38C112.359 49.7557 112.427 50.1283 112.559 50.48C112.692 50.9203 112.74 51.3819 112.699 51.84Z" fill="#271414"/>
<path d="M90.1798 49.9697H89.6798C89.6798 49.7897 89.6798 49.6197 89.6798 49.4497C89.6798 49.2797 89.7898 48.9796 89.4798 48.8196C89.4198 48.8196 89.4798 48.5396 89.4798 48.3896V47.3896H90.4798C90.4798 47.8396 90.6398 48.3896 90.4798 48.7496C90.3198 49.1096 90.2898 49.5697 90.1798 49.9697Z" fill="#271414"/>
<path d="M85.5198 47.3398H86.5198C86.5198 47.8198 86.6798 48.3398 86.5198 48.7298C86.3598 49.1198 86.4198 49.5398 86.3098 49.9598H85.8498C85.8498 49.9598 85.8498 49.9598 85.8498 49.8998L85.6098 47.7798C85.5098 47.6498 85.5198 47.4698 85.5198 47.3398Z" fill="#271414"/>
<path d="M102.95 51.84H102.05C102.025 51.3904 102.025 50.9396 102.05 50.49C102.131 50.0714 102.234 49.6574 102.36 49.25H102.77C102.69 50.12 103.27 50.94 102.95 51.84Z" fill="#271414"/>
<path d="M101.79 49.9593H101.33V49.8993C101.25 49.1693 101.18 48.4393 101.09 47.7093C101.04 47.3093 101.28 47.2993 101.55 47.3193C101.82 47.3393 102.12 47.2193 102.08 47.6793C102.04 48.1393 102.21 48.4293 102.08 48.6793C101.884 49.0772 101.784 49.5158 101.79 49.9593Z" fill="#271414"/>
<path d="M97.88 49.9596H97.38C97.38 49.7996 97.38 49.6496 97.38 49.4896C97.38 49.3296 97.47 49.0096 97.19 48.7996C97.09 48.7296 97.19 48.4196 97.19 48.2196V47.3496H98.19C98.19 47.8096 98.35 48.3496 98.19 48.7196C98.03 49.0896 98.01 49.5496 97.88 49.9596Z" fill="#271414"/>
<path d="M86.5397 51.8393C86.4581 51.403 86.4581 50.9555 86.5397 50.5193C86.6669 50.1046 86.731 49.673 86.7297 49.2393H87.2297C87.2297 49.3593 87.2297 49.4593 87.2297 49.5693L87.4397 51.3793C87.4397 51.5193 87.4397 51.6693 87.4397 51.8393H86.5397Z" fill="#271414"/>
<path d="M113.94 49.2393H114.4V49.5493C114.47 50.1693 114.55 50.7893 114.62 51.3993C114.62 51.5393 114.62 51.6693 114.62 51.8293H113.62C113.534 51.3969 113.534 50.9517 113.62 50.5193C113.781 50.1079 113.888 49.6778 113.94 49.2393Z" fill="#271414"/>
<path d="M115.81 49.2295H116.3C116.3 49.2295 116.3 49.2895 116.3 49.3095L116.54 51.3995C116.54 51.5295 116.54 51.6595 116.54 51.8295H115.54C115.65 51.2895 115.39 50.7395 115.73 50.1895C115.92 49.9695 115.81 49.5895 115.81 49.2295Z" fill="#271414"/>
<path d="M110.04 49.2393H110.52C110.6 49.9993 110.69 50.7493 110.76 51.4993C110.76 51.5993 110.76 51.7093 110.76 51.8393H109.76C109.674 51.4002 109.674 50.9484 109.76 50.5093C109.903 50.0984 109.997 49.6721 110.04 49.2393Z" fill="#271414"/>
<path d="M99.1801 51.8393H98.1801C98.0884 51.404 98.0884 50.9545 98.1801 50.5193C98.3122 50.1048 98.3862 49.674 98.4001 49.2393H98.8902C98.8902 49.4393 98.8902 49.6093 98.8902 49.7793C98.8902 49.9493 98.8102 50.2493 99.0802 50.4193C99.1602 50.4193 99.1301 50.6993 99.1301 50.8493L99.1801 51.8393Z" fill="#271414"/>
<path d="M92.6002 49.2295H93.0502V49.2995C93.1302 50.0095 93.2102 50.7195 93.2802 51.4295C93.2902 51.5626 93.2902 51.6963 93.2802 51.8295H92.2802C92.1944 51.3869 92.1944 50.932 92.2802 50.4895C92.4489 50.0877 92.5568 49.6631 92.6002 49.2295Z" fill="#271414"/>
<path d="M85.5898 51.85H84.5898C84.6798 51.29 84.4099 50.74 84.7699 50.19C84.9099 49.98 84.7699 49.59 84.7699 49.25H85.2598V49.36C85.2519 49.7494 85.3198 50.1366 85.4599 50.5C85.5903 50.9373 85.6344 51.3958 85.5898 51.85Z" fill="#271414"/>
<path d="M113.66 47.3596C113.752 47.8015 113.752 48.2576 113.66 48.6996C113.523 49.106 113.449 49.5308 113.44 49.9596H112.92C112.93 49.8031 112.93 49.6461 112.92 49.4896C112.92 49.2596 113.03 48.9996 112.73 48.8096C112.65 48.8096 112.73 48.4796 112.73 48.3096C112.73 48.1396 112.73 47.6896 112.73 47.3096L113.66 47.3596Z" fill="#271414"/>
<path d="M111.719 47.3199C111.719 47.8299 111.879 48.3799 111.719 48.7199C111.559 49.0599 111.599 49.5299 111.489 49.9499H111.009C111.02 49.8334 111.02 49.7163 111.009 49.5999C110.996 49.3226 110.939 49.0491 110.839 48.7899C110.744 48.345 110.744 47.8848 110.839 47.4399C110.839 47.4399 110.979 47.3299 111.059 47.3299C111.179 47.3099 111.419 47.3199 111.719 47.3199Z" fill="#271414"/>
<path d="M108.11 49.2393H108.59C108.67 49.9793 108.76 50.7193 108.84 51.4493C108.85 51.5758 108.85 51.7028 108.84 51.8293H107.84C107.754 51.3969 107.754 50.9516 107.84 50.5193C107.985 50.1059 108.075 49.6757 108.11 49.2393Z" fill="#271414"/>
<path d="M95.3503 51.8393H94.2903C94.2903 51.3793 94.1403 50.8393 94.2903 50.5093C94.4403 50.1793 94.4103 49.6693 94.5203 49.2393H94.9603C94.9603 49.2393 94.9603 49.2393 94.9603 49.2993C95.1803 50.1293 95.2403 50.9493 95.3503 51.8393Z" fill="#271414"/>
<path d="M88.1799 49.9596H87.7299C87.6299 49.3196 87.5 48.6996 87.46 48.0796C87.46 47.2696 87.4599 47.2696 88.2599 47.3296H88.4399C88.4399 47.7796 88.5899 48.3296 88.4399 48.6896C88.2899 49.0496 88.3199 49.5496 88.1799 49.9596Z" fill="#271414"/>
<path d="M91.3997 51.8395H90.3997C90.3134 51.397 90.3134 50.942 90.3997 50.4995C90.5422 50.0914 90.6132 49.6617 90.6097 49.2295H91.0497C91.0497 49.2295 91.0997 49.2295 91.0997 49.3095L91.3397 51.3895C91.4097 51.5295 91.3997 51.6595 91.3997 51.8395Z" fill="#271414"/>
<path d="M119.73 49.2393H120.23C120.215 49.439 120.215 49.6395 120.23 49.8393C120.28 50.0128 120.34 50.1831 120.41 50.3493C120.425 50.4521 120.425 50.5564 120.41 50.6593C120.41 51.0493 120.41 51.4393 120.41 51.8393H119.41C119.41 51.3693 119.26 50.8393 119.41 50.4893C119.577 50.0904 119.685 49.6693 119.73 49.2393Z" fill="#271414"/>
<path d="M117.81 49.2393H118.31C118.31 49.4293 118.31 49.5893 118.31 49.7393C118.31 49.8893 118.25 50.1993 118.49 50.3993C118.73 50.5993 118.49 50.7793 118.54 50.9793V51.8393H117.54C117.54 51.3793 117.39 50.8393 117.54 50.5193C117.688 50.107 117.779 49.6763 117.81 49.2393Z" fill="#271414"/>
<path d="M99.3397 49.9596C99.2497 49.1896 99.1697 48.4496 99.0897 47.6996C99.0808 47.5831 99.0808 47.4661 99.0897 47.3496H100.09C100.176 47.7887 100.176 48.2405 100.09 48.6796C99.9488 49.0919 99.8746 49.524 99.8697 49.9596H99.3397Z" fill="#271414"/>
<path d="M81.7204 51.8393H80.7204C80.7204 51.3793 80.5804 50.8393 80.7204 50.5193C80.8605 50.1065 80.938 49.675 80.9504 49.2393H81.4204C81.4204 49.3993 81.4204 49.5593 81.4204 49.7093C81.4204 49.8593 81.3704 50.1893 81.6104 50.3993C81.8504 50.6093 81.6104 50.8093 81.6604 51.0293L81.7204 51.8393Z" fill="#271414"/>
<path d="M82.9196 49.2393H83.4196C83.4096 49.4058 83.4096 49.5727 83.4196 49.7393C83.4196 49.9593 83.3296 50.2093 83.6096 50.3793C83.6796 50.3793 83.6096 50.6593 83.6096 50.7993V51.7993H82.6096C82.6096 51.3393 82.4596 50.7993 82.6096 50.4293C82.7596 50.0593 82.7996 49.6593 82.9196 49.2393Z" fill="#271414"/>
<path d="M105.92 51.8293C105.834 51.3868 105.834 50.9317 105.92 50.4893C106.054 50.0855 106.128 49.6644 106.14 49.2393H106.64C106.63 49.4058 106.63 49.5727 106.64 49.7393C106.64 49.9693 106.56 50.2193 106.82 50.4193C107.08 50.6193 106.82 50.7993 106.87 50.9993V51.8493L105.92 51.8293Z" fill="#271414"/>
<path d="M104.25 49.21H104.71C104.71 49.34 104.71 49.44 104.71 49.54C104.79 50.09 104.88 50.64 104.95 51.19C104.95 51.38 104.95 51.58 104.95 51.81H103.95C103.95 51.36 103.81 50.81 103.95 50.5C104.117 50.0885 104.219 49.6531 104.25 49.21Z" fill="#271414"/>
<path d="M96.1797 51.8393C96.0924 51.407 96.0924 50.9616 96.1797 50.5293C96.3206 50.1136 96.3949 49.6782 96.3997 49.2393H96.8397C96.8427 49.2658 96.8427 49.2927 96.8397 49.3193C96.8955 49.7173 97.0101 50.1049 97.1797 50.4693C97.2659 50.9185 97.2659 51.38 97.1797 51.8293L96.1797 51.8393Z" fill="#271414"/>
<path d="M100.32 49.2393H100.84C100.92 49.9893 101 50.7093 101.07 51.4293C101.08 51.5658 101.08 51.7028 101.07 51.8393H100.13C100.23 51.2693 99.9702 50.7193 100.32 50.1693C100.43 49.9593 100.32 49.5893 100.32 49.2393Z" fill="#271414"/>
<path d="M120.47 47.3496H121.01V48.7396C121.01 49.0796 121.01 49.4196 121.01 49.7396C121.01 49.8196 120.92 49.8896 120.86 49.9696C120.8 49.8979 120.753 49.8168 120.72 49.7296C120.71 49.6098 120.71 49.4894 120.72 49.3696C120.72 49.1796 120.82 48.9396 120.53 48.8196C120.47 48.8196 120.53 48.5696 120.53 48.4396L120.47 47.3496Z" fill="#271414"/>
<path d="M71.9602 46.9395H72.9602C73.0539 47.4487 73.0266 47.9728 72.8802 48.4695C72.7984 48.7281 72.7579 48.9981 72.7602 49.2695C72.7602 49.5295 72.7602 49.5294 72.4702 49.5294L72.1802 49.4695C72.1802 49.2395 72.1802 49.0095 72.1102 48.7895C72.0934 48.6428 72.0599 48.4985 72.0102 48.3595C71.8952 47.8947 71.8782 47.4111 71.9602 46.9395Z" fill="#271414"/>
<path d="M59.7796 53.0193C59.7196 52.6993 59.6596 52.4093 59.6096 52.1093C59.5846 52.0142 59.5846 51.9143 59.6096 51.8193C59.7143 51.4008 59.7347 50.9657 59.6696 50.5393V50.4093C60.1296 50.3093 60.1096 50.3093 60.2296 50.7593C60.2996 51.0493 60.4496 51.3193 60.5196 51.6093C60.5972 51.9146 60.6507 52.2256 60.6796 52.5393C60.6796 52.9193 60.6796 52.9193 60.3396 52.9693L59.7796 53.0193Z" fill="#271414"/>
<path d="M74.6497 49.5696C74.2097 49.5696 74.2297 49.5696 74.1597 49.1896C74.1213 48.9013 74.0577 48.6168 73.9697 48.3396C73.9046 47.9892 73.9046 47.6299 73.9697 47.2796C73.9697 46.9796 74.0397 46.9396 74.3397 46.9496H74.9497C74.9497 47.2896 74.9497 47.6096 75.0197 47.9496C75.0236 48.0454 75.0066 48.141 74.9697 48.2296C74.8022 48.5826 74.7168 48.9689 74.7197 49.3596C74.7056 49.4323 74.682 49.5029 74.6497 49.5696Z" fill="#271414"/>
<path d="M75.8398 47.0801H76.8398C76.8398 47.4301 76.8398 47.7601 76.8898 48.0801C76.9057 48.1559 76.9057 48.2342 76.8898 48.3101C76.7264 48.6641 76.6444 49.0502 76.6498 49.4401C76.6547 49.51 76.6547 49.5802 76.6498 49.6501H76.1299C76.1299 49.4001 76.1299 49.1601 76.1299 48.9301C76.137 48.8555 76.1262 48.7802 76.0984 48.7107C76.0705 48.6411 76.0265 48.5792 75.9698 48.5301C75.9475 48.5136 75.9289 48.4926 75.9151 48.4685C75.9013 48.4444 75.8927 48.4177 75.8898 48.3901L75.8398 47.0801Z" fill="#271414"/>
<path d="M80.7494 47.1802C80.7494 47.5402 80.7493 47.8702 80.7993 48.1802C80.8145 48.2493 80.8145 48.321 80.7993 48.3902C80.639 48.7589 80.5605 49.1581 80.5694 49.5602C80.5694 49.7102 80.5693 49.7902 80.3593 49.7502C80.1493 49.7102 80.2094 49.7502 80.1494 49.7502C80.0894 49.7502 80.0093 49.6702 80.0093 49.6302C79.9193 48.8502 79.8393 48.0802 79.7693 47.3002C79.7644 47.2536 79.7644 47.2067 79.7693 47.1602L80.7494 47.1802Z" fill="#271414"/>
<path d="M77.7798 47.1201H78.7798C78.8899 47.6221 78.8588 48.1448 78.6898 48.6301C78.6202 48.8154 78.5863 49.0122 78.5898 49.2101C78.5898 49.3801 78.5898 49.5401 78.5198 49.7201H78.3298C78.0198 49.7201 77.9898 49.7201 77.9998 49.3701C77.9998 49.2701 77.9998 49.1601 77.9998 49.0601C77.9866 48.908 77.9387 48.7609 77.8598 48.6301C77.7591 48.4917 77.716 48.3196 77.7398 48.1501C77.7898 47.8001 77.7798 47.4701 77.7798 47.1201Z" fill="#271414"/>
<path d="M60.3298 46.0898L61.3298 46.1898C61.3298 46.5498 61.3298 46.8998 61.3298 47.1898C61.3287 47.2691 61.3117 47.3473 61.2798 47.4198C61.1138 47.7258 61.0376 48.0724 61.0598 48.4198C61.0598 48.5198 61.0598 48.6198 61.0098 48.7498H60.4898V48.1298C60.5068 48.032 60.4993 47.9314 60.4679 47.8371C60.4365 47.7429 60.3821 47.6579 60.3098 47.5898C60.2788 47.5575 60.2609 47.5147 60.2598 47.4698C60.3198 46.9798 60.3298 46.5498 60.3298 46.0898Z" fill="#271414"/>
<path d="M56.4897 45.6602L57.3797 45.7602C57.4086 45.7719 57.4339 45.7911 57.4532 45.8156C57.4725 45.8401 57.4851 45.8693 57.4897 45.9002C57.5213 46.159 57.5379 46.4194 57.5397 46.6802C57.55 46.8065 57.5294 46.9335 57.4797 47.0502C57.3439 47.3659 57.2758 47.7065 57.2797 48.0502C57.2797 48.1602 57.2797 48.2702 57.2797 48.3902L56.7497 48.3202C56.6497 47.4102 56.4797 46.5602 56.4897 45.6602Z" fill="#271414"/>
<path d="M52.8396 47.7699C52.8396 47.5099 52.8396 47.2799 52.8396 47.0499C52.848 46.9731 52.8389 46.8954 52.8129 46.8226C52.7869 46.7499 52.7448 46.684 52.6896 46.6299C52.664 46.6113 52.6426 46.5873 52.6271 46.5597C52.6116 46.5321 52.6022 46.5015 52.5996 46.4699C52.5996 46.0299 52.5996 45.5999 52.5996 45.1299L53.5996 45.2799C53.5996 45.6099 53.5996 45.9299 53.6496 46.2799C53.6751 46.3749 53.6751 46.4749 53.6496 46.5699C53.5013 46.8568 53.429 47.177 53.4396 47.4999C53.4396 47.6199 53.4396 47.7399 53.3796 47.8799L52.8396 47.7699Z" fill="#271414"/>
<path d="M58.9294 53.1596L57.8794 53.3296C57.7455 52.917 57.6945 52.482 57.7294 52.0496C57.8126 51.7437 57.8364 51.4246 57.7994 51.1096C57.8044 51.0197 57.8044 50.9296 57.7994 50.8396C57.7949 50.8176 57.7954 50.7948 57.8009 50.773C57.8064 50.7512 57.8167 50.7309 57.8311 50.7136C57.8455 50.6963 57.8636 50.6825 57.8841 50.6731C57.9046 50.6638 57.9269 50.6592 57.9494 50.6596C58.0191 50.6499 58.0898 50.6499 58.1594 50.6596C58.1594 50.6596 58.2994 50.6596 58.3094 50.7496C58.5094 51.5196 58.7194 52.3296 58.9294 53.1596Z" fill="#271414"/>
<path d="M48.7598 44.4697L49.7598 44.6397C49.7598 44.9697 49.8098 45.2997 49.8198 45.6397C49.8229 45.7505 49.7988 45.8604 49.7498 45.9597C49.6174 46.2409 49.5523 46.549 49.5598 46.8597C49.5516 46.9774 49.5348 47.0944 49.5098 47.2097L49.0998 47.1397C49.0755 47.1308 49.0536 47.1162 49.0362 47.097C49.0188 47.0779 49.0063 47.0548 48.9998 47.0297C48.9098 46.1897 48.8398 45.3597 48.7598 44.5197C48.7636 44.5033 48.7636 44.4862 48.7598 44.4697Z" fill="#271414"/>
<path d="M70.0397 46.7998L71.0397 46.8598C71.1419 47.3664 71.1074 47.891 70.9397 48.3798C70.8667 48.5991 70.8296 48.8287 70.8297 49.0598C70.8297 49.1798 70.8297 49.2998 70.7797 49.4198C70.3197 49.4198 70.2897 49.4198 70.2397 49.0298C70.1597 48.4398 70.0897 47.8398 70.0297 47.2398C70.023 47.0931 70.0264 46.9461 70.0397 46.7998Z" fill="#271414"/>
<path d="M69.3499 51.9095L69.1899 51.0595C69.1698 50.9504 69.1698 50.8386 69.1899 50.7295C69.2978 50.3017 69.3316 49.8587 69.2899 49.4195C69.2899 49.4195 69.2899 49.3495 69.2899 49.2995L69.7899 49.2295C69.7899 49.4595 69.8399 49.6595 69.8599 49.8595C69.8599 49.9637 69.8822 50.0667 69.9253 50.1616C69.9684 50.2564 70.0314 50.341 70.1099 50.4095C70.1325 50.4279 70.1512 50.4507 70.165 50.4764C70.1787 50.5022 70.1872 50.5304 70.1899 50.5595C70.1899 50.9695 70.2699 51.3895 70.3099 51.8295L69.3499 51.9095Z" fill="#271414"/>
<path d="M54.5494 45.4102C54.8594 45.4102 55.1494 45.4802 55.4394 45.5302C55.4655 45.5408 55.4888 45.557 55.5079 45.5778C55.5269 45.5985 55.5411 45.6233 55.5494 45.6502C55.5892 45.8982 55.6093 46.149 55.6094 46.4002C55.5837 46.583 55.5436 46.7636 55.4894 46.9402C55.4394 47.1902 55.3794 47.4402 55.3394 47.6902C55.2694 48.1202 55.3394 48.1302 54.8894 48.0502H54.7794C54.7794 47.8002 54.7794 47.5502 54.7794 47.3002C54.7925 47.2299 54.7831 47.1573 54.7526 47.0927C54.7221 47.028 54.6719 46.9747 54.6094 46.9402C54.592 46.9272 54.5777 46.9107 54.5673 46.8917C54.557 46.8727 54.5508 46.8517 54.5494 46.8302C54.5394 46.3502 54.5494 45.8802 54.5494 45.4102Z" fill="#271414"/>
<path d="M46.8302 44.1299L47.8302 44.3199C47.8302 44.6899 47.8302 45.0499 47.8802 45.4199C47.8792 45.4832 47.862 45.5451 47.8302 45.5999C47.6744 45.8844 47.5984 46.2057 47.6102 46.5299C47.6151 46.5998 47.6151 46.67 47.6102 46.7399C47.6102 46.8699 47.5502 46.8899 47.4302 46.8699C47.1002 46.8099 47.1002 46.8099 47.0702 46.4799L46.8602 44.6099C46.8202 44.4699 46.8302 44.2999 46.8302 44.1299Z" fill="#271414"/>
<path d="M51.4204 47.5394C51.3072 47.5464 51.1936 47.5464 51.0804 47.5394C51.0484 47.5273 51.0194 47.5086 50.9953 47.4845C50.9711 47.4603 50.9524 47.4313 50.9404 47.3994C50.8504 46.7494 50.7504 46.0894 50.6904 45.3994C50.6304 44.7094 50.6904 44.7794 51.2604 44.8894C51.8304 44.9994 51.6704 44.9794 51.7004 45.4094C51.7004 45.5794 51.7004 45.7594 51.7004 45.9294C51.7081 46.0534 51.684 46.1773 51.6304 46.2894C51.4989 46.5744 51.4339 46.8856 51.4404 47.1994C51.4604 47.2994 51.4404 47.4094 51.4204 47.5394Z" fill="#271414"/>
<path d="M66.3802 49.2098C66.3802 48.9498 66.3802 48.6998 66.3802 48.4598C66.3927 48.3898 66.3864 48.3176 66.3618 48.2508C66.3372 48.184 66.2952 48.125 66.2401 48.0798C66.2168 48.0599 66.1977 48.0354 66.184 48.0079C66.1702 47.9805 66.1621 47.9505 66.1602 47.9198C66.1602 47.5098 66.1602 47.0898 66.1602 46.6698C66.1602 46.6698 66.1602 46.6698 66.1602 46.5898L67.1602 46.6498C67.255 47.1083 67.255 47.5814 67.1602 48.0398C67.0762 48.3097 67.0225 48.5881 67.0002 48.8698C67.0002 49.2198 67.0002 49.2198 66.6302 49.2198L66.3802 49.2098Z" fill="#271414"/>
<path d="M75.0901 51.5497C75.0329 51.2926 74.9928 51.032 74.9701 50.7697C74.9553 50.5599 74.9553 50.3494 74.9701 50.1397C74.9701 49.8497 75.0301 49.5597 75.0501 49.2597C75.0501 49.1697 75.0501 49.0697 75.0501 48.9497C75.1799 48.94 75.3103 48.94 75.4401 48.9497C75.4401 48.9497 75.5401 49.0197 75.5601 49.0597C75.5801 49.0997 75.5601 49.3297 75.6301 49.4597C75.6688 49.6622 75.7292 49.86 75.8101 50.0497C75.9311 50.3021 75.9894 50.5799 75.9801 50.8597V51.4697L75.0901 51.5497Z" fill="#271414"/>
<path d="M61.5994 50.1098L62.0894 50.0098C62.0894 50.2798 62.1594 50.5198 62.1894 50.7698C62.1916 50.8478 62.2128 50.924 62.2511 50.992C62.2895 51.0599 62.3438 51.1175 62.4094 51.1598C62.4552 51.1897 62.4875 51.2364 62.4994 51.2898C62.5594 51.7298 62.6194 52.1598 62.6794 52.6098L61.6794 52.7498C61.5204 52.2665 61.4792 51.7522 61.5594 51.2498C61.5948 51.0077 61.5948 50.7618 61.5594 50.5198C61.6194 50.3898 61.5994 50.2698 61.5994 50.1098Z" fill="#271414"/>
<path d="M69.0898 46.7693C69.0898 47.0293 69.0898 47.2693 69.1498 47.5093C69.159 47.7484 69.1181 47.9868 69.0298 48.2093C68.954 48.4806 68.9038 48.7585 68.8799 49.0393C68.8799 49.3393 68.8798 49.3393 68.5498 49.3193H68.3298V48.5593C68.3397 48.4984 68.3306 48.4361 68.3037 48.3806C68.2769 48.3251 68.2337 48.2793 68.1798 48.2493C68.1798 48.2493 68.0898 48.1793 68.0898 48.1393V46.7393L69.0898 46.7693Z" fill="#271414"/>
<path d="M44.8804 43.7393C45.1204 43.7393 45.3304 43.7993 45.5304 43.8493C45.6295 43.8569 45.7216 43.9031 45.787 43.9779C45.8524 44.0527 45.886 44.1501 45.8804 44.2493C45.8804 44.5593 45.8804 44.8793 45.8804 45.2493C45.8789 45.3548 45.8358 45.4554 45.7604 45.5293C45.7182 45.5685 45.6855 45.6167 45.6647 45.6704C45.6439 45.7241 45.6356 45.7819 45.6404 45.8393C45.6404 46.0093 45.6404 46.1793 45.6404 46.3493C45.6404 46.5193 45.5504 46.5693 45.3904 46.5293C45.3279 46.5234 45.267 46.5065 45.2104 46.4793C45.1561 46.4383 45.1145 46.3829 45.0904 46.3193C45.0904 46.0993 45.0904 45.8793 45.0904 45.6593C45.0876 45.5529 45.0488 45.4507 44.9804 45.3693C44.937 45.3396 44.9021 45.299 44.8793 45.2517C44.8565 45.2043 44.8465 45.1517 44.8504 45.0993L44.8804 43.7393Z" fill="#271414"/>
<path d="M62.25 46.2793L63.25 46.3593C63.25 46.6193 63.25 46.8693 63.25 47.1093C63.2246 47.3317 63.1845 47.5522 63.13 47.7693C63.13 48.0793 63.02 48.3893 62.99 48.6993C62.96 49.0093 62.93 48.9693 62.74 48.9193C62.6437 48.9079 62.5463 48.9079 62.45 48.9193L62.25 46.2793Z" fill="#271414"/>
<path d="M47.0295 53.1494C47.0143 53.3992 47.0143 53.6496 47.0295 53.8994C47.0631 54.0068 47.1138 54.1081 47.1795 54.1994C47.1795 54.1994 47.2595 54.2994 47.2595 54.3594C47.2595 54.7594 47.2795 55.1594 47.3195 55.5594C47.3195 55.5851 47.3119 55.6102 47.2977 55.6315C47.2835 55.6529 47.2632 55.6695 47.2395 55.6794C46.9495 55.7794 46.6495 55.8494 46.3495 55.9394C46.3092 55.7011 46.2825 55.4607 46.2695 55.2194C46.2874 54.9742 46.3208 54.7304 46.3695 54.4894C46.3695 54.2494 46.4395 53.9994 46.4595 53.7494C46.5695 53.1794 46.4495 53.2994 47.0295 53.1494Z" fill="#271414"/>
<path d="M72.1804 51.6999L71.1804 51.7599C71.0437 51.2821 71.0164 50.7797 71.1004 50.2899C71.1358 49.9842 71.1358 49.6755 71.1004 49.3699C71.1004 49.2699 71.1004 49.1499 71.2404 49.1299C71.5904 49.1299 71.5904 49.1299 71.6404 49.3199C71.7804 49.9799 71.9304 50.6399 72.0704 51.3199C72.1135 51.4446 72.1502 51.5714 72.1804 51.6999Z" fill="#271414"/>
<path d="M48.8603 52.6299C48.8603 52.8399 48.9203 53.0399 48.9703 53.2299C49.0203 53.4199 49.0703 53.5599 49.1103 53.7299C49.181 53.946 49.2378 54.1665 49.2803 54.3899C49.3053 54.6025 49.3053 54.8173 49.2803 55.0299C49.2781 55.0627 49.2678 55.0945 49.2504 55.1224C49.2329 55.1503 49.2088 55.1735 49.1803 55.1899L48.3003 55.4199C48.2554 54.971 48.2554 54.5188 48.3003 54.0699C48.4368 53.6495 48.4542 53.1995 48.3503 52.7699L48.8603 52.6299Z" fill="#271414"/>
<path d="M68.4304 51.9897L67.4304 52.0797C67.3002 51.6389 67.2594 51.1765 67.3104 50.7197C67.3639 50.4228 67.3873 50.1213 67.3804 49.8197V49.4697H67.4404C67.8104 49.4697 67.8104 49.4697 67.9104 49.7997C68.0104 50.1297 68.1804 50.7997 68.3004 51.2997C68.3604 51.4697 68.3904 51.7297 68.4304 51.9897Z" fill="#271414"/>
<path d="M56.9405 53.47L55.9405 53.65C55.799 53.1701 55.7615 52.6655 55.8304 52.17C55.8705 51.858 55.8705 51.5421 55.8304 51.23C55.8304 51.06 55.8305 50.99 56.0305 50.97C56.2305 50.95 56.3105 50.91 56.3805 51.2C56.5405 51.86 56.6905 52.52 56.8505 53.2C56.8868 53.2878 56.9169 53.378 56.9405 53.47Z" fill="#271414"/>
<path d="M45.4602 56.23L44.4602 56.52C44.3659 56.0208 44.3933 55.5063 44.5402 55.02C44.6251 54.7411 44.6689 54.4514 44.6702 54.16C44.6702 53.85 44.6702 53.85 44.9902 53.76L45.1502 53.71C45.1502 53.92 45.1502 54.12 45.1502 54.33C45.139 54.4186 45.1495 54.5086 45.1809 54.5922C45.2122 54.6758 45.2635 54.7506 45.3302 54.81C45.3715 54.8567 45.393 54.9177 45.3902 54.98C45.4602 55.39 45.4602 55.8 45.4602 56.23Z" fill="#271414"/>
<path d="M59.3704 45.9894C59.3704 46.3194 59.4304 46.6294 59.4204 46.9894C59.4243 47.1561 59.3865 47.3211 59.3104 47.4695C59.2112 47.6423 59.166 47.8407 59.1804 48.0395C59.1804 48.2195 59.1804 48.3995 59.1804 48.6095L58.6304 48.5495C58.6304 48.2995 58.6304 48.0595 58.6304 47.8195C58.6304 47.5795 58.6304 47.5195 58.4604 47.4395C58.4428 47.4246 58.4284 47.4062 58.4181 47.3856C58.4077 47.365 58.4017 47.3425 58.4004 47.3195C58.4004 46.8695 58.4004 46.4195 58.4004 45.9395L59.3704 45.9894Z" fill="#271414"/>
<path d="M54.0802 54.0501C53.9361 53.5498 53.9053 53.0237 53.9902 52.5101C54.0396 52.1987 54.0396 51.8815 53.9902 51.5701C53.9902 51.2801 54.2102 51.3701 54.3402 51.3201C54.4702 51.2701 54.5002 51.4101 54.5202 51.5001C54.6702 52.1401 54.8202 52.7701 54.9602 53.4101C54.9602 53.5501 54.9602 53.7001 55.0202 53.8601L54.0802 54.0501Z" fill="#271414"/>
<path d="M64.97 49.09C64.8402 49.1008 64.7098 49.1008 64.58 49.09C64.5487 49.0699 64.5218 49.0435 64.5012 49.0125C64.4805 48.9815 64.4665 48.9466 64.46 48.91C64.38 48.3 64.32 47.69 64.25 47.08C64.25 46.97 64.25 46.86 64.25 46.75C64.25 46.64 64.33 46.46 64.53 46.46H65.02C65.2 46.46 65.26 46.59 65.27 46.75C65.28 46.91 65.27 47.21 65.27 47.43C65.2677 47.582 65.2336 47.7319 65.17 47.87C65.0572 48.1598 65.0028 48.469 65.01 48.78L64.97 49.09Z" fill="#271414"/>
<path d="M50.7295 52.1494L51.2295 54.6694L50.2295 54.9094C50.1204 54.4371 50.1035 53.9482 50.1795 53.4694C50.2541 53.1416 50.2744 52.8038 50.2395 52.4694C50.2395 52.2794 50.2995 52.1994 50.4695 52.1794C50.5569 52.1772 50.6439 52.1671 50.7295 52.1494Z" fill="#271414"/>
<path d="M74.18 51.5895L73.18 51.6495C73.0634 51.1924 73.0362 50.717 73.1 50.2495C73.1554 49.9462 73.1756 49.6375 73.16 49.3295C73.16 49.0295 73.16 49.0295 73.46 49.0195H73.67C73.81 49.8695 74.03 50.6995 74.18 51.5895Z" fill="#271414"/>
<path d="M65.55 52.2694C65.3349 51.4093 65.3349 50.5095 65.55 49.6494H65.87C66.02 50.1294 66.17 50.5894 66.31 51.0494C66.4312 51.3679 66.4758 51.7105 66.44 52.0494C66.4313 52.0854 66.414 52.1187 66.3896 52.1466C66.3652 52.1744 66.3345 52.196 66.3 52.2094C66.06 52.2294 65.81 52.2394 65.55 52.2694Z" fill="#271414"/>
<path d="M53.0999 54.2497L52.1799 54.4697C52.0598 54.0064 52.0292 53.5244 52.0899 53.0497C52.1438 52.7663 52.1672 52.478 52.1599 52.1897V51.8497C52.6199 51.6897 52.6199 51.6897 52.7199 52.1297C52.8199 52.5697 52.9699 53.2697 53.0899 53.8397C53.0899 53.9597 53.0799 54.0997 53.0999 54.2497Z" fill="#271414"/>
<path d="M79.8694 51.35H78.9193C78.9193 50.8 78.7094 50.23 78.9894 49.66C79.0694 49.5 78.9894 49.26 78.9894 49.05C78.9894 48.84 78.9894 48.89 78.9894 48.79H79.4294C79.4294 48.79 79.5393 48.86 79.5393 48.9C79.6693 49.71 79.7893 50.52 79.9193 51.33C79.8793 51.3 79.8694 51.31 79.8694 51.35Z" fill="#271414"/>
<path d="M77.9702 51.4699C77.6702 51.4699 77.4002 51.4699 77.1302 51.4699C77.1014 51.46 77.0749 51.4442 77.0526 51.4236C77.0302 51.4029 77.0123 51.3778 77.0002 51.3499C76.9548 51.1357 76.9247 50.9185 76.9102 50.6999C76.9102 50.4999 76.9102 50.2899 76.9702 50.0899C77.0302 49.8899 77.0401 49.6799 77.0501 49.4799C77.0601 49.2799 77.0501 49.0899 77.0501 48.9199H77.1101C77.5301 48.9199 77.5301 48.9199 77.6101 49.2999C77.7101 49.8699 77.8201 50.4299 77.9201 50.9999C77.9501 51.0799 77.9502 51.2299 77.9702 51.4699Z" fill="#271414"/>
<path d="M64.5995 52.3796L63.6494 52.4896C63.5894 52.1296 63.5294 51.7796 63.4894 51.4296C63.4491 51.2789 63.4491 51.1203 63.4894 50.9696C63.5891 50.7019 63.5891 50.4073 63.4894 50.1396C63.4894 50.0596 63.4895 49.9796 63.4395 49.8696L63.9594 49.8096L64.5995 52.3796Z" fill="#271414"/>
<path d="M102.82 49.35C102.82 50.35 102.82 51.26 102.82 52.22C102.82 52.75 102.65 52.89 102.13 52.85C98.9102 52.54 93.7001 52.27 90.4901 51.97C89.9401 51.97 89.4001 51.84 88.8501 51.81C88.5901 51.81 88.5301 51.68 88.5401 51.45C88.5601 51.2372 88.5601 51.0229 88.5401 50.81C88.5401 50.67 88.4802 50.46 88.3902 50.42C88.0802 50.27 88.1201 50.02 88.1201 49.77V49C88.093 48.8593 88.1037 48.7138 88.1511 48.5786C88.1985 48.4433 88.281 48.323 88.3902 48.23C88.5502 48.11 88.5401 47.74 88.5501 47.48C88.5501 46.92 88.5501 46.93 89.1001 46.88C92.2301 46.58 97.3501 46.25 100.47 45.96L102.23 45.79C102.64 45.79 102.83 45.92 102.83 46.34C102.83 47.34 102.83 48.34 102.83 49.34L102.82 49.35ZM101.55 49.35C101.55 48.83 101.55 48.35 101.55 47.77C101.55 47.19 101.4 47.21 100.98 47.25L98.5802 47.46C98.1402 47.46 98.0202 47.65 98.0102 48.12C98.0102 48.94 98.0102 49.77 98.0102 50.59C98.0102 51.08 98.1401 51.21 98.6201 51.25L100.93 51.48C101.41 51.48 101.56 51.39 101.57 50.89L101.55 49.35Z" fill="#E6D4CB"/>
<path d="M83.3005 47.2098C83.201 47.3379 83.1139 47.4752 83.0405 47.6198C82.9205 48.1298 82.5805 48.1998 82.1205 48.1798C81.1705 48.1798 80.2205 48.1798 79.2705 48.1798C78.9005 48.1798 78.7705 48.3198 78.7705 48.6798C78.7705 49.0398 78.7705 49.5698 78.7705 50.0198C78.7705 50.4698 78.9005 50.4898 79.2405 50.4798C80.2905 50.4798 81.3305 50.4798 82.3705 50.4798C82.6705 50.4798 82.8405 50.5398 82.9305 50.8398C83.0196 51.0506 83.1302 51.2517 83.2605 51.4398C82.8607 51.4632 82.4749 51.5959 82.1452 51.8233C81.8155 52.0508 81.5544 52.3643 81.3905 52.7298C81.2333 52.899 81.0269 53.0144 80.8005 53.0598C80.6411 53.08 80.4799 53.08 80.3205 53.0598C80.1209 53.0965 79.9149 53.0559 79.744 52.9464C79.5732 52.8368 79.4504 52.6665 79.4005 52.4698C79.2205 52.0498 78.9905 51.6498 78.7705 51.2498C78.5041 50.7299 78.071 50.3144 77.5405 50.0698C77.3868 50.0203 77.2532 49.9225 77.1595 49.791C77.0658 49.6595 77.017 49.5012 77.0205 49.3398C77.0123 49.1827 77.0558 49.0273 77.1443 48.8973C77.2328 48.7673 77.3614 48.6698 77.5105 48.6198C78.1322 48.3197 78.6281 47.8097 78.9105 47.1798C79.1105 46.8298 79.2805 46.4598 79.4505 46.0898C79.5018 45.9354 79.6038 45.8029 79.74 45.7139C79.8762 45.6249 80.0385 45.5847 80.2005 45.5998H80.7605C80.9023 45.5897 81.044 45.6224 81.167 45.6937C81.29 45.7651 81.3888 45.8717 81.4505 45.9998C81.6058 46.361 81.8641 46.6684 82.1931 46.8836C82.5222 47.0988 82.9073 47.2123 83.3005 47.2098Z" fill="#E6D4CB" stroke="black" stroke-width="0.16" stroke-miterlimit="10"/>
<path d="M85.0097 48.5596V50.0796H79.1797V48.5596H85.0097Z" fill="#E6D4CB" stroke="black" stroke-width="0.16" stroke-miterlimit="10"/>
<path d="M83.1797 48.13C83.2859 47.7828 83.491 47.474 83.7698 47.2414C84.0486 47.0088 84.3891 46.8623 84.7497 46.82C85.6425 46.7748 86.5369 46.7748 87.4297 46.82C87.5297 46.82 87.6997 47.01 87.6997 47.11C87.6997 48.61 87.6997 50.11 87.6997 51.61C87.6997 51.85 87.5697 51.94 87.3497 51.94C86.5397 51.94 85.7397 51.94 84.9397 51.94C84.5282 51.9138 84.1357 51.7572 83.8193 51.4929C83.5028 51.2285 83.2788 50.8702 83.1797 50.47C83.3012 50.4197 83.4371 50.4164 83.561 50.4608C83.6848 50.5052 83.7877 50.594 83.8497 50.71C83.9991 50.9273 84.2015 51.1029 84.4377 51.2201C84.674 51.3373 84.9363 51.3924 85.1997 51.38H86.9197C87.1397 51.38 87.2297 51.3 87.2297 51.08V47.58C87.2297 47.33 87.1297 47.25 86.8897 47.26H85.0897C84.8477 47.2564 84.6086 47.3129 84.3939 47.4247C84.1792 47.5364 83.9956 47.6997 83.8597 47.9C83.7959 48.0166 83.6905 48.105 83.5646 48.1476C83.4386 48.1902 83.3012 48.1839 83.1797 48.13Z" fill="#E6D4CB" stroke="black" stroke-width="0.16" stroke-miterlimit="10"/>
<g style="mix-blend-mode:darken" opacity="0.6">
<path d="M88.54 47.4693C88.54 46.8993 88.54 46.9193 89.09 46.8693C92.22 46.5793 97.3401 46.2493 100.46 45.9493L102.22 45.7793C102.62 45.7793 102.82 45.9193 102.82 46.3393C102.82 47.3393 102.82 51.2593 102.82 52.2193C102.82 52.7393 102.62 52.8393 102.13 52.8393C102.4 52.8393 102.35 52.4793 102.35 52.4793V46.8693C102.35 46.4493 102.15 46.2793 101.74 46.3093L89.04 47.3093C88.59 47.3693 88.54 47.4093 88.54 47.4693Z" fill="#D5B8A9"/>
</g>
<path d="M102.82 49.35C102.82 50.35 102.82 51.26 102.82 52.22C102.82 52.75 102.65 52.89 102.13 52.85C98.9102 52.54 93.7001 52.27 90.4901 51.97C89.9401 51.97 89.4001 51.84 88.8501 51.81C88.5901 51.81 88.5301 51.68 88.5401 51.45C88.5601 51.2372 88.5601 51.0229 88.5401 50.81C88.5401 50.67 88.4802 50.46 88.3902 50.42C88.0802 50.27 88.1201 50.02 88.1201 49.77V49C88.093 48.8593 88.1037 48.7138 88.1511 48.5786C88.1985 48.4433 88.281 48.323 88.3902 48.23C88.5502 48.11 88.5401 47.74 88.5501 47.48C88.5501 46.92 88.5501 46.93 89.1001 46.88C92.2301 46.58 97.3501 46.25 100.47 45.96L102.23 45.79C102.64 45.79 102.83 45.92 102.83 46.34C102.83 47.34 102.83 48.34 102.83 49.34L102.82 49.35ZM101.55 49.35C101.55 48.83 101.55 48.35 101.55 47.77C101.55 47.19 101.4 47.21 100.98 47.25L98.5802 47.46C98.1402 47.46 98.0202 47.65 98.0102 48.12C98.0102 48.94 98.0102 49.77 98.0102 50.59C98.0102 51.08 98.1401 51.21 98.6201 51.25L100.93 51.48C101.41 51.48 101.56 51.39 101.57 50.89L101.55 49.35Z" stroke="black" stroke-width="0.16" stroke-miterlimit="10"/>
<g style="mix-blend-mode:darken" opacity="0.6">
<path d="M79.2402 48.71H84.8402V50.03" stroke="#D5B8A9" stroke-width="0.16" stroke-miterlimit="10"/>
</g>
<g style="mix-blend-mode:darken" opacity="0.6">
<path d="M83.2998 48.0996C83.3895 47.7759 83.5808 47.4895 83.8454 47.2825C84.11 47.0755 84.434 46.9588 84.7698 46.9496C85.6498 46.8696 86.3898 46.9496 87.2898 46.9496C87.4698 46.9496 87.5798 47.0296 87.5798 47.2096C87.5798 48.6996 87.5798 50.0496 87.5798 51.5496C87.5798 51.7996 87.5798 51.9296 87.1998 51.9396" stroke="#D5B8A9" stroke-width="0.16" stroke-miterlimit="10"/>
</g>
<g style="mix-blend-mode:darken" opacity="0.6">
<path d="M77.04 49.3699C77.04 48.9899 77.2301 48.8699 77.5201 48.7599C78.1588 48.472 78.6733 47.9646 78.9701 47.3299C79.1701 46.9799 79.3501 46.6099 79.5201 46.2399C79.6901 45.8699 79.8401 45.7299 80.2101 45.7499C80.3966 45.7599 80.5835 45.7599 80.7701 45.7499C80.9123 45.737 81.0551 45.7685 81.1787 45.8401C81.3023 45.9118 81.4006 46.02 81.4601 46.1499C81.8401 46.8699 82.1701 47.3499 83.0901 47.3399C82.9701 47.5299 82.92 47.5099 82.89 47.6399C82.76 48.1399 82.47 48.1899 82.01 48.1699" stroke="#D5B8A9" stroke-width="0.16" stroke-miterlimit="10"/>
</g>
<g style="mix-blend-mode:darken" opacity="0.6">
<path d="M78.7803 49.9697C78.7803 50.3197 78.8403 50.6197 79.1803 50.6097C80.2303 50.6097 81.2703 50.6097 82.3103 50.6097C82.6003 50.6097 82.7803 50.6697 82.8703 50.9797C82.9238 51.1498 83.0012 51.3114 83.1003 51.4597" stroke="#D5B8A9" stroke-width="0.16" stroke-miterlimit="10"/>
</g>
<path d="M90.1271 49.5801V47.619H90.3646V49.3694H91.2762V49.5801H90.1271ZM93.308 48.5946C93.308 48.8025 93.2705 48.9821 93.1954 49.1335C93.1203 49.285 93.0174 49.4017 92.8865 49.4838C92.7556 49.566 92.6061 49.607 92.438 49.607C92.2699 49.607 92.1205 49.566 91.9896 49.4838C91.8587 49.4017 91.7557 49.285 91.6807 49.1335C91.6056 48.9821 91.5681 48.8025 91.5681 48.5946C91.5681 48.3868 91.6056 48.2071 91.6807 48.0557C91.7557 47.9043 91.8587 47.7875 91.9896 47.7054C92.1205 47.6233 92.2699 47.5822 92.438 47.5822C92.6061 47.5822 92.7556 47.6233 92.8865 47.7054C93.0174 47.7875 93.1203 47.9043 93.1954 48.0557C93.2705 48.2071 93.308 48.3868 93.308 48.5946ZM93.077 48.5946C93.077 48.424 93.0485 48.2799 92.9914 48.1625C92.9349 48.0451 92.8583 47.9563 92.7614 47.896C92.6651 47.8356 92.5574 47.8055 92.438 47.8055C92.3187 47.8055 92.2106 47.8356 92.1137 47.896C92.0175 47.9563 91.9408 48.0451 91.8837 48.1625C91.8273 48.2799 91.799 48.424 91.799 48.5946C91.799 48.7653 91.8273 48.9093 91.8837 49.0267C91.9408 49.1441 92.0175 49.233 92.1137 49.2933C92.2106 49.3536 92.3187 49.3838 92.438 49.3838C92.5574 49.3838 92.6651 49.3536 92.7614 49.2933C92.8583 49.233 92.9349 49.1441 92.9914 49.0267C93.0485 48.9093 93.077 48.7653 93.077 48.5946ZM95.0566 48.2251C95.0354 48.1603 95.0075 48.1022 94.9729 48.0509C94.9389 47.9989 94.8981 47.9547 94.8507 47.9181C94.8038 47.8815 94.7506 47.8536 94.6909 47.8344C94.6312 47.8151 94.5658 47.8055 94.4946 47.8055C94.3778 47.8055 94.2716 47.8356 94.176 47.896C94.0805 47.9563 94.0044 48.0451 93.948 48.1625C93.8915 48.2799 93.8633 48.424 93.8633 48.5946C93.8633 48.7653 93.8918 48.9093 93.9489 49.0267C94.006 49.1441 94.0833 49.233 94.1809 49.2933C94.2784 49.3536 94.3881 49.3838 94.51 49.3838C94.6229 49.3838 94.7223 49.3597 94.8083 49.3116C94.8949 49.2628 94.9623 49.1942 95.0104 49.1056C95.0592 49.0165 95.0836 48.9116 95.0836 48.7909L95.1567 48.8063H94.5639V48.5946H95.3145V48.8063C95.3145 48.9687 95.2799 49.1098 95.2106 49.2298C95.1419 49.3498 95.047 49.4428 94.9257 49.5089C94.8051 49.5743 94.6665 49.607 94.51 49.607C94.3355 49.607 94.1821 49.566 94.05 49.4838C93.9185 49.4017 93.8158 49.285 93.742 49.1335C93.6689 48.9821 93.6323 48.8025 93.6323 48.5946C93.6323 48.4387 93.6532 48.2985 93.6949 48.1741C93.7372 48.049 93.7969 47.9425 93.8739 47.8546C93.9509 47.7667 94.042 47.6993 94.1472 47.6525C94.2524 47.6056 94.3682 47.5822 94.4946 47.5822C94.5985 47.5822 94.6954 47.5979 94.7852 47.6294C94.8757 47.6602 94.9562 47.7041 95.0268 47.7612C95.098 47.8177 95.1573 47.8854 95.2048 47.9643C95.2523 48.0426 95.285 48.1295 95.303 48.2251H95.0566ZM97.3862 48.5946C97.3862 48.8025 97.3487 48.9821 97.2736 49.1335C97.1986 49.285 97.0956 49.4017 96.9647 49.4838C96.8338 49.566 96.6844 49.607 96.5163 49.607C96.3482 49.607 96.1987 49.566 96.0678 49.4838C95.9369 49.4017 95.834 49.285 95.7589 49.1335C95.6838 48.9821 95.6463 48.8025 95.6463 48.5946C95.6463 48.3868 95.6838 48.2071 95.7589 48.0557C95.834 47.9043 95.9369 47.7875 96.0678 47.7054C96.1987 47.6233 96.3482 47.5822 96.5163 47.5822C96.6844 47.5822 96.8338 47.6233 96.9647 47.7054C97.0956 47.7875 97.1986 47.9043 97.2736 48.0557C97.3487 48.2071 97.3862 48.3868 97.3862 48.5946ZM97.1553 48.5946C97.1553 48.424 97.1267 48.2799 97.0696 48.1625C97.0132 48.0451 96.9365 47.9563 96.8396 47.896C96.7434 47.8356 96.6356 47.8055 96.5163 47.8055C96.3969 47.8055 96.2888 47.8356 96.1919 47.896C96.0957 47.9563 96.019 48.0451 95.9619 48.1625C95.9055 48.2799 95.8773 48.424 95.8773 48.5946C95.8773 48.7653 95.9055 48.9093 95.9619 49.0267C96.019 49.1441 96.0957 49.233 96.1919 49.2933C96.2888 49.3536 96.3969 49.3838 96.5163 49.3838C96.6356 49.3838 96.7434 49.3536 96.8396 49.2933C96.9365 49.233 97.0132 49.1441 97.0696 49.0267C97.1267 48.9093 97.1553 48.7653 97.1553 48.5946Z" fill="#271414"/>
<path d="M90.1271 49.5801H90.0873V49.6199H90.1271V49.5801ZM90.1271 47.619V47.5792H90.0873V47.619H90.1271ZM90.3646 47.619H90.4044V47.5792H90.3646V47.619ZM90.3646 49.3694H90.3248V49.4092H90.3646V49.3694ZM91.2762 49.3694H91.316V49.3296H91.2762V49.3694ZM91.2762 49.5801V49.6199H91.316V49.5801H91.2762ZM90.1669 49.5801V47.619H90.0873V49.5801H90.1669ZM90.1271 47.6588H90.3646V47.5792H90.1271V47.6588ZM90.3248 47.619V49.3694H90.4044V47.619H90.3248ZM90.3646 49.4092H91.2762V49.3296H90.3646V49.4092ZM91.2364 49.3694V49.5801H91.316V49.3694H91.2364ZM91.2762 49.5403H90.1271V49.6199H91.2762V49.5403ZM93.1954 49.1335L93.1597 49.1159V49.1159L93.1954 49.1335ZM92.8865 49.4838L92.9076 49.5176L92.8865 49.4838ZM91.9896 49.4838L91.9684 49.5176L91.9896 49.4838ZM91.6807 49.1335L91.7163 49.1159L91.6807 49.1335ZM92.8865 47.7054L92.9076 47.6717L92.8865 47.7054ZM93.1954 48.0557L93.1597 48.0734V48.0734L93.1954 48.0557ZM92.9914 48.1625L92.9555 48.1798L92.9556 48.1799L92.9914 48.1625ZM92.7614 47.896L92.7402 47.9297L92.7403 47.9297L92.7614 47.896ZM92.1137 47.896L92.0927 47.8622L92.0926 47.8622L92.1137 47.896ZM91.8837 48.1625L91.8479 48.1451L91.8478 48.1453L91.8837 48.1625ZM91.8837 49.0267L91.8478 49.044L91.8479 49.0441L91.8837 49.0267ZM92.1137 49.2933L92.0926 49.327L92.0927 49.3271L92.1137 49.2933ZM92.7614 49.2933L92.7403 49.2595L92.7402 49.2596L92.7614 49.2933ZM92.9914 49.0267L92.9556 49.0093L92.9555 49.0095L92.9914 49.0267ZM93.2682 48.5946C93.2682 48.7977 93.2315 48.9711 93.1597 49.1159L93.2311 49.1512C93.3094 48.9932 93.3478 48.8072 93.3478 48.5946H93.2682ZM93.1597 49.1159C93.0876 49.2613 92.9894 49.3723 92.8653 49.4501L92.9076 49.5176C93.0453 49.4312 93.1531 49.3086 93.2311 49.1512L93.1597 49.1159ZM92.8653 49.4501C92.7413 49.5279 92.5993 49.5672 92.438 49.5672V49.6468C92.6129 49.6468 92.7699 49.604 92.9076 49.5176L92.8653 49.4501ZM92.438 49.5672C92.2767 49.5672 92.1347 49.5279 92.0107 49.4501L91.9684 49.5176C92.1062 49.604 92.2631 49.6468 92.438 49.6468V49.5672ZM92.0107 49.4501C91.8866 49.3723 91.7884 49.2613 91.7163 49.1159L91.645 49.1512C91.723 49.3086 91.8307 49.4312 91.9684 49.5176L92.0107 49.4501ZM91.7163 49.1159C91.6445 48.9711 91.6079 48.7977 91.6079 48.5946H91.5283C91.5283 48.8072 91.5667 48.9932 91.645 49.1512L91.7163 49.1159ZM91.6079 48.5946C91.6079 48.3915 91.6445 48.2182 91.7163 48.0734L91.645 48.038C91.5667 48.196 91.5283 48.382 91.5283 48.5946H91.6079ZM91.7163 48.0734C91.7884 47.9279 91.8866 47.817 92.0107 47.7391L91.9684 47.6717C91.8307 47.7581 91.723 47.8807 91.645 48.038L91.7163 48.0734ZM92.0107 47.7391C92.1347 47.6613 92.2767 47.622 92.438 47.622V47.5424C92.2631 47.5424 92.1062 47.5852 91.9684 47.6717L92.0107 47.7391ZM92.438 47.622C92.5993 47.622 92.7413 47.6613 92.8653 47.7391L92.9076 47.6717C92.7699 47.5852 92.6129 47.5424 92.438 47.5424V47.622ZM92.8653 47.7391C92.9894 47.817 93.0876 47.9279 93.1597 48.0734L93.2311 48.038C93.1531 47.8807 93.0453 47.7581 92.9076 47.6717L92.8653 47.7391ZM93.1597 48.0734C93.2315 48.2182 93.2682 48.3915 93.2682 48.5946H93.3478C93.3478 48.382 93.3094 48.196 93.2311 48.038L93.1597 48.0734ZM93.1168 48.5946C93.1168 48.4197 93.0876 48.2694 93.0272 48.1451L92.9556 48.1799C93.0094 48.2905 93.0372 48.4282 93.0372 48.5946H93.1168ZM93.0273 48.1453C92.968 48.022 92.8866 47.927 92.7824 47.8622L92.7403 47.9297C92.8299 47.9855 92.9019 48.0682 92.9555 48.1798L93.0273 48.1453ZM92.7825 47.8622C92.6796 47.7977 92.5644 47.7657 92.438 47.7657V47.8453C92.5503 47.8453 92.6507 47.8735 92.7402 47.9297L92.7825 47.8622ZM92.438 47.7657C92.3116 47.7657 92.1962 47.7977 92.0927 47.8622L92.1347 47.9297C92.225 47.8735 92.3258 47.8453 92.438 47.8453V47.7657ZM92.0926 47.8622C91.9891 47.9271 91.9078 48.022 91.8479 48.1451L91.9195 48.1799C91.9738 48.0682 92.0458 47.9855 92.1348 47.9297L92.0926 47.8622ZM91.8478 48.1453C91.7881 48.2695 91.7592 48.4198 91.7592 48.5946H91.8388C91.8388 48.4282 91.8664 48.2904 91.9196 48.1798L91.8478 48.1453ZM91.7592 48.5946C91.7592 48.7695 91.7881 48.9198 91.8478 49.044L91.9196 49.0095C91.8664 48.8988 91.8388 48.7611 91.8388 48.5946H91.7592ZM91.8479 49.0441C91.9078 49.1672 91.9891 49.2622 92.0926 49.327L92.1348 49.2596C92.0458 49.2038 91.9738 49.121 91.9195 49.0093L91.8479 49.0441ZM92.0927 49.3271C92.1962 49.3915 92.3116 49.4236 92.438 49.4236V49.344C92.3258 49.344 92.225 49.3157 92.1347 49.2595L92.0927 49.3271ZM92.438 49.4236C92.5644 49.4236 92.6796 49.3915 92.7825 49.327L92.7402 49.2596C92.6507 49.3157 92.5503 49.344 92.438 49.344V49.4236ZM92.7824 49.3271C92.8866 49.2622 92.968 49.1672 93.0273 49.044L92.9555 49.0095C92.9019 49.1211 92.8299 49.2037 92.7403 49.2595L92.7824 49.3271ZM93.0272 49.0441C93.0876 48.9199 93.1168 48.7695 93.1168 48.5946H93.0372C93.0372 48.761 93.0094 48.8987 92.9556 49.0093L93.0272 49.0441ZM95.0566 48.2251L95.0188 48.2374L95.0277 48.2649H95.0566V48.2251ZM94.9729 48.0509L94.9396 48.0727L94.9399 48.0732L94.9729 48.0509ZM94.8507 47.9181L94.8262 47.9495L94.8264 47.9496L94.8507 47.9181ZM94.6909 47.8344L94.7031 47.7965V47.7965L94.6909 47.8344ZM93.948 48.1625L93.9838 48.1798L93.948 48.1625ZM93.9489 49.0267L93.9131 49.0441L93.9489 49.0267ZM94.1809 49.2933L94.1599 49.3271L94.1809 49.2933ZM94.8083 49.3116L94.8278 49.3463L94.8278 49.3463L94.8083 49.3116ZM95.0104 49.1056L94.9755 49.0865L94.9754 49.0866L95.0104 49.1056ZM95.0836 48.7909L95.0918 48.752L95.0438 48.7419V48.7909H95.0836ZM95.1567 48.8063V48.8461H95.5389L95.1649 48.7674L95.1567 48.8063ZM94.5639 48.8063H94.5241V48.8461H94.5639V48.8063ZM94.5639 48.5946V48.5548H94.5241V48.5946H94.5639ZM95.3145 48.5946H95.3543V48.5548H95.3145V48.5946ZM95.2106 49.2298L95.1761 49.2099L95.176 49.21L95.2106 49.2298ZM94.9257 49.5089L94.9447 49.5438L94.9448 49.5438L94.9257 49.5089ZM94.05 49.4838L94.0289 49.5176L94.029 49.5176L94.05 49.4838ZM93.742 49.1335L93.7062 49.1509L93.7062 49.151L93.742 49.1335ZM93.6949 48.1741L93.6572 48.1613L93.6571 48.1614L93.6949 48.1741ZM93.8739 47.8546L93.9038 47.8808L93.8739 47.8546ZM94.1472 47.6525L94.131 47.6161L94.1472 47.6525ZM94.7852 47.6294L94.7721 47.6669L94.7724 47.6671L94.7852 47.6294ZM95.0268 47.7612L95.0017 47.7922L95.002 47.7924L95.0268 47.7612ZM95.2048 47.9643L95.1707 47.9848L95.1708 47.9849L95.2048 47.9643ZM95.303 48.2251V48.2649H95.3509L95.3421 48.2177L95.303 48.2251ZM95.0944 48.2127C95.0722 48.1448 95.0428 48.0833 95.0059 48.0286L94.9399 48.0732C94.9723 48.1211 94.9986 48.1758 95.0188 48.2374L95.0944 48.2127ZM95.0062 48.0291C94.9698 47.9735 94.9261 47.9259 94.8749 47.8866L94.8264 47.9496C94.8702 47.9834 94.9079 48.0243 94.9396 48.0727L95.0062 48.0291ZM94.8752 47.8867C94.8244 47.8471 94.767 47.8171 94.7031 47.7965L94.6787 47.8722C94.7342 47.8901 94.7832 47.9159 94.8262 47.9495L94.8752 47.8867ZM94.7031 47.7965C94.639 47.7758 94.5694 47.7657 94.4946 47.7657V47.8453C94.5622 47.8453 94.6235 47.8544 94.6787 47.8722L94.7031 47.7965ZM94.4946 47.7657C94.3706 47.7657 94.257 47.7978 94.1548 47.8623L94.1973 47.9296C94.2863 47.8735 94.3851 47.8453 94.4946 47.8453V47.7657ZM94.1548 47.8623C94.052 47.9272 93.9713 48.0222 93.9121 48.1453L93.9838 48.1798C94.0376 48.0681 94.1089 47.9854 94.1973 47.9296L94.1548 47.8623ZM93.9121 48.1453C93.8524 48.2695 93.8235 48.4198 93.8235 48.5946H93.9031C93.9031 48.4282 93.9306 48.2904 93.9838 48.1798L93.9121 48.1453ZM93.8235 48.5946C93.8235 48.7695 93.8527 48.9199 93.9131 49.0441L93.9847 49.0093C93.9309 48.8987 93.9031 48.761 93.9031 48.5946H93.8235ZM93.9131 49.0441C93.9731 49.1673 94.0551 49.2623 94.1599 49.3271L94.2018 49.2594C94.1115 49.2036 94.039 49.1209 93.9847 49.0093L93.9131 49.0441ZM94.1599 49.3271C94.2641 49.3916 94.3812 49.4236 94.51 49.4236V49.344C94.395 49.344 94.2926 49.3156 94.2018 49.2594L94.1599 49.3271ZM94.51 49.4236C94.6287 49.4236 94.735 49.3982 94.8278 49.3463L94.7889 49.2769C94.7097 49.3212 94.6171 49.344 94.51 49.344V49.4236ZM94.8278 49.3463C94.9211 49.2938 94.9937 49.2197 95.0454 49.1246L94.9754 49.0866C94.9308 49.1687 94.8688 49.2319 94.7888 49.2769L94.8278 49.3463ZM95.0453 49.1247C95.0978 49.0287 95.1234 48.917 95.1234 48.7909H95.0438C95.0438 48.9061 95.0205 49.0042 94.9755 49.0865L95.0453 49.1247ZM95.0754 48.8299L95.1485 48.8453L95.1649 48.7674L95.0918 48.752L95.0754 48.8299ZM95.1567 48.7665H94.5639V48.8461H95.1567V48.7665ZM94.6037 48.8063V48.5946H94.5241V48.8063H94.6037ZM94.5639 48.6344H95.3145V48.5548H94.5639V48.6344ZM95.2747 48.5946V48.8063H95.3543V48.5946H95.2747ZM95.2747 48.8063C95.2747 48.9629 95.2414 49.0969 95.1761 49.2099L95.245 49.2497C95.3184 49.1227 95.3543 48.9744 95.3543 48.8063H95.2747ZM95.176 49.21C95.111 49.3236 95.0215 49.4114 94.9067 49.4739L94.9448 49.5438C95.0725 49.4742 95.1728 49.3759 95.2451 49.2495L95.176 49.21ZM94.9067 49.4739C94.7927 49.5357 94.6608 49.5672 94.51 49.5672V49.6468C94.6722 49.6468 94.8175 49.6129 94.9447 49.5438L94.9067 49.4739ZM94.51 49.5672C94.342 49.5672 94.1961 49.5278 94.071 49.45L94.029 49.5176C94.1682 49.6041 94.329 49.6468 94.51 49.6468V49.5672ZM94.0711 49.4501C93.9464 49.3723 93.8486 49.2614 93.7778 49.1161L93.7062 49.151C93.783 49.3085 93.8905 49.4312 94.0289 49.5176L94.0711 49.4501ZM93.7779 49.1162C93.7079 48.9713 93.6721 48.7979 93.6721 48.5946H93.5925C93.5925 48.8071 93.6299 48.9929 93.7062 49.1509L93.7779 49.1162ZM93.6721 48.5946C93.6721 48.4422 93.6925 48.3064 93.7326 48.1867L93.6571 48.1614C93.6138 48.2907 93.5925 48.4352 93.5925 48.5946H93.6721ZM93.7326 48.1868C93.7735 48.066 93.8307 47.9643 93.9038 47.8808L93.8439 47.8283C93.7631 47.9207 93.701 48.0319 93.6572 48.1613L93.7326 48.1868ZM93.9038 47.8808C93.9771 47.7972 94.0635 47.7333 94.1634 47.6888L94.131 47.6161C94.0204 47.6653 93.9247 47.7362 93.8439 47.8283L93.9038 47.8808ZM94.1634 47.6888C94.263 47.6445 94.3732 47.622 94.4946 47.622V47.5424C94.3632 47.5424 94.2418 47.5668 94.131 47.6161L94.1634 47.6888ZM94.4946 47.622C94.5945 47.622 94.6869 47.6371 94.7721 47.6669L94.7984 47.5918C94.704 47.5588 94.6026 47.5424 94.4946 47.5424V47.622ZM94.7724 47.6671C94.8587 47.6964 94.935 47.7382 95.0017 47.7922L95.0518 47.7303C94.9774 47.6701 94.8927 47.6239 94.798 47.5917L94.7724 47.6671ZM95.002 47.7924C95.0695 47.8459 95.1257 47.9099 95.1707 47.9848L95.2389 47.9438C95.189 47.8608 95.1265 47.7895 95.0515 47.73L95.002 47.7924ZM95.1708 47.9849C95.2156 48.0589 95.2467 48.1412 95.2639 48.2324L95.3421 48.2177C95.3233 48.1177 95.2889 48.0262 95.2388 47.9436L95.1708 47.9849ZM95.303 48.1853H95.0566V48.2649H95.303V48.1853ZM97.2736 49.1335L97.238 49.1159V49.1159L97.2736 49.1335ZM96.9647 49.4838L96.9859 49.5176L96.9647 49.4838ZM96.0678 49.4838L96.0467 49.5176L96.0678 49.4838ZM95.7589 49.1335L95.7945 49.1159L95.7589 49.1335ZM96.9647 47.7054L96.9859 47.6717L96.9647 47.7054ZM97.2736 48.0557L97.238 48.0734V48.0734L97.2736 48.0557ZM97.0696 48.1625L97.0338 48.1798L97.0338 48.1799L97.0696 48.1625ZM96.8396 47.896L96.8185 47.9297L96.8186 47.9297L96.8396 47.896ZM96.1919 47.896L96.1709 47.8622L96.1708 47.8622L96.1919 47.896ZM95.9619 48.1625L95.9262 48.1451L95.9261 48.1453L95.9619 48.1625ZM95.9619 49.0267L95.9261 49.044L95.9262 49.0441L95.9619 49.0267ZM96.1919 49.2933L96.1708 49.327L96.1709 49.3271L96.1919 49.2933ZM96.8396 49.2933L96.8186 49.2595L96.8185 49.2596L96.8396 49.2933ZM97.0696 49.0267L97.0338 49.0093L97.0338 49.0095L97.0696 49.0267ZM97.3464 48.5946C97.3464 48.7977 97.3098 48.9711 97.238 49.1159L97.3093 49.1512C97.3876 48.9932 97.426 48.8072 97.426 48.5946H97.3464ZM97.238 49.1159C97.1659 49.2613 97.0676 49.3723 96.9436 49.4501L96.9859 49.5176C97.1236 49.4312 97.2313 49.3086 97.3093 49.1512L97.238 49.1159ZM96.9436 49.4501C96.8196 49.5279 96.6776 49.5672 96.5163 49.5672V49.6468C96.6912 49.6468 96.8481 49.604 96.9859 49.5176L96.9436 49.4501ZM96.5163 49.5672C96.355 49.5672 96.2129 49.5279 96.089 49.4501L96.0467 49.5176C96.1844 49.604 96.3414 49.6468 96.5163 49.6468V49.5672ZM96.089 49.4501C95.9649 49.3723 95.8667 49.2613 95.7945 49.1159L95.7232 49.1512C95.8012 49.3086 95.909 49.4312 96.0467 49.5176L96.089 49.4501ZM95.7945 49.1159C95.7228 48.9711 95.6861 48.7977 95.6861 48.5946H95.6065C95.6065 48.8072 95.6449 48.9932 95.7232 49.1512L95.7945 49.1159ZM95.6861 48.5946C95.6861 48.3915 95.7228 48.2182 95.7945 48.0734L95.7232 48.038C95.6449 48.196 95.6065 48.382 95.6065 48.5946H95.6861ZM95.7945 48.0734C95.8667 47.9279 95.9649 47.817 96.089 47.7391L96.0467 47.6717C95.909 47.7581 95.8012 47.8807 95.7232 48.038L95.7945 48.0734ZM96.089 47.7391C96.2129 47.6613 96.355 47.622 96.5163 47.622V47.5424C96.3414 47.5424 96.1844 47.5852 96.0467 47.6717L96.089 47.7391ZM96.5163 47.622C96.6776 47.622 96.8196 47.6613 96.9436 47.7391L96.9859 47.6717C96.8481 47.5852 96.6912 47.5424 96.5163 47.5424V47.622ZM96.9436 47.7391C97.0676 47.817 97.1659 47.9279 97.238 48.0734L97.3093 48.038C97.2313 47.8807 97.1236 47.7581 96.9859 47.6717L96.9436 47.7391ZM97.238 48.0734C97.3098 48.2182 97.3464 48.3915 97.3464 48.5946H97.426C97.426 48.382 97.3876 48.196 97.3093 48.038L97.238 48.0734ZM97.1951 48.5946C97.1951 48.4197 97.1658 48.2694 97.1054 48.1451L97.0338 48.1799C97.0876 48.2905 97.1155 48.4282 97.1155 48.5946H97.1951ZM97.1055 48.1453C97.0462 48.022 96.9648 47.927 96.8606 47.8622L96.8186 47.9297C96.9082 47.9855 96.9801 48.0682 97.0338 48.1798L97.1055 48.1453ZM96.8607 47.8622C96.7579 47.7977 96.6427 47.7657 96.5163 47.7657V47.8453C96.6285 47.8453 96.7289 47.8735 96.8185 47.9297L96.8607 47.8622ZM96.5163 47.7657C96.3899 47.7657 96.2744 47.7977 96.1709 47.8622L96.213 47.9297C96.3033 47.8735 96.404 47.8453 96.5163 47.8453V47.7657ZM96.1708 47.8622C96.0674 47.9271 95.986 48.022 95.9262 48.1451L95.9977 48.1799C96.0521 48.0682 96.1241 47.9855 96.2131 47.9297L96.1708 47.8622ZM95.9261 48.1453C95.8664 48.2695 95.8375 48.4198 95.8375 48.5946H95.9171C95.9171 48.4282 95.9446 48.2904 95.9978 48.1798L95.9261 48.1453ZM95.8375 48.5946C95.8375 48.7695 95.8664 48.9198 95.9261 49.044L95.9978 49.0095C95.9446 48.8988 95.9171 48.7611 95.9171 48.5946H95.8375ZM95.9262 49.0441C95.986 49.1672 96.0674 49.2622 96.1708 49.327L96.2131 49.2596C96.1241 49.2038 96.0521 49.121 95.9977 49.0093L95.9262 49.0441ZM96.1709 49.3271C96.2744 49.3915 96.3899 49.4236 96.5163 49.4236V49.344C96.404 49.344 96.3033 49.3157 96.213 49.2595L96.1709 49.3271ZM96.5163 49.4236C96.6427 49.4236 96.7579 49.3915 96.8607 49.327L96.8185 49.2596C96.7289 49.3157 96.6285 49.344 96.5163 49.344V49.4236ZM96.8606 49.3271C96.9648 49.2622 97.0462 49.1672 97.1055 49.044L97.0338 49.0095C96.9801 49.1211 96.9082 49.2037 96.8186 49.2595L96.8606 49.3271ZM97.1054 49.0441C97.1658 48.9199 97.1951 48.7695 97.1951 48.5946H97.1155C97.1155 48.761 97.0876 48.8987 97.0338 49.0093L97.1054 49.0441Z" fill="#271414"/>
<path d="M63.3398 33.79H71.5398" stroke="black" stroke-width="2.01" stroke-linecap="round" stroke-linejoin="round"/>
<path d="M94.1396 33.8193H102.34" stroke="black" stroke-width="2.01" stroke-linecap="round" stroke-linejoin="round"/>
<path d="M98.2497 33.82V31.1C98.2497 23.87 91.3597 18 82.8597 18C74.3597 18 67.4697 23.87 67.4697 31.1V33.82" stroke="black" stroke-width="2.01" stroke-linecap="round" stroke-linejoin="round"/>
<path d="M102.34 66.6797H94.1396" stroke="black" stroke-width="2.01" stroke-linecap="round" stroke-linejoin="round"/>
<path d="M71.5398 66.6494H63.3398" stroke="black" stroke-width="2.01" stroke-linecap="round" stroke-linejoin="round"/>
<path d="M67.4297 66.6494V69.3694C67.4297 76.5994 74.3197 82.4594 82.8197 82.4594C91.3197 82.4594 98.1797 76.5994 98.1797 69.3694V66.6494" stroke="black" stroke-width="2.01" stroke-linecap="round" stroke-linejoin="round"/>
</svg>
